<?xml version="1.0" encoding="utf-8"?>
<!-- Generator: Adobe Illustrator 19.0.0, SVG Export Plug-In . SVG Version: 6.00 Build 0)  -->
<svg version="1.1" id="Layer_1" xmlns="http://www.w3.org/2000/svg" xmlns:xlink="http://www.w3.org/1999/xlink" x="0px" y="0px"
	 viewBox="0 0 485 453" style="enable-background:new 0 0 485 453;" xml:space="preserve">
<style type="text/css">
	.st0{fill:#234674;}
	.st1{fill:#FFFFFF;}
	.st2{display:none;fill:#FFFFFF;}
	.st3{font-family:'BebasNeueRegular';}
	.st4{font-size:446px;}
	.st5{letter-spacing:-55;}
</style>
<g id="XMLID_1_">
	<rect id="XMLID_4_" class="st0" width="485" height="453"/>
	<g id="XMLID_31_">
		<path id="XMLID_51_" class="st1" d="M382.7,168.5V142c0-47.3-22.1-78.5-70.3-78.5c-27.8,0-46.8,10.5-58,28.7
			c-10.1-17-28.7-25.7-58.2-25.7h-69.5v312H198c27.2,0,46.2-8,57.8-23.5c11.3,17,29.9,26.8,56.6,26.8c48.2,0,70.3-31.1,70.3-78.4
			v-92h-65v31h32v62.7c0,28.1-11.1,45-36.5,45c-25,0-36.5-17-36.5-45v-165c0-28.1,11.5-45,36.5-45c25.4,0,36.5,17,36.5,45v28.3
			H382.7z M242.7,218.9c-5-2.7-9.5-4.8-15.2-6.4c5.8-1.8,11.2-4.2,15.2-7.2V218.9z M160.7,98.5h34.6c25,0,34.4,13.2,34.4,40.8v18.3
			c0,32.6-14.3,41.9-42,41.9h-27V98.5z M234.7,304.8c0,29-11.3,42.7-36.7,42.7h-37.3v-117h30.6c29.9,0,43.4,11.9,43.4,46.6V304.8z"
			/>
	</g>
	<text id="XMLID_30_" transform="matrix(1 0 0 1 108.3349 378.8333)" class="st2 st3 st4 st5">bg</text>
</g>
</svg>
