<?xml version="1.0" encoding="utf-8"?>
<!-- Generator: Adobe Illustrator 19.0.0, SVG Export Plug-In . SVG Version: 6.00 Build 0)  -->
<svg version="1.1" id="Layer_1" xmlns="http://www.w3.org/2000/svg" xmlns:xlink="http://www.w3.org/1999/xlink" x="0px" y="0px"
	 viewBox="0 0 330.4 75.5" style="enable-background:new 0 0 330.4 75.5;" xml:space="preserve">
<style type="text/css">
	.st0{fill:url(#XMLID_240_);}
	.st1{fill:#DE0000;}
	.st2{fill:#1CBDE0;}
	.st3{fill:#231F20;}
	.st4{fill:#FBB817;}
	.st5{fill:#3D5BA8;}
	.st6{fill:none;}
	.st7{fill:#EC1B30;}
	.st8{fill:#DFCB21;}
</style>
<g id="XMLID_19_">
	<g id="XMLID_316_">
		<g id="L">
			<path id="XMLID_11_" d="M71.7,43v5h27.3v-5H83.8V28.3h6.8L82,19.2l-8.7,9h6.5V43H71.7z"/>
			<radialGradient id="XMLID_240_" cx="80.6796" cy="43.0062" r="6.54" gradientUnits="userSpaceOnUse">
				<stop  offset="0" style="stop-color:#4276B2"/>
				<stop  offset="0.1989" style="stop-color:#305FAC"/>
				<stop  offset="0.5301" style="stop-color:#1640A5"/>
				<stop  offset="0.809" style="stop-color:#062CA0"/>
				<stop  offset="1" style="stop-color:#00259E"/>
			</radialGradient>
			<path id="XMLID_7_" class="st0" d="M82.2,37.8c3.6,0,6.5,2.9,6.5,6.5c0,3.6-2.9,6.5-6.5,6.5c-3.6,0-6.5-2.9-6.5-6.5
				C75.7,40.8,78.6,37.8,82.2,37.8z"/>
		</g>
		<g id="D">
			<path id="XMLID_3_" d="M48.9,20.9h10.2c2.3,0,4.1,0.2,5.3,0.5c1.6,0.5,3,1.3,4.2,2.6c1.2,1.2,2,2.7,2.6,4.5
				c0.6,1.8,0.9,4,0.9,6.5c0,2.3-0.3,4.2-0.9,5.9c-0.7,2-1.7,3.6-3,4.9c-1,0.9-2.3,1.7-3.9,2.2c-1.2,0.4-2.9,0.6-4.9,0.6H48.9V20.9z
				 M54.5,25.5v18.3h4.2c1.6,0,2.7-0.1,3.4-0.3c0.9-0.2,1.7-0.6,2.3-1.2c0.6-0.5,1.1-1.4,1.5-2.7c0.4-1.2,0.6-2.9,0.6-5.1
				c0-2.1-0.2-3.8-0.6-4.9c-0.4-1.1-0.9-2-1.6-2.7c-0.7-0.6-1.5-1.1-2.6-1.3c-0.8-0.2-2.3-0.3-4.6-0.3H54.5z"/>
			<path id="XMLID_17_" d="M45.9,19.4L56.7,4.3h3.6l11.2,15.3h-5L58.6,8.7l-7.8,10.9h-5L45.9,19.4z"/>
		</g>
		<path id="N" class="st1" d="M9.7,51.5c0,0,5-20,9.9-25.5c2.7-3.2,4.7-2.8,6.1-3c1.6-0.1,3.5,1.5,3.8,4.4
			c0.5,4.9,1.2,11.4,2.3,11.5c1.8,0.1,10-16.8,11.5-18c1.2-0.5,3.6-0.8,4.9-0.2c0.2,0.9-9,16.3-9,16.3s-4,5.9-8.5,5.6
			c-4.5-0.3-5.6-4.3-6-9.4c-0.2-5.1-0.3-5.8-0.9-5.8c-1,0.1-5.4,9.9-9.5,23.5c-1,0.9-2.5,1.1-2.8,1.1C10.2,52.1,9.7,51.5,9.7,51.5z"
			/>
		<g id="XMLID_152_">
			<path id="XMLID_153_" d="M3.5,62v-7.3h1l2.3,3.7c0.5,0.9,1,1.6,1.3,2.4l0,0c-0.1-1-0.1-1.9-0.1-3v-3.1H9V62H8l-2.3-3.7
				c-0.5-0.8-1-1.6-1.4-2.4l0,0c0.1,0.9,0.1,1.8,0.1,3V62H3.5z"/>
			<path id="XMLID_155_" d="M13.5,62l-0.1-0.7h0c-0.3,0.4-0.9,0.8-1.6,0.8c-1.1,0-1.6-0.7-1.6-1.5c0-1.3,1.1-2,3.2-2v-0.1
				c0-0.4-0.1-1.2-1.2-1.2c-0.5,0-1,0.2-1.4,0.4l-0.2-0.6c0.4-0.3,1.1-0.5,1.7-0.5c1.6,0,2,1.1,2,2.1v2c0,0.5,0,0.9,0.1,1.3H13.5z
				 M13.3,59.4c-1,0-2.2,0.2-2.2,1.2c0,0.6,0.4,0.9,0.9,0.9c0.7,0,1.1-0.4,1.3-0.9c0-0.1,0.1-0.2,0.1-0.3V59.4z"/>
			<path id="XMLID_158_" d="M15.8,58.2c0-0.5,0-1,0-1.4h0.8l0.1,0.9h0c0.3-0.5,0.9-1,1.7-1c0.7,0,1.9,0.4,1.9,2.2V62h-1v-3
				c0-0.8-0.3-1.5-1.2-1.5c-0.6,0-1.1,0.4-1.3,1c0,0.1-0.1,0.3-0.1,0.4V62h-1V58.2z"/>
			<path id="XMLID_160_" d="M26.6,59.4c0,1.9-1.3,2.8-2.6,2.8c-1.4,0-2.5-1-2.5-2.7c0-1.8,1.1-2.8,2.6-2.8
				C25.5,56.7,26.6,57.8,26.6,59.4z M22.4,59.4c0,1.1,0.7,2,1.6,2c0.9,0,1.6-0.9,1.6-2c0-0.9-0.4-2-1.6-2
				C22.9,57.4,22.4,58.4,22.4,59.4z"/>
			<path id="XMLID_163_" d="M30.1,58.8v0.7h-2.7v-0.7H30.1z"/>
			<path id="XMLID_165_" d="M31.3,54.8c0.6-0.1,1.3-0.2,2-0.2c1.4,0,2.3,0.3,3,0.9c0.6,0.6,1,1.4,1,2.6c0,1.2-0.4,2.2-1.1,2.8
				c-0.7,0.7-1.8,1.1-3.2,1.1c-0.7,0-1.2,0-1.7-0.1V54.8z M32.2,61.3c0.2,0,0.6,0.1,1,0.1c2,0,3.1-1.1,3.1-3.1c0-1.7-1-2.8-3-2.8
				c-0.5,0-0.9,0-1.1,0.1V61.3z"/>
			<path id="XMLID_168_" d="M39,59.6c0,1.3,0.8,1.8,1.8,1.8c0.7,0,1.1-0.1,1.5-0.3l0.2,0.7c-0.3,0.2-0.9,0.3-1.7,0.3
				c-1.6,0-2.6-1.1-2.6-2.6c0-1.6,0.9-2.8,2.5-2.8c1.7,0,2.2,1.5,2.2,2.5c0,0.2,0,0.3,0,0.4H39z M41.8,58.9c0-0.6-0.2-1.5-1.3-1.5
				c-1,0-1.4,0.9-1.5,1.5H41.8z"/>
			<path id="XMLID_171_" d="M44.3,56.8l1,2.9c0.2,0.5,0.3,0.9,0.4,1.3h0c0.1-0.4,0.3-0.9,0.4-1.3l1-2.9h1L46.2,62h-0.9l-2-5.2H44.3z
				"/>
			<path id="XMLID_173_" d="M50.2,55.3c0,0.3-0.2,0.6-0.6,0.6c-0.3,0-0.6-0.3-0.6-0.6c0-0.3,0.2-0.6,0.6-0.6
				C50,54.7,50.2,55,50.2,55.3z M49.2,62v-5.2h1V62H49.2z"/>
			<path id="XMLID_176_" d="M55.4,61.9c-0.2,0.1-0.8,0.3-1.5,0.3c-1.6,0-2.6-1.1-2.6-2.7c0-1.6,1.1-2.8,2.8-2.8
				c0.6,0,1.1,0.1,1.3,0.3l-0.2,0.7c-0.2-0.1-0.6-0.2-1.1-0.2c-1.2,0-1.9,0.9-1.9,2c0,1.2,0.8,2,1.8,2c0.5,0,0.9-0.1,1.2-0.3
				L55.4,61.9z"/>
			<path id="XMLID_178_" d="M57,59.6c0,1.3,0.8,1.8,1.8,1.8c0.7,0,1.1-0.1,1.5-0.3l0.2,0.7c-0.3,0.2-0.9,0.3-1.7,0.3
				c-1.6,0-2.6-1.1-2.6-2.6c0-1.6,0.9-2.8,2.5-2.8c1.7,0,2.2,1.5,2.2,2.5c0,0.2,0,0.3,0,0.4H57z M59.8,58.9c0-0.6-0.2-1.5-1.3-1.5
				c-1,0-1.4,0.9-1.5,1.5H59.8z"/>
			<path id="XMLID_181_" d="M64.2,54.7h0.9v6.5h3.1V62h-4.1V54.7z"/>
			<path id="XMLID_183_" d="M72.2,62l-0.1-0.7h0c-0.3,0.4-0.9,0.8-1.6,0.8c-1.1,0-1.6-0.7-1.6-1.5c0-1.3,1.1-2,3.2-2v-0.1
				c0-0.4-0.1-1.2-1.2-1.2c-0.5,0-1,0.2-1.4,0.4l-0.2-0.6c0.4-0.3,1.1-0.5,1.7-0.5c1.6,0,2,1.1,2,2.1v2c0,0.5,0,0.9,0.1,1.3H72.2z
				 M72.1,59.4c-1,0-2.2,0.2-2.2,1.2c0,0.6,0.4,0.9,0.9,0.9c0.7,0,1.1-0.4,1.3-0.9c0-0.1,0.1-0.2,0.1-0.3V59.4z"/>
			<path id="XMLID_200_" d="M74.5,62c0-0.4,0-0.9,0-1.4v-6.3h0.9v3.3h0c0.3-0.6,0.9-1,1.8-1c1.3,0,2.2,1.1,2.2,2.7
				c0,1.9-1.2,2.8-2.4,2.8c-0.8,0-1.4-0.3-1.8-1h0l0,0.9H74.5z M75.5,59.9c0,0.1,0,0.2,0,0.3c0.2,0.7,0.7,1.1,1.4,1.1
				c1,0,1.6-0.8,1.6-2c0-1.1-0.5-2-1.6-2c-0.6,0-1.3,0.4-1.5,1.2c0,0.1-0.1,0.2-0.1,0.4V59.9z"/>
			<path id="XMLID_206_" d="M85.4,59.4c0,1.9-1.3,2.8-2.6,2.8c-1.4,0-2.5-1-2.5-2.7c0-1.8,1.1-2.8,2.6-2.8
				C84.4,56.7,85.4,57.8,85.4,59.4z M81.3,59.4c0,1.1,0.7,2,1.6,2c0.9,0,1.6-0.9,1.6-2c0-0.9-0.4-2-1.6-2
				C81.8,57.4,81.3,58.4,81.3,59.4z"/>
			<path id="XMLID_226_" d="M86.6,58.4c0-0.6,0-1.1,0-1.6h0.8l0,1h0c0.2-0.7,0.8-1.1,1.5-1.1c0.1,0,0.2,0,0.3,0v0.9
				c-0.1,0-0.2,0-0.3,0c-0.7,0-1.1,0.5-1.3,1.2c0,0.1,0,0.3,0,0.4V62h-0.9V58.4z"/>
			<path id="XMLID_228_" d="M93,62L93,61.4h0c-0.3,0.4-0.9,0.8-1.6,0.8c-1.1,0-1.6-0.7-1.6-1.5c0-1.3,1.1-2,3.2-2v-0.1
				c0-0.4-0.1-1.2-1.2-1.2c-0.5,0-1,0.2-1.4,0.4l-0.2-0.6c0.4-0.3,1.1-0.5,1.7-0.5c1.6,0,2,1.1,2,2.1v2c0,0.5,0,0.9,0.1,1.3H93z
				 M92.9,59.4c-1,0-2.2,0.2-2.2,1.2c0,0.6,0.4,0.9,0.9,0.9c0.7,0,1.1-0.4,1.3-0.9c0-0.1,0.1-0.2,0.1-0.3V59.4z"/>
			<path id="XMLID_231_" d="M96.5,55.3v1.5h1.4v0.7h-1.4v2.8c0,0.6,0.2,1,0.7,1c0.2,0,0.4,0,0.6-0.1l0,0.7c-0.2,0.1-0.5,0.1-0.8,0.1
				c-0.4,0-0.8-0.1-1-0.4c-0.3-0.3-0.4-0.7-0.4-1.4v-2.9h-0.8v-0.7h0.8v-1.3L96.5,55.3z"/>
			<path id="XMLID_233_" d="M103.6,59.4c0,1.9-1.3,2.8-2.6,2.8c-1.4,0-2.5-1-2.5-2.7c0-1.8,1.1-2.8,2.6-2.8
				C102.6,56.7,103.6,57.8,103.6,59.4z M99.4,59.4c0,1.1,0.7,2,1.6,2c0.9,0,1.6-0.9,1.6-2c0-0.9-0.4-2-1.6-2
				C99.9,57.4,99.4,58.4,99.4,59.4z"/>
			<path id="XMLID_236_" d="M104.8,58.4c0-0.6,0-1.1,0-1.6h0.8l0,1h0c0.2-0.7,0.8-1.1,1.5-1.1c0.1,0,0.2,0,0.3,0v0.9
				c-0.1,0-0.2,0-0.3,0c-0.7,0-1.1,0.5-1.3,1.2c0,0.1,0,0.3,0,0.4V62h-0.9V58.4z"/>
			<path id="XMLID_238_" d="M108.9,56.8l1.1,3.1c0.1,0.3,0.2,0.8,0.3,1.1h0c0.1-0.3,0.2-0.7,0.3-1.1l1-3.1h1l-1.4,3.7
				c-0.7,1.8-1.1,2.7-1.8,3.3c-0.5,0.4-0.9,0.6-1.2,0.6l-0.2-0.8c0.2-0.1,0.6-0.2,0.8-0.5c0.3-0.2,0.6-0.6,0.8-1.1
				c0-0.1,0.1-0.2,0.1-0.2s0-0.1-0.1-0.2l-1.9-4.8H108.9z"/>
		</g>
	</g>
	<rect id="XMLID_315_" x="119.1" y="10.7" class="st2" width="1.4" height="54.2"/>
	<g id="XMLID_20_">
		<path id="XMLID_263_" class="st3" d="M217.8,30.4c0-1.3,0.2-2.5,0.7-3.6c0.5-1.1,1.1-2,1.9-2.8c0.8-0.8,1.7-1.4,2.8-1.8
			c1.1-0.4,2.3-0.6,3.6-0.6c1.3,0,2.5,0.2,3.6,0.6c1.1,0.4,2.1,1,2.8,1.8c0.8,0.8,1.4,1.7,1.9,2.8c0.5,1.1,0.7,2.3,0.7,3.6
			c0,1.3-0.2,2.5-0.7,3.6c-0.5,1.1-1.1,2-1.9,2.8c-0.8,0.8-1.7,1.4-2.8,1.8c-1.1,0.4-2.3,0.6-3.6,0.6c-1.3,0-2.5-0.2-3.6-0.6
			c-1.1-0.4-2.1-1-2.8-1.8c-0.8-0.8-1.4-1.7-1.9-2.8C218,33,217.8,31.8,217.8,30.4z M220.8,30.4c0,0.9,0.1,1.7,0.4,2.5
			c0.3,0.8,0.7,1.4,1.2,2c0.5,0.6,1.2,1,1.9,1.3c0.7,0.3,1.6,0.5,2.5,0.5c0.9,0,1.7-0.2,2.5-0.5c0.7-0.3,1.4-0.8,1.9-1.3
			c0.5-0.6,0.9-1.2,1.2-2c0.3-0.8,0.4-1.6,0.4-2.5c0-0.9-0.1-1.7-0.4-2.5c-0.3-0.8-0.7-1.4-1.2-2c-0.5-0.6-1.2-1-1.9-1.3
			c-0.7-0.3-1.6-0.5-2.5-0.5c-0.9,0-1.7,0.2-2.5,0.5c-0.7,0.3-1.4,0.8-1.9,1.3c-0.5,0.6-0.9,1.2-1.2,2
			C220.9,28.7,220.8,29.5,220.8,30.4z"/>
		<path id="XMLID_260_" class="st3" d="M271.5,35.9c-1,1.3-2.1,2.2-3.3,2.7c-1.2,0.5-2.6,0.8-4.2,0.8c-1.3,0-2.5-0.2-3.6-0.7
			c-1.1-0.5-2-1.1-2.7-1.9c-0.7-0.8-1.3-1.7-1.7-2.8c-0.4-1.1-0.6-2.2-0.6-3.5c0-1.3,0.2-2.5,0.6-3.6c0.4-1.1,1-2,1.8-2.8
			c0.8-0.8,1.7-1.4,2.7-1.8c1.1-0.4,2.2-0.6,3.5-0.6c1.2,0,2.3,0.2,3.2,0.6c1,0.4,1.8,1,2.5,1.7c0.7,0.8,1.3,1.7,1.6,2.8
			c0.4,1.1,0.6,2.3,0.6,3.7v0.9h-13.6c0,0.7,0.2,1.4,0.5,2.1c0.3,0.7,0.7,1.2,1.2,1.7c0.5,0.5,1,0.9,1.7,1.2
			c0.6,0.3,1.4,0.4,2.1,0.4c1.2,0,2.3-0.2,3.1-0.6c0.8-0.4,1.6-1.1,2.3-1.9L271.5,35.9z M269,29c0-1.4-0.5-2.6-1.4-3.5
			c-0.9-0.9-2.1-1.3-3.7-1.3c-1.6,0-2.8,0.4-3.8,1.3c-1,0.9-1.5,2-1.7,3.5H269z"/>
		<path id="XMLID_259_" d="M304.4,29.7c0,0.1,0,0.2,0,0.3v-0.2C304.4,29.8,304.4,29.8,304.4,29.7z"/>
		<path id="XMLID_258_" d="M307.2,30.1c0-0.1,0-0.2,0-0.3c0,0,0,0.1,0,0.1V30.1z"/>
		<path id="XMLID_257_" d="M318.5,26.3c0-0.2-0.1-0.5-0.1-0.7c0-0.2-0.1-0.4-0.2-0.6c-0.2-0.4-0.3-0.9-0.6-1.2
			c-0.1-0.2-0.2-0.3-0.3-0.5c-0.2-0.3-0.5-0.5-0.8-0.8c-0.3-0.2-0.7-0.5-1.2-0.6c0,0,0,0,0,0c-0.7-0.3-1.7-0.4-2.7-0.5
			c-0.1,0-0.2,0-0.3,0c-1.3,0-2.4,0.3-3.2,0.8c-0.8,0.6-1.5,1.4-2.2,2.4c0,0-0.4,0.8-0.9,1.6c-0.5-0.9-0.9-1.6-0.9-1.6
			c-0.6-1-1.3-1.8-2.2-2.4c-0.8-0.6-1.9-0.8-3.2-0.8c-1.2,0-2.2,0.2-3,0.5c-0.8,0.3-1.5,0.8-2,1.4c-0.5,0.6-0.9,1.4-1.1,2.2
			c-0.2,0.9-0.3,1.9-0.3,2.9v10.2h2.8V28.8c0-0.6,0.1-1.1,0.2-1.7c0.1-0.6,0.3-1,0.6-1.5c0.3-0.4,0.7-0.8,1.3-1
			c0.5-0.3,1.2-0.4,2-0.4c0.6,0,1.2,0.1,1.7,0.4c0.5,0.2,1,0.6,1.4,1c0.4,0.4,0.7,1,0.9,1.6c0.2,0.6,0.3,1.2,0.3,1.9
			c0,0,0,0.1,0,0.1v0.2v9.6h2.8v-9.6v-0.2c0,0,0-0.1,0-0.1c0-0.7,0.1-1.3,0.3-1.9c0.2-0.6,0.5-1.1,0.9-1.6c0.4-0.4,0.9-0.8,1.4-1
			c0.5-0.2,1.1-0.4,1.7-0.4c0.8,0,1.5,0.1,2,0.4c0.5,0.3,0.9,0.6,1.3,1c0.3,0.4,0.5,0.9,0.6,1.5c0.1,0.6,0.2,1.1,0.2,1.7v16.6h2.8
			V28.6C318.7,27.8,318.6,27,318.5,26.3z"/>
		<path id="XMLID_256_" class="st4" d="M227,16.1h0.6c8,0,15,6.1,16.9,13.8h2.1c-2-8.8-9.8-15.8-19-15.8H227c-9.2,0-17,7-19,15.8
			h2.1C212,22.3,218.9,16.1,227,16.1z"/>
		<path id="XMLID_255_" class="st4" d="M226.5,12h0.7c9.2,0,17.2,6.4,19.7,14.6h0.3c-2.1-8.8-10.4-15.8-20-15.8h-0.7
			c-9.7,0-18,7-20,15.8h0.3C209.3,18.4,217.3,12,226.5,12z"/>
		<path id="XMLID_254_" class="st4" d="M226.7,8.5h0.7c9.8,0,18.3,6.8,20.6,15.4h0.1c-2.1-8.8-10.7-15.8-20.7-15.8h-0.7
			c-10,0-18.6,7-20.7,15.8h0.1C208.4,15.3,216.9,8.5,226.7,8.5z"/>
		<path id="XMLID_253_" class="st5" d="M281.2,31.6c-1.1,8.6-8.5,15.1-17.1,15.2c-8.7-0.1-16-6.6-17.1-15.2c0,0,0,0,0-0.1h-2.1
			c0,0.1,0,0.2,0.1,0.3c1.2,9.2,8.7,16.3,17.9,16.9l1.2,0.1l0.2,0l1.1-0.1c9.2-0.7,16.7-7.7,17.9-16.9c0-0.1,0-0.2,0.1-0.3
			L281.2,31.6C281.2,31.6,281.2,31.6,281.2,31.6z"/>
		<path id="XMLID_252_" class="st5" d="M265.8,55l-1.3,0.1l-0.2,0L263,55c-10.2-0.7-18.6-7.5-20.1-16.6h-0.1c0,0.1,0,0.2,0.1,0.3
			c1.3,9.2,9.8,16.3,20.1,16.9l1.4,0.1l0.2,0l1.3-0.1C276.2,55,284.6,48,286,38.8c0-0.1,0-0.2,0.1-0.3h-0.1
			C284.4,47.5,276.1,54.4,265.8,55z"/>
		<path id="XMLID_251_" class="st5" d="M265.4,51.3l-1.2,0.1l-0.2,0l-1.3-0.1c-9.2-0.7-16.8-7.5-18.4-16.6h-0.2c0,0.1,0,0.2,0.1,0.3
			c1.2,9.6,9,16.8,18.5,17.5l1.3,0.1l0.2,0l1.2-0.1c9.6-0.7,17.3-8,18.5-17.5c0-0.1,0-0.2,0.1-0.3h-0.2
			C282.1,43.8,274.6,50.6,265.4,51.3z"/>
		<path id="XMLID_250_" class="st6" d="M188,34.5c0.5,0.6,1.2,1,1.9,1.3c0.7,0.3,1.6,0.5,2.5,0.5c0.9,0,1.7-0.2,2.5-0.5
			c0.7-0.3,1.4-0.8,1.9-1.3c0.5-0.6,0.9-1.2,1.2-2c0.3-0.8,0.4-1.6,0.4-2.5c0-0.9-0.1-1.7-0.4-2.5c-0.3-0.8-0.7-1.4-1.2-2
			c-0.5-0.6-1.2-1-1.9-1.3c-0.7-0.3-1.6-0.5-2.5-0.5c-0.9,0-1.7,0.2-2.5,0.5c-0.7,0.3-1.4,0.8-1.9,1.3c-0.5,0.6-0.9,1.2-1.2,2
			c-0.3,0.8-0.4,1.6-0.4,2.5c0,0.9,0.1,1.7,0.4,2.5C187.1,33.3,187.5,34,188,34.5z"/>
		<path id="XMLID_249_" d="M183.6,49.2L183.6,49.2C183.6,49.2,183.6,49.2,183.6,49.2C183.6,49.2,183.6,49.2,183.6,49.2z"/>
		<path id="XMLID_248_" class="st7" d="M312.3,20.5c1.2,0,2.3,0.2,3.3,0.6c-3.7-4.1-8.9-7.1-14.5-7.1h-0.6c-9.2,0-17,7-19,15.8h2.1
			c1.9-7.6,8.8-13.8,16.9-13.8h0.6c4,0,7.8,2,10.9,4.4C312.1,20.5,312.2,20.5,312.3,20.5z"/>
		<path id="XMLID_247_" class="st7" d="M300.6,12.5h0.7c5.2,0,10.1,2.4,13.8,5.8c-3.8-3.8-9.1-6.5-14.6-6.5h-0.7
			c-9.6,0-17.9,7-19.9,15.8h1C283.2,19.2,291.3,12.5,300.6,12.5z"/>
		<path id="XMLID_246_" class="st7" d="M298.9,9.9h0.7c5.2,0,10.1,2.3,13.9,5.6c-3.8-3.5-8.8-5.9-14.2-5.9h-0.7
			c-9.7,0-18.1,7-20.2,15.8h0.4C281,16.7,289.3,9.9,298.9,9.9z"/>
		<path id="XMLID_243_" d="M186.3,35.7L186.3,35.7c0.6,1,1.4,1.8,2.6,2.4c1.1,0.7,2.5,1,4,1c1.2,0,2.3-0.2,3.3-0.7
			c1-0.4,1.9-1.1,2.7-1.9s1.4-1.7,1.8-2.8c0.4-1.1,0.6-2.3,0.6-3.5c0-1.3-0.2-2.5-0.6-3.5c-0.4-1.1-1-2-1.8-2.8
			c-0.8-0.8-1.7-1.4-2.8-1.9c-1.1-0.4-2.3-0.7-3.6-0.7c-4.9,0-8.9,3.8-8.9,7.8c0,3,0,11,0,15.2c0.9,0.4,1.7,0.7,2.8,0.9V35.7z
			 M186.7,27.8c0.3-0.8,0.7-1.4,1.2-2c0.5-0.6,1.2-1,1.9-1.3c0.7-0.3,1.6-0.5,2.5-0.5c0.9,0,1.7,0.2,2.5,0.5
			c0.7,0.3,1.4,0.8,1.9,1.3c0.5,0.6,0.9,1.2,1.2,2c0.3,0.8,0.4,1.6,0.4,2.5c0,0.9-0.1,1.7-0.4,2.5c-0.3,0.8-0.7,1.4-1.2,2
			c-0.5,0.6-1.2,1-1.9,1.3c-0.7,0.3-1.6,0.5-2.5,0.5c-0.9,0-1.7-0.2-2.5-0.5c-0.7-0.3-1.4-0.8-1.9-1.3c-0.5-0.6-0.9-1.2-1.2-2
			c-0.3-0.8-0.4-1.6-0.4-2.5C186.3,29.4,186.4,28.6,186.7,27.8z"/>
		<path id="XMLID_242_" class="st5" d="M189.7,48.8l1.2,0.1l0.2,0l1.1-0.1c9.2-0.7,16.7-7.7,17.9-16.9c0-0.1,0-0.2,0.1-0.3h-2.1
			c0,0,0,0,0,0.1c-1.1,8.6-8.5,15.1-17.1,15.2c-8.7-0.1-15.9-4.6-17-13.1c-0.2-1.7-0.9-4-1.5-5.8v7
			C174.7,42.6,181.5,48.2,189.7,48.8z"/>
		<path id="XMLID_241_" class="st5" d="M212.8,38.4c-1.5,9-9.8,15.9-20.1,16.6l-1.3,0.1l-0.2,0l-1.4-0.1c-7.2-0.5-12.5-4.3-16.2-9.4
			c-0.1-0.1-0.2-0.3-0.2-0.4c-0.1-0.1-0.1-0.2-0.2-0.3V46c0.4,0.3,0.7,0.6,1.1,1.2c0.2,0.2,0.4,0.5,0.5,0.7
			c3.7,4.3,8.5,7.4,14.9,7.8l1.4,0.1l0.2,0l1.3-0.1c10.4-0.7,18.8-7.7,20.1-16.9c0-0.1,0-0.2,0.1-0.3H212.8z"/>
		<path id="XMLID_223_" class="st5" d="M189.6,52.6l1.3,0.1l0.2,0l1.2-0.1c9.6-0.7,17.3-8,18.5-17.5c0-0.1,0-0.2,0.1-0.3h-0.2
			c-1.6,9.1-9.2,15.9-18.4,16.6l-1.2,0.1l-0.2,0l-1.3-0.1c-7.8-0.6-14.3-5.5-17.2-12.5v1.3C175.2,47.1,181.8,52,189.6,52.6z"/>
		<path id="XMLID_222_" class="st6" d="M153.9,24.6h0.6c0.6,0,1.1,0,1.7,0.1v-5.4c-0.7-0.1-1.3-0.1-2-0.1h-0.6c-0.2,0-0.4,0-0.6,0
			v5.4C153.3,24.6,153.6,24.6,153.9,24.6z"/>
		<path id="XMLID_221_" class="st4" d="M171.2,27.5V14.4h-6v6.3C167.6,22.5,169.7,24.9,171.2,27.5z"/>
		<path id="XMLID_220_" class="st8" d="M169.2,38.5h-0.1c0,0.1,0,0.2,0.1,0.3"/>
		<path id="XMLID_219_" class="st5" d="M162.2,12.8h-6v4.5c2.1,0.2,4.1,0.8,6,1.7V12.8z"/>
		<path id="XMLID_218_" class="st7" d="M153,9.5h-6v8.9c1.9-0.7,3.9-1.2,6-1.2V9.5z"/>
		<path id="XMLID_217_" class="st5" d="M143.6,20.2v-5.8h-6v11.7C139.1,23.8,141.2,21.7,143.6,20.2z"/>
		<path id="XMLID_216_" class="st6" d="M147,26.5c-1.2,0.7-2.4,1.5-3.4,2.5v1.5c1.1-1,2.2-1.8,3.4-2.5V26.5z"/>
		<path id="XMLID_215_" class="st6" d="M153,24.7v1.5c0.3,0,0.6-0.1,0.9-0.1h0.6c0.6,0,1.1,0,1.7,0.1v-1.5v-1.2v0
			c-0.6-0.1-1.2-0.1-1.8-0.1h-0.6c-0.3,0-0.5,0-0.8,0v0V24.7z"/>
		<rect id="XMLID_214_" x="162.2" y="24.3" class="st8" width="0" height="1.2"/>
		<rect id="XMLID_213_" x="162.2" y="29.4" class="st8" width="0" height="0.4"/>
		<path id="XMLID_212_" class="st6" d="M147,25.3V25c-1.2,0.6-2.4,1.3-3.4,2.2v0.6v1.2v0c1.1-1,2.2-1.8,3.4-2.5V25.3z"/>
		<path id="XMLID_211_" class="st6" d="M147,23.8v-3.1c-1.2,0.5-2.4,1.2-3.4,2V26C144.6,25.1,145.8,24.4,147,23.8z"/>
		<path id="XMLID_210_" class="st6" d="M154.6,26.1h-0.6c-0.3,0-0.6,0-0.9,0.1V27c0.2,0,0.3,0,0.5,0h0.6c0.7,0,1.5,0.1,2.2,0.2v-1
			C155.7,26.1,155.1,26.1,154.6,26.1z"/>
		<path id="XMLID_209_" class="st6" d="M156.2,34.3v-6.7c-0.7-0.1-1.5-0.2-2.2-0.2h-0.6c-0.2,0-0.3,0-0.5,0v6.9v1.2v2.7
			c0.7-0.1,1.4-0.1,2-0.1h0.6c0.2,0,0.4,0,0.5,0v-2.7V34.3z"/>
		<path id="XMLID_208_" class="st6" d="M162.2,25.6v1.3c1,0.6,2,1.4,2.9,2.2v-1.5C164.2,26.8,163.3,26.1,162.2,25.6z"/>
		<path id="XMLID_207_" class="st6" d="M165.2,23.4c-0.9-0.8-1.9-1.5-2.9-2v3c1,0.6,2,1.3,2.9,2.1V23.4z"/>
		<path id="XMLID_203_" class="st6" d="M165.2,38.5v-6.6c-0.9-0.8-1.9-1.5-2.9-2.1v9.4c1,0.4,2,0.8,2.9,1.3v-1.4V38.5z"/>
		<path id="XMLID_202_" class="st6" d="M165.2,30.6c-0.9-0.9-1.9-1.6-2.9-2.3v1c1,0.6,2,1.3,2.9,2.1V30.6z"/>
		<path id="XMLID_201_" class="st6" d="M147,36.1v-7c-1.2,0.6-2.4,1.4-3.4,2.4V39v0.2v1.9v0.8c1.1-0.8,2.2-1.5,3.4-2v-2.7V36.1z"/>
		<path id="XMLID_199_" class="st6" d="M147,28c-1.2,0.7-2.4,1.5-3.4,2.5V31c1.1-0.9,2.2-1.7,3.4-2.4V28z"/>
		<path id="XMLID_198_" class="st4" d="M165.2,33.2v6.6v0.7v1.4v1.3h6v-1.3C170,38.5,167.8,35.5,165.2,33.2z"/>
		<path id="XMLID_197_" class="st4" d="M171.2,40.2v-2c-1.4-3.6-3.5-6.7-6-9v1.4v0.9C167.8,33.8,170,36.8,171.2,40.2z"/>
		<path id="XMLID_196_" class="st4" d="M165.2,27.6v1.5c2.5,2.3,4.6,5.4,6,9v-1.4C170,33.1,167.9,30,165.2,27.6z"/>
		<path id="XMLID_195_" class="st4" d="M171.2,35.5V33h0c-0.9-3.8-3.1-7.1-6-9.6v0v3C167.9,28.8,170,31.9,171.2,35.5z"/>
		<path id="XMLID_194_" class="st5" d="M156.2,35.6v1.1v2.7v8.3h6v-9.8v-1.1v-5.6c-1.9-1.1-3.9-1.9-6-2.2V35.6z"/>
		<path id="XMLID_193_" class="st5" d="M162.2,21.3c-1.8-1-3.9-1.7-6-2v3c2.1,0.3,4.2,1,6,2V21.3z"/>
		<path id="XMLID_192_" class="st5" d="M156.2,23.5v1.2v1.5v1c2.1,0.3,4.1,1.1,6,2.2v-2.5v-1.2v-0.2
			C160.4,24.5,158.4,23.8,156.2,23.5L156.2,23.5z"/>
		<path id="XMLID_191_" class="st7" d="M153,22.2v-3c-2.1,0.1-4.1,0.6-6,1.4v3.1C148.9,22.9,150.9,22.3,153,22.2z"/>
		<path id="XMLID_190_" class="st7" d="M147,26.5V28v0.7c1.9-1,3.9-1.5,6-1.6v-0.9v-1.5v-1.2v0c-2.1,0.1-4.1,0.7-6,1.6v0.3V26.5z"/>
		<path id="XMLID_189_" class="st7" d="M153,35.6v-6.9c-2.1,0.1-4.1,0.6-6,1.6v7v1.2v2.7v10.4h6V39.5v-2.7V35.6z"/>
		<path id="XMLID_188_" class="st5" d="M143.6,26v-3.3c-2.6,2-4.7,4.7-6,7.8v3.6C138.9,30.9,141,28,143.6,26z"/>
		<path id="XMLID_187_" class="st5" d="M143.6,31v-0.6v-1.5v0v-1.2v-0.6c-2.6,2.1-4.7,4.9-6,8.1v1.2v1.2v2.9
			C138.7,36.8,140.8,33.4,143.6,31z"/>
		<path id="XMLID_186_" class="st5" d="M143.6,40.2v-7.5c-2.7,2.4-4.8,5.7-6,9.5v0.1h6v-1.9V40.2z"/>
		<g id="XMLID_27_">
			<path id="XMLID_28_" class="st3" d="M139.1,60.3h1.4V61h0c0.1-0.1,0.1-0.2,0.2-0.3c0.1-0.1,0.2-0.2,0.3-0.2
				c0.1-0.1,0.3-0.1,0.4-0.2c0.2,0,0.3-0.1,0.5-0.1c0.4,0,0.7,0.1,1,0.2s0.5,0.3,0.8,0.5c0.2,0.2,0.4,0.5,0.5,0.8
				c0.1,0.3,0.2,0.6,0.2,1c0,0.3-0.1,0.7-0.2,1c-0.1,0.3-0.3,0.6-0.4,0.8c-0.2,0.2-0.4,0.4-0.7,0.6c-0.3,0.1-0.6,0.2-0.9,0.2
				c-0.3,0-0.6,0-0.9-0.1c-0.3-0.1-0.5-0.3-0.7-0.5h0v2.8h-1.5V60.3z M140.5,62.8c0,0.4,0.1,0.7,0.3,0.9c0.2,0.2,0.5,0.3,0.9,0.3
				c0.4,0,0.7-0.1,0.9-0.3c0.2-0.2,0.3-0.5,0.3-0.9c0-0.4-0.1-0.7-0.3-0.9c-0.2-0.2-0.5-0.3-0.9-0.3c-0.4,0-0.7,0.1-0.9,0.3
				C140.6,62.1,140.5,62.4,140.5,62.8z"/>
			<path id="XMLID_31_" class="st3" d="M145.6,57.6h0.6v3.8h0c0.1-0.3,0.3-0.5,0.6-0.7c0.3-0.2,0.6-0.3,1-0.3c0.4,0,0.7,0.1,0.9,0.2
				c0.2,0.1,0.4,0.3,0.5,0.4c0.1,0.2,0.2,0.4,0.3,0.6c0.1,0.2,0.1,0.5,0.1,0.7v2.8H149v-2.7c0-0.2,0-0.4-0.1-0.5
				c0-0.2-0.1-0.3-0.2-0.5c-0.1-0.1-0.2-0.3-0.4-0.3c-0.2-0.1-0.3-0.1-0.6-0.1c-0.2,0-0.4,0-0.6,0.1c-0.2,0.1-0.4,0.2-0.5,0.4
				c-0.1,0.2-0.3,0.4-0.3,0.6s-0.1,0.5-0.1,0.8v2.3h-0.6V57.6z"/>
			<path id="XMLID_33_" class="st3" d="M150.9,62.9c0-0.4,0.1-0.7,0.2-1c0.1-0.3,0.3-0.6,0.5-0.8c0.2-0.2,0.5-0.4,0.8-0.5
				c0.3-0.1,0.6-0.2,1-0.2s0.7,0.1,1,0.2c0.3,0.1,0.6,0.3,0.8,0.5c0.2,0.2,0.4,0.5,0.5,0.8c0.1,0.3,0.2,0.6,0.2,1
				c0,0.4-0.1,0.7-0.2,1c-0.1,0.3-0.3,0.6-0.5,0.8c-0.2,0.2-0.5,0.4-0.8,0.5c-0.3,0.1-0.6,0.2-1,0.2s-0.7-0.1-1-0.2
				c-0.3-0.1-0.6-0.3-0.8-0.5c-0.2-0.2-0.4-0.5-0.5-0.8C151,63.6,150.9,63.2,150.9,62.9z M151.5,62.9c0,0.3,0,0.5,0.1,0.7
				c0.1,0.2,0.2,0.4,0.4,0.6c0.2,0.2,0.4,0.3,0.6,0.4c0.2,0.1,0.5,0.2,0.8,0.2c0.3,0,0.5-0.1,0.8-0.2c0.2-0.1,0.4-0.2,0.6-0.4
				c0.2-0.2,0.3-0.4,0.4-0.6c0.1-0.2,0.1-0.5,0.1-0.7c0-0.3,0-0.5-0.1-0.7c-0.1-0.2-0.2-0.4-0.4-0.6c-0.2-0.2-0.4-0.3-0.6-0.4
				c-0.2-0.1-0.5-0.2-0.8-0.2c-0.3,0-0.5,0.1-0.8,0.2c-0.2,0.1-0.4,0.2-0.6,0.4c-0.2,0.2-0.3,0.4-0.4,0.6S151.5,62.6,151.5,62.9z"/>
			<path id="XMLID_36_" class="st3" d="M157.1,61.9c0-0.1,0-0.2,0-0.3c0-0.1,0-0.2,0-0.4c0-0.1,0-0.2,0-0.4c0-0.1,0-0.2,0-0.3h0.6
				c0,0.2,0,0.3,0,0.5c0,0.2,0,0.3,0,0.3h0c0.1-0.3,0.3-0.5,0.6-0.7c0.3-0.2,0.6-0.3,1-0.3c0.4,0,0.7,0.1,0.9,0.2
				c0.2,0.1,0.4,0.3,0.5,0.4c0.1,0.2,0.2,0.4,0.3,0.6c0.1,0.2,0.1,0.5,0.1,0.7v2.8h-0.6v-2.7c0-0.2,0-0.4-0.1-0.5
				c0-0.2-0.1-0.3-0.2-0.5c-0.1-0.1-0.2-0.3-0.4-0.3c-0.2-0.1-0.3-0.1-0.6-0.1c-0.2,0-0.4,0-0.6,0.1c-0.2,0.1-0.4,0.2-0.5,0.4
				c-0.1,0.2-0.3,0.4-0.3,0.6c-0.1,0.2-0.1,0.5-0.1,0.8v2.3h-0.6V61.9z"/>
			<path id="XMLID_38_" class="st3" d="M162.5,62.9c0-0.4,0.1-0.7,0.2-1c0.1-0.3,0.3-0.6,0.5-0.8c0.2-0.2,0.5-0.4,0.8-0.5
				c0.3-0.1,0.6-0.2,1-0.2s0.7,0.1,1,0.2c0.3,0.1,0.6,0.3,0.8,0.5c0.2,0.2,0.4,0.5,0.5,0.8c0.1,0.3,0.2,0.6,0.2,1
				c0,0.4-0.1,0.7-0.2,1c-0.1,0.3-0.3,0.6-0.5,0.8c-0.2,0.2-0.5,0.4-0.8,0.5c-0.3,0.1-0.6,0.2-1,0.2s-0.7-0.1-1-0.2
				c-0.3-0.1-0.6-0.3-0.8-0.5c-0.2-0.2-0.4-0.5-0.5-0.8C162.5,63.6,162.5,63.2,162.5,62.9z M163.1,62.9c0,0.3,0,0.5,0.1,0.7
				c0.1,0.2,0.2,0.4,0.4,0.6c0.2,0.2,0.4,0.3,0.6,0.4c0.2,0.1,0.5,0.2,0.8,0.2c0.3,0,0.5-0.1,0.8-0.2c0.2-0.1,0.4-0.2,0.6-0.4
				c0.2-0.2,0.3-0.4,0.4-0.6c0.1-0.2,0.1-0.5,0.1-0.7c0-0.3,0-0.5-0.1-0.7c-0.1-0.2-0.2-0.4-0.4-0.6c-0.2-0.2-0.4-0.3-0.6-0.4
				c-0.2-0.1-0.5-0.2-0.8-0.2c-0.3,0-0.5,0.1-0.8,0.2c-0.2,0.1-0.4,0.2-0.6,0.4c-0.2,0.2-0.3,0.4-0.4,0.6S163.1,62.6,163.1,62.9z"/>
			<path id="XMLID_41_" class="st3" d="M168.7,61.9c0-0.1,0-0.2,0-0.3c0-0.1,0-0.2,0-0.4c0-0.1,0-0.2,0-0.4c0-0.1,0-0.2,0-0.3h0.6
				c0,0.2,0,0.3,0,0.5c0,0.2,0,0.3,0,0.3h0c0.1-0.3,0.3-0.5,0.6-0.7c0.3-0.2,0.6-0.3,1-0.3c0.4,0,0.7,0.1,0.9,0.2
				c0.2,0.1,0.4,0.3,0.5,0.4c0.1,0.2,0.2,0.4,0.3,0.6c0.1,0.2,0.1,0.5,0.1,0.7v2.8h-0.6v-2.7c0-0.2,0-0.4-0.1-0.5
				c0-0.2-0.1-0.3-0.2-0.5c-0.1-0.1-0.2-0.3-0.4-0.3c-0.2-0.1-0.3-0.1-0.6-0.1c-0.2,0-0.4,0-0.6,0.1c-0.2,0.1-0.4,0.2-0.5,0.4
				c-0.1,0.2-0.3,0.4-0.3,0.6s-0.1,0.5-0.1,0.8v2.3h-0.6V61.9z"/>
			<path id="XMLID_43_" class="st3" d="M176.4,62.8c0-0.4,0.1-0.7,0.2-1.1c0.1-0.3,0.3-0.6,0.6-0.8c0.2-0.2,0.5-0.4,0.9-0.5
				c0.3-0.1,0.7-0.2,1.1-0.2c0.4,0,0.7,0.1,1.1,0.2c0.3,0.1,0.6,0.3,0.9,0.5c0.2,0.2,0.4,0.5,0.6,0.8c0.1,0.3,0.2,0.7,0.2,1.1
				c0,0.4-0.1,0.7-0.2,1.1c-0.1,0.3-0.3,0.6-0.6,0.8c-0.2,0.2-0.5,0.4-0.9,0.5c-0.3,0.1-0.7,0.2-1.1,0.2c-0.4,0-0.7-0.1-1.1-0.2
				c-0.3-0.1-0.6-0.3-0.9-0.5c-0.2-0.2-0.4-0.5-0.6-0.8C176.5,63.5,176.4,63.1,176.4,62.8z M177.9,62.8c0,0.4,0.1,0.7,0.3,0.9
				c0.2,0.2,0.5,0.3,0.9,0.3c0.4,0,0.7-0.1,0.9-0.3c0.2-0.2,0.3-0.5,0.3-0.9c0-0.4-0.1-0.7-0.3-0.9c-0.2-0.2-0.5-0.3-0.9-0.3
				c-0.4,0-0.7,0.1-0.9,0.3C178,62.1,177.9,62.4,177.9,62.8z"/>
			<path id="XMLID_46_" class="st3" d="M182.9,60.6h0.6v0.8h0c0.1-0.2,0.2-0.3,0.4-0.4c0.1-0.1,0.3-0.2,0.5-0.3
				c0.2-0.1,0.3-0.1,0.5-0.2c0.2,0,0.4-0.1,0.5-0.1c0.4,0,0.7,0.1,1,0.2c0.3,0.1,0.6,0.3,0.8,0.5c0.2,0.2,0.4,0.5,0.5,0.8
				c0.1,0.3,0.2,0.6,0.2,1c0,0.4-0.1,0.7-0.2,1c-0.1,0.3-0.3,0.6-0.5,0.8c-0.2,0.2-0.5,0.4-0.8,0.5c-0.3,0.1-0.6,0.2-1,0.2
				c-0.2,0-0.4,0-0.5-0.1c-0.2,0-0.4-0.1-0.5-0.2c-0.2-0.1-0.3-0.2-0.5-0.3c-0.1-0.1-0.3-0.3-0.4-0.4h0v3.1h-0.6V60.6z M183.4,62.9
				c0,0.3,0.1,0.5,0.2,0.7c0.1,0.2,0.2,0.4,0.4,0.6c0.2,0.2,0.4,0.3,0.6,0.4c0.2,0.1,0.5,0.2,0.8,0.2c0.3,0,0.5-0.1,0.8-0.2
				c0.2-0.1,0.4-0.2,0.6-0.4c0.2-0.2,0.3-0.4,0.4-0.6c0.1-0.2,0.1-0.5,0.1-0.7c0-0.3,0-0.5-0.1-0.7c-0.1-0.2-0.2-0.4-0.4-0.6
				c-0.2-0.2-0.4-0.3-0.6-0.4c-0.2-0.1-0.5-0.2-0.8-0.2c-0.3,0-0.5,0.1-0.8,0.2c-0.2,0.1-0.4,0.2-0.6,0.4c-0.2,0.2-0.3,0.4-0.4,0.6
				C183.5,62.4,183.4,62.6,183.4,62.9z"/>
			<path id="XMLID_49_" class="st3" d="M191.4,61.1h-1.3v3c0,0.2,0.1,0.4,0.2,0.5c0.1,0.1,0.3,0.2,0.5,0.2c0.1,0,0.2,0,0.3,0
				c0.1,0,0.2-0.1,0.3-0.1l0.1,0.5c-0.1,0-0.2,0.1-0.4,0.1c-0.1,0-0.3,0-0.4,0c-0.2,0-0.4,0-0.6-0.1c-0.2-0.1-0.3-0.1-0.4-0.3
				c-0.1-0.1-0.2-0.2-0.2-0.4c0-0.1-0.1-0.3-0.1-0.5v-3h-1v-0.5h1v-1.3h0.6v1.3h1.3V61.1z"/>
			<path id="XMLID_51_" class="st3" d="M192.5,58.7c0-0.1,0-0.2,0.1-0.3c0.1-0.1,0.2-0.1,0.3-0.1c0.1,0,0.2,0,0.3,0.1
				c0.1,0.1,0.1,0.2,0.1,0.3c0,0.1,0,0.2-0.1,0.3c-0.1,0.1-0.2,0.1-0.3,0.1c-0.1,0-0.2,0-0.3-0.1C192.5,58.9,192.5,58.8,192.5,58.7z
				 M192.6,60.6h0.6v4.6h-0.6V60.6z"/>
			<path id="XMLID_54_" class="st3" d="M194.9,61.9c0-0.1,0-0.2,0-0.3c0-0.1,0-0.2,0-0.4c0-0.1,0-0.2,0-0.4c0-0.1,0-0.2,0-0.3h0.6
				c0,0.2,0,0.3,0,0.5c0,0.2,0,0.3,0,0.3h0c0.1-0.3,0.3-0.5,0.6-0.7c0.3-0.2,0.6-0.3,1-0.3c0.3,0,0.6,0.1,0.8,0.2
				c0.3,0.2,0.4,0.4,0.6,0.8c0.1-0.3,0.4-0.6,0.7-0.8c0.3-0.2,0.6-0.2,0.9-0.2c0.4,0,0.7,0.1,0.9,0.2c0.2,0.1,0.4,0.3,0.5,0.4
				c0.1,0.2,0.2,0.4,0.3,0.6c0.1,0.2,0.1,0.5,0.1,0.7v2.8h-0.6v-2.7c0-0.2,0-0.4-0.1-0.5c0-0.2-0.1-0.3-0.2-0.5
				c-0.1-0.1-0.2-0.3-0.4-0.3c-0.2-0.1-0.3-0.1-0.6-0.1c-0.3,0-0.5,0.1-0.7,0.2c-0.2,0.1-0.3,0.2-0.4,0.4c-0.1,0.2-0.2,0.3-0.2,0.5
				c0,0.2-0.1,0.4-0.1,0.5v2.6h-0.6v-2.8c0-0.4-0.1-0.8-0.2-1c-0.2-0.3-0.4-0.4-0.7-0.4c-0.2,0-0.4,0-0.6,0.1
				c-0.2,0.1-0.4,0.2-0.5,0.4c-0.1,0.2-0.3,0.4-0.3,0.6s-0.1,0.5-0.1,0.8v2.3h-0.6V61.9z"/>
			<path id="XMLID_56_" class="st3" d="M203.4,58.7c0-0.1,0-0.2,0.1-0.3c0.1-0.1,0.2-0.1,0.3-0.1c0.1,0,0.2,0,0.3,0.1
				c0.1,0.1,0.1,0.2,0.1,0.3c0,0.1,0,0.2-0.1,0.3c-0.1,0.1-0.2,0.1-0.3,0.1c-0.1,0-0.2,0-0.3-0.1C203.5,58.9,203.4,58.8,203.4,58.7z
				 M203.6,60.6h0.6v4.6h-0.6V60.6z"/>
			<path id="XMLID_59_" class="st3" d="M205.4,64.8l2.8-3.7h-2.6v-0.5h3.5v0.4l-2.8,3.7h2.9v0.5h-3.7V64.8z"/>
			<path id="XMLID_61_" class="st3" d="M214.3,64.3c-0.2,0.4-0.5,0.6-0.9,0.8c-0.3,0.2-0.7,0.2-1.1,0.2c-0.4,0-0.7-0.1-1-0.2
				c-0.3-0.1-0.5-0.3-0.7-0.5c-0.2-0.2-0.4-0.5-0.5-0.8c-0.1-0.3-0.2-0.6-0.2-1c0-0.3,0.1-0.7,0.2-1s0.3-0.6,0.5-0.8
				c0.2-0.2,0.5-0.4,0.7-0.5c0.3-0.1,0.6-0.2,0.9-0.2c0.4,0,0.7,0.1,0.9,0.2c0.3,0.1,0.5,0.3,0.7,0.5c0.2,0.2,0.3,0.4,0.4,0.7
				c0.1,0.3,0.1,0.5,0.1,0.8V63h-3.9c0,0.1,0,0.3,0.1,0.5c0.1,0.2,0.1,0.4,0.3,0.6c0.1,0.2,0.3,0.3,0.5,0.5c0.2,0.1,0.5,0.2,0.9,0.2
				c0.3,0,0.6-0.1,0.9-0.2c0.3-0.1,0.5-0.3,0.7-0.6L214.3,64.3z M213.8,62.5c0-0.2,0-0.4-0.1-0.6c-0.1-0.2-0.2-0.3-0.3-0.5
				c-0.1-0.1-0.3-0.2-0.5-0.3c-0.2-0.1-0.4-0.1-0.6-0.1c-0.3,0-0.6,0.1-0.8,0.2s-0.4,0.3-0.5,0.5c-0.1,0.2-0.2,0.3-0.3,0.5
				c-0.1,0.2-0.1,0.3-0.1,0.3H213.8z"/>
			<path id="XMLID_64_" class="st3" d="M219.8,64.4L219.8,64.4c-0.1,0.2-0.2,0.3-0.4,0.4c-0.1,0.1-0.3,0.2-0.5,0.3
				c-0.2,0.1-0.3,0.1-0.5,0.2c-0.2,0-0.4,0.1-0.5,0.1c-0.4,0-0.7-0.1-1-0.2c-0.3-0.1-0.6-0.3-0.8-0.5c-0.2-0.2-0.4-0.5-0.5-0.8
				c-0.1-0.3-0.2-0.6-0.2-1c0-0.4,0.1-0.7,0.2-1c0.1-0.3,0.3-0.6,0.5-0.8c0.2-0.2,0.5-0.4,0.8-0.5c0.3-0.1,0.6-0.2,1-0.2
				c0.2,0,0.4,0,0.5,0.1c0.2,0,0.4,0.1,0.5,0.2c0.2,0.1,0.3,0.2,0.5,0.3c0.1,0.1,0.3,0.3,0.4,0.4h0v-3.8h0.6v7.6h-0.6V64.4z
				 M219.9,62.9c0-0.3-0.1-0.5-0.2-0.7c-0.1-0.2-0.2-0.4-0.4-0.6c-0.2-0.2-0.4-0.3-0.6-0.4c-0.2-0.1-0.5-0.2-0.8-0.2
				c-0.3,0-0.5,0.1-0.8,0.2c-0.2,0.1-0.4,0.2-0.6,0.4c-0.2,0.2-0.3,0.4-0.4,0.6s-0.1,0.5-0.1,0.7c0,0.3,0,0.5,0.1,0.7
				c0.1,0.2,0.2,0.4,0.4,0.6c0.2,0.2,0.4,0.3,0.6,0.4c0.2,0.1,0.5,0.2,0.8,0.2c0.3,0,0.5-0.1,0.8-0.2c0.2-0.1,0.4-0.2,0.6-0.4
				c0.2-0.2,0.3-0.4,0.4-0.6C219.8,63.4,219.9,63.1,219.9,62.9z"/>
			<path id="XMLID_1_" class="st3" d="M228.9,64.4c-0.2,0.3-0.5,0.5-0.9,0.7c-0.4,0.2-0.8,0.3-1.1,0.3c-0.4,0-0.7-0.1-1.1-0.2
				c-0.3-0.1-0.6-0.3-0.9-0.5c-0.2-0.2-0.4-0.5-0.6-0.8c-0.1-0.3-0.2-0.7-0.2-1.1c0-0.4,0.1-0.7,0.2-1.1c0.1-0.3,0.3-0.6,0.6-0.8
				c0.2-0.2,0.5-0.4,0.9-0.5c0.3-0.1,0.7-0.2,1.1-0.2c0.3,0,0.7,0.1,0.9,0.2c0.3,0.1,0.5,0.3,0.7,0.5c0.2,0.2,0.4,0.5,0.5,0.8
				c0.1,0.3,0.2,0.7,0.2,1.1v0.5h-3.5c0.1,0.3,0.2,0.5,0.4,0.7c0.2,0.2,0.4,0.3,0.7,0.3c0.2,0,0.5-0.1,0.6-0.2
				c0.2-0.1,0.3-0.3,0.4-0.4L228.9,64.4z M227.6,62.2c0-0.3-0.1-0.5-0.3-0.7c-0.2-0.2-0.4-0.3-0.7-0.3c-0.2,0-0.3,0-0.4,0.1
				c-0.1,0.1-0.2,0.1-0.3,0.2c-0.1,0.1-0.2,0.2-0.2,0.3c-0.1,0.1-0.1,0.2-0.1,0.3H227.6z"/>
			<path id="XMLID_70_" class="st3" d="M230.3,61.9c0-0.1,0-0.2,0-0.3c0-0.1,0-0.2,0-0.4c0-0.1,0-0.2,0-0.4c0-0.1,0-0.2,0-0.3h0.6
				c0,0.2,0,0.3,0,0.5c0,0.2,0,0.3,0,0.3h0c0.1-0.3,0.3-0.5,0.6-0.7c0.3-0.2,0.6-0.3,1-0.3c0.4,0,0.7,0.1,0.9,0.2
				c0.2,0.1,0.4,0.3,0.5,0.4c0.1,0.2,0.2,0.4,0.3,0.6c0.1,0.2,0.1,0.5,0.1,0.7v2.8h-0.6v-2.7c0-0.2,0-0.4-0.1-0.5
				c0-0.2-0.1-0.3-0.2-0.5c-0.1-0.1-0.2-0.3-0.4-0.3c-0.2-0.1-0.3-0.1-0.6-0.1c-0.2,0-0.4,0-0.6,0.1s-0.4,0.2-0.5,0.4
				c-0.1,0.2-0.3,0.4-0.3,0.6s-0.1,0.5-0.1,0.8v2.3h-0.6V61.9z"/>
			<path id="XMLID_72_" class="st3" d="M240.5,64.9c0,0.6-0.1,1-0.3,1.4c-0.2,0.4-0.4,0.6-0.6,0.8c-0.3,0.2-0.5,0.3-0.8,0.4
				c-0.3,0.1-0.5,0.1-0.8,0.1c-0.2,0-0.5,0-0.7-0.1c-0.2,0-0.4-0.1-0.6-0.2c-0.2-0.1-0.4-0.2-0.5-0.3c-0.2-0.1-0.3-0.3-0.4-0.4
				l0.5-0.4c0.2,0.3,0.5,0.5,0.8,0.7c0.3,0.1,0.7,0.2,1,0.2c0.3,0,0.6,0,0.8-0.1c0.2-0.1,0.4-0.2,0.5-0.3c0.1-0.1,0.2-0.3,0.3-0.4
				c0.1-0.2,0.1-0.3,0.2-0.5c0-0.2,0.1-0.3,0.1-0.4c0-0.1,0-0.3,0-0.3v-0.6h0c-0.2,0.3-0.4,0.5-0.7,0.7c-0.3,0.2-0.6,0.2-1,0.2
				c-0.3,0-0.7-0.1-1-0.2c-0.3-0.1-0.6-0.3-0.8-0.5c-0.2-0.2-0.4-0.5-0.5-0.8c-0.1-0.3-0.2-0.6-0.2-0.9c0-0.3,0.1-0.6,0.2-0.9
				c0.1-0.3,0.3-0.5,0.5-0.8c0.2-0.2,0.5-0.4,0.8-0.5c0.3-0.1,0.6-0.2,1-0.2c0.4,0,0.8,0.1,1,0.2c0.3,0.2,0.5,0.4,0.7,0.7h0v-0.8
				h0.6V64.9z M239.9,62.8c0-0.3,0-0.5-0.1-0.7c-0.1-0.2-0.2-0.4-0.4-0.6c-0.2-0.2-0.4-0.3-0.6-0.4c-0.2-0.1-0.5-0.1-0.7-0.1
				s-0.5,0-0.7,0.1c-0.2,0.1-0.4,0.2-0.6,0.4c-0.2,0.2-0.3,0.4-0.4,0.6c-0.1,0.2-0.1,0.5-0.1,0.7c0,0.3,0,0.5,0.1,0.7
				c0.1,0.2,0.2,0.4,0.4,0.6c0.2,0.2,0.4,0.3,0.6,0.4c0.2,0.1,0.5,0.1,0.7,0.1s0.5,0,0.7-0.1c0.2-0.1,0.4-0.2,0.6-0.4
				c0.2-0.2,0.3-0.4,0.4-0.6C239.9,63.3,239.9,63.1,239.9,62.8z"/>
			<path id="XMLID_75_" class="st3" d="M242,58.7c0-0.1,0-0.2,0.1-0.3c0.1-0.1,0.2-0.1,0.3-0.1s0.2,0,0.3,0.1
				c0.1,0.1,0.1,0.2,0.1,0.3c0,0.1,0,0.2-0.1,0.3c-0.1,0.1-0.2,0.1-0.3,0.1s-0.2,0-0.3-0.1C242,58.9,242,58.8,242,58.7z M242.1,60.6
				h0.6v4.6h-0.6V60.6z"/>
			<path id="XMLID_78_" class="st3" d="M244.4,61.9c0-0.1,0-0.2,0-0.3c0-0.1,0-0.2,0-0.4c0-0.1,0-0.2,0-0.4c0-0.1,0-0.2,0-0.3h0.6
				c0,0.2,0,0.3,0,0.5c0,0.2,0,0.3,0,0.3h0c0.1-0.3,0.3-0.5,0.6-0.7c0.3-0.2,0.6-0.3,1-0.3c0.4,0,0.7,0.1,0.9,0.2
				c0.2,0.1,0.4,0.3,0.5,0.4c0.1,0.2,0.2,0.4,0.3,0.6c0.1,0.2,0.1,0.5,0.1,0.7v2.8h-0.6v-2.7c0-0.2,0-0.4-0.1-0.5
				c0-0.2-0.1-0.3-0.2-0.5c-0.1-0.1-0.2-0.3-0.4-0.3c-0.2-0.1-0.3-0.1-0.6-0.1c-0.2,0-0.4,0-0.6,0.1c-0.2,0.1-0.4,0.2-0.5,0.4
				c-0.1,0.2-0.3,0.4-0.3,0.6s-0.1,0.5-0.1,0.8v2.3h-0.6V61.9z"/>
			<path id="XMLID_80_" class="st3" d="M254.1,64.3c-0.2,0.4-0.5,0.6-0.9,0.8c-0.3,0.2-0.7,0.2-1.1,0.2c-0.4,0-0.7-0.1-1-0.2
				c-0.3-0.1-0.5-0.3-0.7-0.5s-0.4-0.5-0.5-0.8c-0.1-0.3-0.2-0.6-0.2-1c0-0.3,0.1-0.7,0.2-1c0.1-0.3,0.3-0.6,0.5-0.8
				s0.5-0.4,0.7-0.5c0.3-0.1,0.6-0.2,0.9-0.2c0.4,0,0.7,0.1,0.9,0.2c0.3,0.1,0.5,0.3,0.7,0.5c0.2,0.2,0.3,0.4,0.4,0.7
				c0.1,0.3,0.1,0.5,0.1,0.8V63h-3.9c0,0.1,0,0.3,0.1,0.5c0.1,0.2,0.1,0.4,0.3,0.6c0.1,0.2,0.3,0.3,0.5,0.5c0.2,0.1,0.5,0.2,0.9,0.2
				c0.3,0,0.6-0.1,0.9-0.2c0.3-0.1,0.5-0.3,0.7-0.6L254.1,64.3z M253.6,62.5c0-0.2,0-0.4-0.1-0.6c-0.1-0.2-0.2-0.3-0.3-0.5
				c-0.1-0.1-0.3-0.2-0.5-0.3c-0.2-0.1-0.4-0.1-0.6-0.1c-0.3,0-0.6,0.1-0.8,0.2c-0.2,0.1-0.4,0.3-0.5,0.5c-0.1,0.2-0.2,0.3-0.3,0.5
				c-0.1,0.2-0.1,0.3-0.1,0.3H253.6z"/>
			<path id="XMLID_83_" class="st3" d="M259.7,64.3c-0.2,0.4-0.5,0.6-0.9,0.8c-0.3,0.2-0.7,0.2-1.1,0.2c-0.4,0-0.7-0.1-1-0.2
				c-0.3-0.1-0.5-0.3-0.7-0.5s-0.4-0.5-0.5-0.8c-0.1-0.3-0.2-0.6-0.2-1c0-0.3,0.1-0.7,0.2-1c0.1-0.3,0.3-0.6,0.5-0.8
				c0.2-0.2,0.5-0.4,0.7-0.5c0.3-0.1,0.6-0.2,0.9-0.2c0.4,0,0.7,0.1,0.9,0.2c0.3,0.1,0.5,0.3,0.7,0.5c0.2,0.2,0.3,0.4,0.4,0.7
				c0.1,0.3,0.1,0.5,0.1,0.8V63h-3.9c0,0.1,0,0.3,0.1,0.5c0.1,0.2,0.1,0.4,0.3,0.6c0.1,0.2,0.3,0.3,0.5,0.5c0.2,0.1,0.5,0.2,0.9,0.2
				c0.3,0,0.6-0.1,0.9-0.2c0.3-0.1,0.5-0.3,0.7-0.6L259.7,64.3z M259.2,62.5c0-0.2,0-0.4-0.1-0.6c-0.1-0.2-0.2-0.3-0.3-0.5
				c-0.1-0.1-0.3-0.2-0.5-0.3c-0.2-0.1-0.4-0.1-0.6-0.1c-0.3,0-0.6,0.1-0.8,0.2s-0.4,0.3-0.5,0.5c-0.1,0.2-0.2,0.3-0.3,0.5
				c-0.1,0.2-0.1,0.3-0.1,0.3H259.2z"/>
			<path id="XMLID_86_" class="st3" d="M261.2,61.9c0-0.1,0-0.2,0-0.3c0-0.1,0-0.2,0-0.4c0-0.1,0-0.2,0-0.4c0-0.1,0-0.2,0-0.3h0.6
				c0,0.2,0,0.3,0,0.5c0,0.2,0,0.3,0,0.3c0.2-0.3,0.4-0.5,0.6-0.7c0.2-0.2,0.5-0.3,0.9-0.3c0.1,0,0.1,0,0.2,0c0.1,0,0.1,0,0.2,0
				l-0.1,0.6c-0.1,0-0.2,0-0.2,0c-0.3,0-0.5,0-0.7,0.1c-0.2,0.1-0.3,0.2-0.5,0.3c-0.1,0.1-0.2,0.3-0.3,0.5c-0.1,0.2-0.1,0.4-0.1,0.6
				v2.5h-0.6V61.9z"/>
			<path id="XMLID_88_" class="st3" d="M268.4,64.3c-0.2,0.4-0.5,0.6-0.9,0.8s-0.7,0.2-1.1,0.2c-0.4,0-0.7-0.1-1-0.2
				c-0.3-0.1-0.5-0.3-0.7-0.5s-0.4-0.5-0.5-0.8c-0.1-0.3-0.2-0.6-0.2-1c0-0.3,0.1-0.7,0.2-1c0.1-0.3,0.3-0.6,0.5-0.8
				c0.2-0.2,0.5-0.4,0.7-0.5c0.3-0.1,0.6-0.2,0.9-0.2c0.4,0,0.7,0.1,0.9,0.2c0.3,0.1,0.5,0.3,0.7,0.5c0.2,0.2,0.3,0.4,0.4,0.7
				c0.1,0.3,0.1,0.5,0.1,0.8V63h-3.9c0,0.1,0,0.3,0.1,0.5c0.1,0.2,0.1,0.4,0.3,0.6c0.1,0.2,0.3,0.3,0.5,0.5c0.2,0.1,0.5,0.2,0.9,0.2
				c0.3,0,0.6-0.1,0.9-0.2c0.3-0.1,0.5-0.3,0.7-0.6L268.4,64.3z M268,62.5c0-0.2,0-0.4-0.1-0.6c-0.1-0.2-0.2-0.3-0.3-0.5
				c-0.1-0.1-0.3-0.2-0.5-0.3s-0.4-0.1-0.6-0.1c-0.3,0-0.6,0.1-0.8,0.2s-0.4,0.3-0.5,0.5c-0.1,0.2-0.2,0.3-0.3,0.5
				c-0.1,0.2-0.1,0.3-0.1,0.3H268z"/>
			<path id="XMLID_91_" class="st3" d="M274,64.4L274,64.4c-0.1,0.2-0.2,0.3-0.4,0.4c-0.1,0.1-0.3,0.2-0.5,0.3
				c-0.2,0.1-0.3,0.1-0.5,0.2c-0.2,0-0.4,0.1-0.5,0.1c-0.4,0-0.7-0.1-1-0.2c-0.3-0.1-0.6-0.3-0.8-0.5s-0.4-0.5-0.5-0.8
				c-0.1-0.3-0.2-0.6-0.2-1c0-0.4,0.1-0.7,0.2-1c0.1-0.3,0.3-0.6,0.5-0.8s0.5-0.4,0.8-0.5c0.3-0.1,0.6-0.2,1-0.2
				c0.2,0,0.4,0,0.5,0.1c0.2,0,0.4,0.1,0.5,0.2c0.2,0.1,0.3,0.2,0.5,0.3c0.1,0.1,0.3,0.3,0.4,0.4h0v-3.8h0.6v7.6H274V64.4z
				 M274,62.9c0-0.3-0.1-0.5-0.2-0.7c-0.1-0.2-0.2-0.4-0.4-0.6c-0.2-0.2-0.4-0.3-0.6-0.4c-0.2-0.1-0.5-0.2-0.8-0.2
				c-0.3,0-0.5,0.1-0.8,0.2c-0.2,0.1-0.4,0.2-0.6,0.4c-0.2,0.2-0.3,0.4-0.4,0.6c-0.1,0.2-0.1,0.5-0.1,0.7c0,0.3,0,0.5,0.1,0.7
				c0.1,0.2,0.2,0.4,0.4,0.6c0.2,0.2,0.4,0.3,0.6,0.4c0.2,0.1,0.5,0.2,0.8,0.2c0.3,0,0.5-0.1,0.8-0.2c0.2-0.1,0.4-0.2,0.6-0.4
				c0.2-0.2,0.3-0.4,0.4-0.6C274,63.4,274,63.1,274,62.9z"/>
			<path id="XMLID_94_" class="st3" d="M278.4,60.3h1.4V61h0c0-0.1,0.1-0.2,0.2-0.3c0.1-0.1,0.2-0.2,0.3-0.3
				c0.1-0.1,0.3-0.1,0.4-0.2c0.2,0,0.3-0.1,0.5-0.1c0.3,0,0.6,0.1,0.9,0.2c0.3,0.1,0.5,0.4,0.6,0.7c0.2-0.3,0.4-0.5,0.6-0.7
				c0.2-0.1,0.6-0.2,0.9-0.2c0.3,0,0.6,0.1,0.8,0.2c0.2,0.1,0.4,0.3,0.5,0.5c0.1,0.2,0.2,0.4,0.3,0.7c0.1,0.3,0.1,0.5,0.1,0.8v2.9
				h-1.5v-2.8c0-0.2,0-0.4-0.1-0.6s-0.3-0.2-0.5-0.2c-0.2,0-0.3,0-0.4,0.1c-0.1,0.1-0.2,0.1-0.3,0.2c-0.1,0.1-0.1,0.2-0.2,0.4
				c0,0.1,0,0.3,0,0.4v2.6h-1.5v-2.6c0-0.1,0-0.2,0-0.3c0-0.1,0-0.2-0.1-0.4c0-0.1-0.1-0.2-0.2-0.3c-0.1-0.1-0.2-0.1-0.4-0.1
				c-0.2,0-0.4,0-0.5,0.1c-0.1,0.1-0.2,0.2-0.3,0.3c-0.1,0.1-0.1,0.2-0.1,0.4c0,0.1,0,0.3,0,0.5v2.4h-1.5V60.3z"/>
			<path id="XMLID_96_" class="st3" d="M291,63.2c0,0.2,0,0.4,0,0.6c0,0.2,0,0.3,0,0.5c0,0.2,0,0.3,0,0.4c0,0.1,0,0.3,0,0.4h-0.6
				c0-0.2-0.1-0.5-0.1-0.8h0c-0.2,0.3-0.4,0.5-0.6,0.7c-0.3,0.1-0.6,0.2-1,0.2c-0.2,0-0.4,0-0.6-0.1c-0.2-0.1-0.4-0.1-0.5-0.2
				c-0.2-0.1-0.3-0.3-0.4-0.4c-0.1-0.2-0.1-0.4-0.1-0.6c0-0.4,0.1-0.6,0.3-0.8c0.2-0.2,0.4-0.4,0.7-0.5c0.3-0.1,0.5-0.2,0.8-0.2
				c0.3,0,0.6,0,0.8,0h0.7v-0.3c0-0.4-0.1-0.7-0.4-0.9c-0.2-0.2-0.6-0.3-0.9-0.3c-0.5,0-1,0.2-1.4,0.5l-0.4-0.4
				c0.2-0.2,0.5-0.4,0.8-0.5c0.3-0.1,0.6-0.2,0.9-0.2c0.6,0,1,0.1,1.3,0.4c0.3,0.3,0.5,0.7,0.5,1.3V63.2z M289.8,62.9
				c-0.3,0-0.5,0-0.7,0.1c-0.2,0-0.5,0.1-0.6,0.2c-0.2,0.1-0.3,0.2-0.5,0.3c-0.1,0.1-0.2,0.3-0.2,0.5c0,0.1,0,0.3,0.1,0.4
				c0.1,0.1,0.1,0.2,0.2,0.3c0.1,0.1,0.2,0.1,0.3,0.2c0.1,0,0.2,0.1,0.4,0.1c0.3,0,0.6,0,0.8-0.1c0.2-0.1,0.4-0.2,0.5-0.4
				c0.1-0.2,0.2-0.3,0.3-0.5c0-0.2,0.1-0.4,0.1-0.6v-0.3H289.8z"/>
			<path id="XMLID_99_" class="st3" d="M294.9,61.1h-1.3v3c0,0.2,0.1,0.4,0.2,0.5c0.1,0.1,0.3,0.2,0.5,0.2c0.1,0,0.2,0,0.3,0
				c0.1,0,0.2-0.1,0.3-0.1l0.1,0.5c-0.1,0-0.2,0.1-0.4,0.1c-0.1,0-0.3,0-0.4,0c-0.2,0-0.4,0-0.6-0.1c-0.2-0.1-0.3-0.1-0.4-0.3
				c-0.1-0.1-0.2-0.2-0.2-0.4c0-0.1-0.1-0.3-0.1-0.5v-3h-1v-0.5h1v-1.3h0.6v1.3h1.3V61.1z"/>
			<path id="XMLID_101_" class="st3" d="M300.1,64.3c-0.2,0.4-0.5,0.6-0.9,0.8c-0.3,0.2-0.7,0.2-1.1,0.2c-0.4,0-0.7-0.1-1-0.2
				c-0.3-0.1-0.5-0.3-0.7-0.5c-0.2-0.2-0.4-0.5-0.5-0.8c-0.1-0.3-0.2-0.6-0.2-1c0-0.3,0.1-0.7,0.2-1c0.1-0.3,0.3-0.6,0.5-0.8
				c0.2-0.2,0.5-0.4,0.7-0.5c0.3-0.1,0.6-0.2,0.9-0.2c0.4,0,0.7,0.1,0.9,0.2c0.3,0.1,0.5,0.3,0.7,0.5c0.2,0.2,0.3,0.4,0.4,0.7
				c0.1,0.3,0.1,0.5,0.1,0.8V63h-3.9c0,0.1,0,0.3,0.1,0.5c0.1,0.2,0.1,0.4,0.3,0.6c0.1,0.2,0.3,0.3,0.5,0.5c0.2,0.1,0.5,0.2,0.9,0.2
				c0.3,0,0.6-0.1,0.9-0.2c0.3-0.1,0.5-0.3,0.7-0.6L300.1,64.3z M299.6,62.5c0-0.2,0-0.4-0.1-0.6c-0.1-0.2-0.2-0.3-0.3-0.5
				c-0.1-0.1-0.3-0.2-0.5-0.3c-0.2-0.1-0.4-0.1-0.6-0.1c-0.3,0-0.6,0.1-0.8,0.2s-0.4,0.3-0.5,0.5c-0.1,0.2-0.2,0.3-0.3,0.5
				c-0.1,0.2-0.1,0.3-0.1,0.3H299.6z"/>
			<path id="XMLID_104_" class="st3" d="M301.6,61.9c0-0.1,0-0.2,0-0.3c0-0.1,0-0.2,0-0.4c0-0.1,0-0.2,0-0.4c0-0.1,0-0.2,0-0.3h0.6
				c0,0.2,0,0.3,0,0.5c0,0.2,0,0.3,0,0.3c0.2-0.3,0.4-0.5,0.6-0.7c0.2-0.2,0.5-0.3,0.9-0.3c0.1,0,0.1,0,0.2,0c0.1,0,0.1,0,0.2,0
				l-0.1,0.6c-0.1,0-0.2,0-0.2,0c-0.3,0-0.5,0-0.7,0.1c-0.2,0.1-0.3,0.2-0.5,0.3c-0.1,0.1-0.2,0.3-0.3,0.5c-0.1,0.2-0.1,0.4-0.1,0.6
				v2.5h-0.6V61.9z"/>
			<path id="XMLID_106_" class="st3" d="M304.9,58.7c0-0.1,0-0.2,0.1-0.3c0.1-0.1,0.2-0.1,0.3-0.1s0.2,0,0.3,0.1
				c0.1,0.1,0.1,0.2,0.1,0.3c0,0.1,0,0.2-0.1,0.3c-0.1,0.1-0.2,0.1-0.3,0.1s-0.2,0-0.3-0.1C304.9,58.9,304.9,58.8,304.9,58.7z
				 M305,60.6h0.6v4.6H305V60.6z"/>
			<path id="XMLID_109_" class="st3" d="M310.9,63.2c0,0.2,0,0.4,0,0.6c0,0.2,0,0.3,0,0.5s0,0.3,0,0.4c0,0.1,0,0.3,0,0.4h-0.6
				c0-0.2-0.1-0.5-0.1-0.8h0c-0.2,0.3-0.4,0.5-0.6,0.7c-0.3,0.1-0.6,0.2-1,0.2c-0.2,0-0.4,0-0.6-0.1c-0.2-0.1-0.4-0.1-0.5-0.2
				c-0.2-0.1-0.3-0.3-0.4-0.4c-0.1-0.2-0.1-0.4-0.1-0.6c0-0.4,0.1-0.6,0.3-0.8c0.2-0.2,0.4-0.4,0.7-0.5c0.3-0.1,0.5-0.2,0.8-0.2
				c0.3,0,0.6,0,0.8,0h0.7v-0.3c0-0.4-0.1-0.7-0.4-0.9c-0.2-0.2-0.6-0.3-0.9-0.3c-0.5,0-1,0.2-1.4,0.5l-0.4-0.4
				c0.2-0.2,0.5-0.4,0.8-0.5c0.3-0.1,0.6-0.2,0.9-0.2c0.6,0,1,0.1,1.3,0.4c0.3,0.3,0.5,0.7,0.5,1.3V63.2z M309.7,62.9
				c-0.3,0-0.5,0-0.7,0.1c-0.2,0-0.5,0.1-0.6,0.2c-0.2,0.1-0.3,0.2-0.5,0.3c-0.1,0.1-0.2,0.3-0.2,0.5c0,0.1,0,0.3,0.1,0.4
				c0.1,0.1,0.1,0.2,0.2,0.3c0.1,0.1,0.2,0.1,0.3,0.2c0.1,0,0.2,0.1,0.4,0.1c0.3,0,0.6,0,0.8-0.1c0.2-0.1,0.4-0.2,0.5-0.4
				c0.1-0.2,0.2-0.3,0.3-0.5c0-0.2,0.1-0.4,0.1-0.6v-0.3H309.7z"/>
			<path id="XMLID_112_" class="st3" d="M312.6,57.6h0.6v7.6h-0.6V57.6z"/>
			<path id="XMLID_114_" class="st3" d="M315,64c0.1,0.2,0.3,0.4,0.6,0.6s0.5,0.2,0.8,0.2c0.1,0,0.3,0,0.4-0.1
				c0.1,0,0.2-0.1,0.3-0.2c0.1-0.1,0.2-0.2,0.2-0.3c0.1-0.1,0.1-0.2,0.1-0.4c0-0.2-0.1-0.4-0.2-0.5s-0.3-0.2-0.5-0.3
				c-0.2-0.1-0.4-0.1-0.7-0.2c-0.2,0-0.5-0.1-0.7-0.2c-0.2-0.1-0.4-0.2-0.5-0.4s-0.2-0.4-0.2-0.7c0-0.2,0-0.4,0.1-0.6
				c0.1-0.2,0.2-0.3,0.4-0.4c0.2-0.1,0.3-0.2,0.5-0.2c0.2-0.1,0.4-0.1,0.6-0.1c0.4,0,0.7,0.1,1,0.2c0.3,0.1,0.5,0.4,0.6,0.7
				l-0.5,0.3c-0.1-0.2-0.3-0.4-0.4-0.5c-0.2-0.1-0.4-0.2-0.7-0.2c-0.1,0-0.2,0-0.3,0.1c-0.1,0-0.2,0.1-0.3,0.1
				c-0.1,0.1-0.2,0.1-0.2,0.2c-0.1,0.1-0.1,0.2-0.1,0.3c0,0.2,0.1,0.4,0.2,0.5c0.1,0.1,0.3,0.2,0.5,0.2c0.2,0.1,0.4,0.1,0.7,0.1
				c0.2,0,0.5,0.1,0.7,0.2c0.2,0.1,0.4,0.2,0.5,0.4c0.1,0.2,0.2,0.4,0.2,0.7c0,0.2,0,0.5-0.1,0.6c-0.1,0.2-0.2,0.3-0.4,0.4
				c-0.2,0.1-0.3,0.2-0.5,0.3c-0.2,0.1-0.4,0.1-0.6,0.1c-0.4,0-0.8-0.1-1.1-0.2c-0.3-0.2-0.6-0.4-0.8-0.7L315,64z"/>
		</g>
	</g>
</g>
</svg>
