<?xml version="1.0" encoding="utf-8"?>
<!-- Generator: Adobe Illustrator 19.0.0, SVG Export Plug-In . SVG Version: 6.00 Build 0)  -->
<svg version="1.1" id="NDL_LOGO" xmlns="http://www.w3.org/2000/svg" xmlns:xlink="http://www.w3.org/1999/xlink" x="0px" y="0px"
	 viewBox="0 0 87.7 49.4" style="enable-background:new 0 0 87.7 49.4;" xml:space="preserve">
<style type="text/css">
	.st0{fill:url(#XMLID_123_);}
	.st1{fill:#DE0000;}
</style>
<g id="L">
	<path id="XMLID_11_" d="M55,30.4v3.7h20.4v-3.8H64.1V19.5h5.1l-6.5-6.8l-6.5,6.7H61v11.1H55z"/>
	<radialGradient id="XMLID_123_" cx="61.728" cy="30.4803" r="4.89" gradientUnits="userSpaceOnUse">
		<stop  offset="0" style="stop-color:#4276B2"/>
		<stop  offset="0.1989" style="stop-color:#305FAC"/>
		<stop  offset="0.5301" style="stop-color:#1640A5"/>
		<stop  offset="0.809" style="stop-color:#062CA0"/>
		<stop  offset="1" style="stop-color:#00259E"/>
	</radialGradient>
	<path id="XMLID_7_" class="st0" d="M62.9,26.6c2.7,0,4.9,2.2,4.9,4.9c0,2.7-2.2,4.9-4.9,4.9c-2.7,0-4.9-2.2-4.9-4.9
		C58,28.8,60.2,26.6,62.9,26.6z"/>
</g>
<g id="D">
	<path id="XMLID_3_" d="M38,13.9h7.6c1.7,0,3,0.1,3.9,0.4c1.2,0.4,2.3,1,3.1,1.9c0.9,0.9,1.5,2,2,3.4c0.5,1.3,0.7,3,0.7,4.9
		c0,1.7-0.2,3.2-0.6,4.4c-0.5,1.5-1.3,2.7-2.2,3.7c-0.7,0.7-1.7,1.3-2.9,1.7c-0.9,0.3-2.2,0.4-3.7,0.4H38V13.9z M42.2,17.4v13.7h3.1
		c1.2,0,2-0.1,2.5-0.2c0.7-0.2,1.2-0.5,1.7-0.9c0.4-0.4,0.8-1.1,1.1-2c0.3-0.9,0.4-2.2,0.4-3.8c0-1.6-0.1-2.8-0.4-3.7
		c-0.3-0.9-0.7-1.5-1.2-2c-0.5-0.5-1.2-0.8-1.9-1c-0.6-0.1-1.7-0.2-3.4-0.2H42.2z"/>
	<path id="XMLID_17_" d="M35.7,12.8l8.1-11.3h2.7L54.9,13h-3.7l-5.9-8.2L39.3,13h-3.7L35.7,12.8z"/>
</g>
<path id="N" class="st1" d="M8.7,36.8c0,0,3.8-14.9,7.4-19.1c2-2.4,3.5-2.1,4.6-2.2c1.2-0.1,2.6,1.1,2.9,3.3
	c0.4,3.7,0.9,8.5,1.7,8.6c1.3,0.1,7.5-12.6,8.6-13.4c0.9-0.4,2.7-0.6,3.6-0.1c0.2,0.6-6.7,12.2-6.7,12.2s-3,4.4-6.4,4.2
	c-3.3-0.2-4.2-3.2-4.5-7c-0.1-3.8-0.2-4.3-0.7-4.4c-0.7,0-4,7.4-7.1,17.6c-0.7,0.7-1.9,0.8-2.1,0.8C9,37.3,8.7,36.8,8.7,36.8z"/>
<g id="XMLID_1_">
	<path id="XMLID_2_" d="M4,44.7v-5.5h0.8L6.5,42c0.4,0.6,0.7,1.2,1,1.8l0,0c-0.1-0.7-0.1-1.4-0.1-2.2v-2.3h0.7v5.5H7.4l-1.7-2.8
		c-0.4-0.6-0.7-1.2-1-1.8l0,0c0,0.7,0.1,1.3,0.1,2.3v2.3H4z"/>
	<path id="XMLID_9_" d="M11.5,44.7l-0.1-0.5h0c-0.2,0.3-0.6,0.6-1.2,0.6c-0.8,0-1.2-0.6-1.2-1.1c0-0.9,0.8-1.5,2.4-1.5v-0.1
		c0-0.3-0.1-0.9-0.9-0.9c-0.4,0-0.7,0.1-1,0.3l-0.2-0.5c0.3-0.2,0.8-0.3,1.3-0.3c1.2,0,1.5,0.8,1.5,1.6v1.5c0,0.3,0,0.7,0.1,0.9
		H11.5z M11.4,42.7c-0.8,0-1.7,0.1-1.7,0.9c0,0.5,0.3,0.7,0.7,0.7c0.5,0,0.8-0.3,0.9-0.7c0-0.1,0-0.2,0-0.2V42.7z"/>
	<path id="XMLID_15_" d="M13.2,41.9c0-0.4,0-0.7,0-1.1h0.6l0,0.6h0c0.2-0.4,0.6-0.7,1.3-0.7c0.5,0,1.4,0.3,1.4,1.7v2.3h-0.7v-2.3
		c0-0.6-0.2-1.2-0.9-1.2c-0.5,0-0.8,0.3-1,0.7c0,0.1,0,0.2,0,0.3v2.4h-0.7V41.9z"/>
	<path id="XMLID_19_" d="M21.3,42.7c0,1.5-1,2.1-2,2.1c-1.1,0-1.9-0.8-1.9-2c0-1.3,0.9-2.1,1.9-2.1C20.5,40.7,21.3,41.5,21.3,42.7z
		 M18.2,42.8c0,0.9,0.5,1.5,1.2,1.5c0.7,0,1.2-0.6,1.2-1.5c0-0.7-0.3-1.5-1.2-1.5S18.2,42,18.2,42.8z"/>
	<path id="XMLID_22_" d="M23.9,42.3v0.5h-2v-0.5H23.9z"/>
	<path id="XMLID_24_" d="M24.8,39.3c0.4-0.1,0.9-0.1,1.5-0.1c1,0,1.7,0.2,2.2,0.7c0.5,0.4,0.8,1.1,0.8,2c0,0.9-0.3,1.6-0.8,2.1
		c-0.5,0.5-1.4,0.8-2.4,0.8c-0.5,0-0.9,0-1.3-0.1V39.3z M25.5,44.2c0.2,0,0.4,0,0.7,0c1.5,0,2.3-0.8,2.3-2.3c0-1.3-0.7-2.1-2.2-2.1
		c-0.4,0-0.6,0-0.8,0.1V44.2z"/>
	<path id="XMLID_28_" d="M30.6,42.9c0,1,0.6,1.4,1.3,1.4c0.5,0,0.8-0.1,1.1-0.2l0.1,0.5c-0.3,0.1-0.7,0.2-1.3,0.2
		c-1.2,0-1.9-0.8-1.9-2s0.7-2.1,1.8-2.1c1.3,0,1.6,1.1,1.6,1.8c0,0.1,0,0.3,0,0.3H30.6z M32.7,42.4c0-0.5-0.2-1.2-1-1.2
		c-0.7,0-1,0.7-1.1,1.2H32.7z"/>
	<path id="XMLID_34_" d="M34.5,40.8l0.8,2.2c0.1,0.4,0.2,0.7,0.3,1h0c0.1-0.3,0.2-0.6,0.3-1l0.8-2.2h0.7l-1.5,3.9h-0.7l-1.5-3.9
		H34.5z"/>
	<path id="XMLID_36_" d="M38.9,39.7c0,0.2-0.2,0.4-0.5,0.4c-0.3,0-0.4-0.2-0.4-0.4c0-0.3,0.2-0.4,0.4-0.4
		C38.8,39.2,38.9,39.4,38.9,39.7z M38.2,44.7v-3.9h0.7v3.9H38.2z"/>
	<path id="XMLID_39_" d="M42.8,44.6c-0.2,0.1-0.6,0.2-1.1,0.2c-1.2,0-2-0.8-2-2c0-1.2,0.8-2.1,2.1-2.1c0.4,0,0.8,0.1,1,0.2l-0.2,0.6
		c-0.2-0.1-0.4-0.2-0.8-0.2c-0.9,0-1.4,0.7-1.4,1.5c0,0.9,0.6,1.5,1.4,1.5c0.4,0,0.7-0.1,0.9-0.2L42.8,44.6z"/>
	<path id="XMLID_41_" d="M44,42.9c0,1,0.6,1.4,1.3,1.4c0.5,0,0.8-0.1,1.1-0.2l0.1,0.5c-0.3,0.1-0.7,0.2-1.3,0.2
		c-1.2,0-1.9-0.8-1.9-2s0.7-2.1,1.8-2.1c1.3,0,1.6,1.1,1.6,1.8c0,0.1,0,0.3,0,0.3H44z M46.1,42.4c0-0.5-0.2-1.2-1-1.2
		c-0.7,0-1,0.7-1.1,1.2H46.1z"/>
	<path id="XMLID_44_" d="M49.4,39.3h0.7v4.9h2.3v0.6h-3V39.3z"/>
	<path id="XMLID_46_" d="M55.4,44.7l-0.1-0.5h0c-0.2,0.3-0.6,0.6-1.2,0.6c-0.8,0-1.2-0.6-1.2-1.1c0-0.9,0.8-1.5,2.4-1.5v-0.1
		c0-0.3-0.1-0.9-0.9-0.9c-0.4,0-0.7,0.1-1,0.3l-0.2-0.5c0.3-0.2,0.8-0.3,1.3-0.3c1.2,0,1.5,0.8,1.5,1.6v1.5c0,0.3,0,0.7,0.1,0.9
		H55.4z M55.3,42.7c-0.8,0-1.7,0.1-1.7,0.9c0,0.5,0.3,0.7,0.7,0.7c0.5,0,0.8-0.3,0.9-0.7c0-0.1,0-0.2,0-0.2V42.7z"/>
	<path id="XMLID_49_" d="M57.1,44.7c0-0.3,0-0.7,0-1V39h0.7v2.5h0c0.3-0.4,0.7-0.7,1.3-0.7c1,0,1.7,0.8,1.7,2c0,1.4-0.9,2.1-1.8,2.1
		c-0.6,0-1-0.2-1.3-0.7h0l0,0.6H57.1z M57.8,43.1c0,0.1,0,0.2,0,0.3c0.1,0.5,0.6,0.8,1.1,0.8c0.7,0,1.2-0.6,1.2-1.5
		c0-0.8-0.4-1.5-1.2-1.5c-0.5,0-0.9,0.3-1.1,0.9c0,0.1,0,0.2,0,0.3V43.1z"/>
	<path id="XMLID_52_" d="M65.3,42.7c0,1.5-1,2.1-2,2.1c-1.1,0-1.9-0.8-1.9-2c0-1.3,0.9-2.1,1.9-2.1C64.5,40.7,65.3,41.5,65.3,42.7z
		 M62.2,42.8c0,0.9,0.5,1.5,1.2,1.5c0.7,0,1.2-0.6,1.2-1.5c0-0.7-0.3-1.5-1.2-1.5S62.2,42,62.2,42.8z"/>
	<path id="XMLID_55_" d="M66.2,42c0-0.5,0-0.9,0-1.2h0.6l0,0.8h0c0.2-0.5,0.6-0.9,1.1-0.9c0.1,0,0.1,0,0.2,0v0.7c-0.1,0-0.1,0-0.2,0
		c-0.5,0-0.9,0.4-1,0.9c0,0.1,0,0.2,0,0.3v2.1h-0.7V42z"/>
	<path id="XMLID_57_" d="M71,44.7l-0.1-0.5h0c-0.2,0.3-0.6,0.6-1.2,0.6c-0.8,0-1.2-0.6-1.2-1.1c0-0.9,0.8-1.5,2.4-1.5v-0.1
		c0-0.3-0.1-0.9-0.9-0.9c-0.4,0-0.7,0.1-1,0.3l-0.2-0.5c0.3-0.2,0.8-0.3,1.3-0.3c1.2,0,1.5,0.8,1.5,1.6v1.5c0,0.3,0,0.7,0.1,0.9H71z
		 M70.9,42.7c-0.8,0-1.7,0.1-1.7,0.9c0,0.5,0.3,0.7,0.7,0.7c0.5,0,0.8-0.3,0.9-0.7c0-0.1,0-0.2,0-0.2V42.7z"/>
	<path id="XMLID_60_" d="M73.5,39.7v1.1h1v0.5h-1v2.1c0,0.5,0.1,0.8,0.5,0.8c0.2,0,0.3,0,0.4,0l0,0.5c-0.1,0.1-0.4,0.1-0.6,0.1
		c-0.3,0-0.6-0.1-0.8-0.3c-0.2-0.2-0.3-0.6-0.3-1v-2.1h-0.6v-0.5h0.6v-0.9L73.5,39.7z"/>
	<path id="XMLID_62_" d="M78.8,42.7c0,1.5-1,2.1-2,2.1c-1.1,0-1.9-0.8-1.9-2c0-1.3,0.9-2.1,1.9-2.1C78.1,40.7,78.8,41.5,78.8,42.7z
		 M75.7,42.8c0,0.9,0.5,1.5,1.2,1.5c0.7,0,1.2-0.6,1.2-1.5c0-0.7-0.3-1.5-1.2-1.5S75.7,42,75.7,42.8z"/>
	<path id="XMLID_65_" d="M79.7,42c0-0.5,0-0.9,0-1.2h0.6l0,0.8h0c0.2-0.5,0.6-0.9,1.1-0.9c0.1,0,0.1,0,0.2,0v0.7c-0.1,0-0.1,0-0.2,0
		c-0.5,0-0.9,0.4-1,0.9c0,0.1,0,0.2,0,0.3v2.1h-0.7V42z"/>
	<path id="XMLID_68_" d="M82.9,40.8l0.9,2.3c0.1,0.3,0.2,0.6,0.3,0.8h0c0.1-0.2,0.2-0.5,0.3-0.8l0.8-2.3h0.8l-1.1,2.8
		c-0.5,1.3-0.9,2-1.3,2.5c-0.3,0.3-0.7,0.4-0.9,0.5l-0.2-0.6c0.2-0.1,0.4-0.2,0.6-0.3c0.2-0.2,0.4-0.4,0.6-0.8
		c0-0.1,0.1-0.1,0.1-0.2s0-0.1,0-0.2l-1.5-3.6H82.9z"/>
</g>
</svg>
