<?xml version="1.0" encoding="utf-8"?>
<!-- Generator: Adobe Illustrator 19.0.0, SVG Export Plug-In . SVG Version: 6.00 Build 0)  -->
<svg version="1.1" id="Layer_1" xmlns="http://www.w3.org/2000/svg" xmlns:xlink="http://www.w3.org/1999/xlink" x="0px" y="0px"
	 viewBox="0 0 366.9 133.1" style="enable-background:new 0 0 366.9 133.1;" xml:space="preserve">
<style type="text/css">
	.st0{fill:#231F20;}
	.st1{fill:#FBB817;}
	.st2{fill:#3D5BA8;}
	.st3{fill:none;}
	.st4{fill:#EC1B30;}
	.st5{fill:#DFCB21;}
</style>
<path class="st0" d="M154.3,52.5c0-2.2,0.4-4.2,1.1-6c0.8-1.8,1.8-3.3,3.1-4.6c1.3-1.3,2.9-2.3,4.7-3c1.8-0.7,3.8-1.1,5.9-1.1
	c2.1,0,4.1,0.4,6,1.1c1.8,0.7,3.4,1.7,4.7,3c1.3,1.3,2.3,2.8,3.1,4.6c0.8,1.8,1.1,3.8,1.1,6c0,2.2-0.4,4.2-1.1,5.9
	c-0.8,1.8-1.8,3.3-3.1,4.6c-1.3,1.3-2.9,2.3-4.7,3c-1.8,0.7-3.8,1.1-6,1.1c-2.1,0-4.1-0.4-5.9-1.1c-1.8-0.7-3.4-1.7-4.7-3
	c-1.3-1.3-2.3-2.8-3.1-4.6C154.6,56.6,154.3,54.6,154.3,52.5z M159.3,52.5c0,1.5,0.2,2.8,0.7,4.1c0.5,1.2,1.1,2.3,2,3.3
	c0.9,0.9,1.9,1.7,3.1,2.2c1.2,0.5,2.6,0.8,4.1,0.8c1.5,0,2.9-0.3,4.1-0.8c1.2-0.5,2.3-1.3,3.1-2.2c0.9-0.9,1.5-2,2-3.3
	c0.5-1.2,0.7-2.6,0.7-4.1c0-1.5-0.2-2.8-0.7-4.1c-0.5-1.2-1.1-2.3-2-3.3c-0.9-0.9-1.9-1.7-3.1-2.2c-1.2-0.5-2.6-0.8-4.1-0.8
	c-1.5,0-2.9,0.3-4.1,0.8c-1.2,0.5-2.3,1.3-3.1,2.2c-0.9,0.9-1.5,2-2,3.3C159.5,49.6,159.3,51,159.3,52.5z"/>
<path class="st0" d="M242.9,61.5c-1.7,2.1-3.5,3.6-5.5,4.5c-2,0.9-4.3,1.3-6.9,1.3c-2.2,0-4.1-0.4-5.9-1.2c-1.7-0.8-3.2-1.8-4.4-3.1
	c-1.2-1.3-2.1-2.9-2.8-4.6c-0.7-1.8-1-3.7-1-5.7c0-2.1,0.4-4.1,1.1-5.9c0.7-1.8,1.7-3.4,3-4.6c1.3-1.3,2.8-2.3,4.5-3
	c1.7-0.7,3.6-1.1,5.7-1.1c1.9,0,3.7,0.3,5.4,1c1.6,0.7,3,1.6,4.2,2.9c1.2,1.2,2.1,2.8,2.7,4.6c0.6,1.8,1,3.9,1,6.2V54h-22.5
	c0.1,1.2,0.4,2.3,0.9,3.4c0.5,1.1,1.1,2,1.9,2.9c0.8,0.8,1.7,1.5,2.8,1.9c1.1,0.5,2.2,0.7,3.5,0.7c2,0,3.7-0.4,5.1-1.1
	c1.4-0.7,2.6-1.8,3.7-3.2L242.9,61.5z M238.9,50.1c-0.1-2.4-0.9-4.3-2.3-5.7c-1.5-1.4-3.5-2.1-6.1-2.1c-2.6,0-4.7,0.7-6.2,2.1
	c-1.6,1.4-2.5,3.3-2.9,5.7H238.9z"/>
<path d="M297.3,51.3c0,0.2,0,0.4,0,0.5v-0.3C297.3,51.5,297.3,51.4,297.3,51.3z"/>
<path d="M301.9,51.9c0-0.2,0-0.4,0-0.5c0,0.1,0,0.2,0,0.2V51.9z"/>
<path d="M320.5,45.7c-0.1-0.4-0.1-0.7-0.2-1.1c-0.1-0.3-0.2-0.6-0.3-0.9c-0.3-0.7-0.5-1.4-0.9-2c-0.2-0.3-0.3-0.5-0.5-0.7
	c-0.4-0.5-0.9-0.9-1.4-1.3c-0.6-0.4-1.2-0.8-1.9-1c0,0,0,0,0,0c-1.2-0.5-2.7-0.7-4.5-0.8c-0.2,0-0.3,0-0.5,0c-2.1,0-3.9,0.5-5.2,1.4
	c-1.3,0.9-2.5,2.2-3.6,3.9c0,0-0.7,1.2-1.5,2.7c-0.8-1.4-1.5-2.7-1.5-2.7c-1-1.7-2.2-3-3.6-3.9c-1.3-0.9-3.1-1.4-5.2-1.4
	c-2,0-3.6,0.3-5,0.8c-1.3,0.5-2.4,1.3-3.3,2.3c-0.8,1-1.4,2.2-1.8,3.7c-0.4,1.4-0.5,3.1-0.5,4.8v16.9h4.6V49.7c0-1,0.1-1.9,0.3-2.8
	c0.2-0.9,0.6-1.7,1.1-2.4c0.5-0.7,1.2-1.3,2.1-1.7c0.9-0.4,2-0.7,3.3-0.7c1,0,1.9,0.2,2.8,0.6c0.9,0.4,1.6,1,2.3,1.7
	c0.7,0.7,1.2,1.6,1.5,2.6c0.4,0.9,0.5,2,0.6,3.1c0,0.1,0,0.2,0,0.2v0.3v15.8h4.6V50.6v-0.3c0-0.1,0-0.2,0-0.2c0-1.1,0.2-2.2,0.6-3.1
	c0.4-1,0.9-1.9,1.5-2.6c0.7-0.7,1.4-1.3,2.3-1.7c0.9-0.4,1.8-0.6,2.8-0.6c1.3,0,2.5,0.2,3.3,0.7c0.9,0.4,1.6,1,2.1,1.7
	c0.5,0.7,0.9,1.5,1.1,2.4c0.2,0.9,0.3,1.8,0.3,2.8v27.4h4.6V49.5C320.8,48.1,320.7,46.9,320.5,45.7z"/>
<path class="st1" d="M169.5,28.8h1.1c13.3,0,24.7,10.1,27.9,22.7h3.5c-3.2-14.5-16.2-26.1-31.4-26.1h-1.1
	c-15.1,0-28.1,11.6-31.4,26.1h3.5C144.8,39,156.2,28.8,169.5,28.8z"/>
<path class="st1" d="M168.7,22h1.1c15.2,0,28.4,10.6,32.5,24.1h0.5c-3.4-14.5-17.1-26.1-33-26.1h-1.1c-15.9,0-29.6,11.6-33,26.1h0.5
	C140.3,32.6,153.5,22,168.7,22z"/>
<path class="st1" d="M169,16.3h1.1c16.2,0,30.2,11.2,34,25.4h0.2c-3.5-14.5-17.7-26.1-34.2-26.1H169c-16.5,0-30.7,11.6-34.2,26.1
	h0.2C138.8,27.5,152.8,16.3,169,16.3z"/>
<path class="st2" d="M259,54.4c-1.8,14.2-14,24.9-28.3,25c-14.3-0.1-26.4-10.9-28.3-25c0,0,0-0.1,0-0.1H199c0,0.2,0.1,0.4,0.1,0.6
	c2,15.2,14.3,26.8,29.5,27.9l2,0.1l0.3,0l1.9-0.1c15.2-1.1,27.6-12.7,29.5-27.9c0-0.2,0.1-0.4,0.1-0.6H259
	C259,54.3,259,54.4,259,54.4z"/>
<path class="st2" d="M233.6,93l-2.1,0.1l-0.3,0l-2.3-0.1c-16.9-1.1-30.6-12.4-33.1-27.3h-0.2c0,0.2,0.1,0.4,0.1,0.6
	c2.2,15.2,16.1,26.8,33.2,27.9l2.3,0.1l0.3,0l2.1-0.1c17.1-1.1,31-12.7,33.2-27.9c0-0.2,0.1-0.4,0.1-0.6h-0.2
	C264.2,80.6,250.5,91.9,233.6,93z"/>
<path class="st2" d="M232.8,86.9l-1.9,0.1l-0.3,0l-2.1-0.1c-15.2-1.1-27.7-12.4-30.4-27.4h-0.3c0,0.2,0.1,0.4,0.1,0.6
	c2,15.8,14.8,27.8,30.6,28.9l2.1,0.1l0.3,0l1.9-0.1c15.8-1.1,28.5-13.2,30.6-28.9c0-0.2,0.1-0.4,0.1-0.6h-0.3
	C260.5,74.5,248.1,85.8,232.8,86.9z"/>
<path class="st3" d="M105.2,59.2c0.9,0.9,1.9,1.7,3.1,2.2c1.2,0.5,2.6,0.8,4.1,0.8c1.5,0,2.9-0.3,4.1-0.8c1.2-0.5,2.3-1.3,3.1-2.2
	c0.9-0.9,1.5-2,2-3.3c0.5-1.2,0.7-2.6,0.7-4.1c0-1.5-0.2-2.8-0.7-4.1c-0.5-1.2-1.1-2.3-2-3.3c-0.9-0.9-1.9-1.7-3.1-2.2
	c-1.2-0.5-2.6-0.8-4.1-0.8c-1.5,0-2.9,0.3-4.1,0.8c-1.2,0.5-2.3,1.3-3.1,2.2c-0.9,0.9-1.5,2-2,3.3c-0.5,1.2-0.7,2.6-0.7,4.1
	c0,1.5,0.2,2.8,0.7,4.1C103.7,57.2,104.3,58.3,105.2,59.2z"/>
<path d="M97.9,83.4L97.9,83.4C97.9,83.4,97.9,83.4,97.9,83.4C97.9,83.4,97.9,83.4,97.9,83.4z"/>
<path class="st4" d="M310.3,36.1c1.9,0,3.8,0.4,5.5,1c-6.1-6.7-14.7-11.7-23.9-11.7h-1.1c-15.1,0-28.1,11.6-31.4,26.1h3.5
	c3.2-12.6,14.6-22.7,27.9-22.7h1.1c6.6,0,12.9,3.2,17.9,7.3C310,36.1,310.1,36.1,310.3,36.1z"/>
<path class="st4" d="M291,22.9h1.1c8.6,0,16.7,3.9,22.8,9.5c-6.3-6.3-15-10.8-24.2-10.8h-1.1c-15.9,0-29.5,11.6-32.9,26.1h1.6
	C262.3,33.9,275.6,22.9,291,22.9z"/>
<path class="st4" d="M288.2,18.5h1.1c8.6,0,16.7,3.8,22.9,9.2C306,22,297.6,18,288.8,18h-1.1c-16.1,0-29.9,11.6-33.3,26.1h0.7
	C258.6,29.9,272.3,18.5,288.2,18.5z"/>
<path d="M102.4,61.2h0.1c0.9,1.6,2.3,2.9,4.1,4c1.9,1.1,4.1,1.6,6.6,1.6c1.9,0,3.8-0.4,5.5-1.1c1.7-0.7,3.2-1.8,4.4-3.1
	c1.2-1.3,2.2-2.9,2.9-4.6c0.7-1.8,1.1-3.7,1.1-5.8c0-2.1-0.4-4-1.1-5.8c-0.7-1.8-1.7-3.3-3-4.6c-1.3-1.3-2.8-2.3-4.6-3.1
	c-1.8-0.7-3.8-1.1-6-1.1c-8,0-14.7,6.2-14.7,12.8c0,5,0,18.2,0,25.2c1.5,0.7,2.8,1.2,4.6,1.5V61.2z M103,48.2c0.5-1.2,1.1-2.3,2-3.3
	c0.9-0.9,1.9-1.7,3.1-2.2c1.2-0.5,2.6-0.8,4.1-0.8c1.5,0,2.9,0.3,4.1,0.8c1.2,0.5,2.3,1.3,3.1,2.2c0.9,0.9,1.5,2,2,3.3
	c0.5,1.2,0.7,2.6,0.7,4.1c0,1.5-0.2,2.8-0.7,4.1c-0.5,1.2-1.1,2.3-2,3.3c-0.9,0.9-1.9,1.7-3.1,2.2c-1.2,0.5-2.6,0.8-4.1,0.8
	c-1.5,0-2.9-0.3-4.1-0.8c-1.2-0.5-2.3-1.3-3.1-2.2c-0.9-0.9-1.5-2-2-3.3c-0.5-1.2-0.7-2.6-0.7-4.1C102.4,50.8,102.6,49.4,103,48.2z"
	/>
<path class="st2" d="M107.9,82.8l2,0.1l0.3,0l1.9-0.1c15.2-1.1,27.6-12.7,29.5-27.9c0-0.2,0.1-0.4,0.1-0.6h-3.4c0,0,0,0.1,0,0.1
	c-1.8,14.2-14,24.9-28.3,25c-14.3-0.1-26.3-7.6-28.1-21.7c-0.4-2.8-1.4-6.6-2.5-9.5v11.5C83.2,72.5,94.4,81.8,107.9,82.8z"/>
<path class="st2" d="M146,65.7c-2.5,14.9-16.2,26.3-33.1,27.3l-2.1,0.1l-0.3,0l-2.3-0.1c-11.8-0.8-20.7-7-26.7-15.5
	c-0.1-0.2-0.3-0.4-0.4-0.6c-0.1-0.1-0.2-0.3-0.3-0.4v1.7c0.6,0.5,1.1,1,1.8,1.9c0.3,0.4,0.6,0.8,0.9,1.1
	c6.1,7.1,14.1,12.2,24.6,12.9l2.3,0.1l0.3,0l2.1-0.1c17.1-1.1,31-12.7,33.2-27.9c0-0.2,0.1-0.4,0.1-0.6H146z"/>
<path class="st2" d="M107.8,89l2.1,0.1l0.3,0l1.9-0.1c15.8-1.1,28.5-13.2,30.6-28.9c0-0.2,0.1-0.4,0.1-0.6h-0.3
	c-2.6,15-15.1,26.3-30.4,27.4l-1.9,0.1l-0.3,0l-2.1-0.1C94.9,86,84.1,77.8,79.4,66.3v2.1C84.1,79.9,94.9,88.1,107.8,89z"/>
<path class="st3" d="M49,42.9h1c0.9,0,1.8,0.1,2.7,0.2v-8.9c-1.1-0.1-2.2-0.2-3.3-0.2h-1.1c-0.3,0-0.7,0-1,0v9
	C47.9,42.9,48.4,42.9,49,42.9z"/>
<path class="st1" d="M77.4,47.7V26.1h-9.9v10.4C71.5,39.4,74.9,43.3,77.4,47.7z"/>
<path class="st5" d="M74.1,65.8h-0.2c0,0.2,0.1,0.4,0.1,0.6"/>
<path class="st2" d="M62.6,23.3h-9.9v7.4c3.5,0.4,6.8,1.4,9.9,2.9V23.3z"/>
<path class="st4" d="M47.4,17.9h-9.9v14.7c3.1-1.2,6.5-1.9,9.9-2V17.9z"/>
<path class="st2" d="M31.8,35.6v-9.5h-9.9v19.4C24.5,41.5,27.9,38.1,31.8,35.6z"/>
<path class="st3" d="M37.5,46c-2,1.1-3.9,2.4-5.7,4.1v2.5c1.8-1.6,3.7-3,5.7-4.1V46z"/>
<path class="st3" d="M47.4,43v2.5c0.5,0,1-0.1,1.6-0.1h1c0.9,0,1.8,0.1,2.7,0.2V43v-1.9v0c-1-0.1-2-0.2-3-0.2h-1
	c-0.4,0-0.9,0-1.3,0.1V41V43z"/>
<rect x="62.6" y="42.4" class="st5" width="0" height="2"/>
<rect x="62.6" y="50.8" class="st5" width="0" height="0.7"/>
<path class="st3" d="M37.5,44v-0.5c-2,1-3.9,2.2-5.7,3.6v1V50v0c1.8-1.6,3.7-3,5.7-4.1V44z"/>
<path class="st3" d="M37.5,41.5v-5.2c-2,0.9-3.9,2-5.7,3.4v5.4C33.6,43.7,35.5,42.5,37.5,41.5z"/>
<path class="st3" d="M50,45.3h-1c-0.5,0-1,0.1-1.6,0.1v1.5c0.3,0,0.5,0,0.8,0h0.9c1.2,0,2.4,0.1,3.6,0.3v-1.7
	C51.8,45.4,50.9,45.3,50,45.3z"/>
<path class="st3" d="M52.7,58.9v-11c-1.2-0.2-2.4-0.3-3.6-0.3h-0.9c-0.3,0-0.5,0-0.8,0V59v1.9v4.4c1.1-0.1,2.2-0.2,3.4-0.2h1.1
	c0.3,0,0.6,0,0.9,0v-4.4V58.9z"/>
<path class="st3" d="M62.6,44.4v2.2c1.7,1,3.3,2.3,4.8,3.7v-2.5C66,46.5,64.3,45.4,62.6,44.4z"/>
<path class="st3" d="M67.5,40.8c-1.5-1.3-3.1-2.4-4.8-3.4v5c1.7,1,3.3,2.1,4.8,3.4V40.8z"/>
<path class="st3" d="M67.5,65.8V55c-1.5-1.3-3.1-2.4-4.8-3.4V67c1.7,0.6,3.3,1.4,4.8,2.2v-2.4V65.8z"/>
<path class="st3" d="M67.5,52.8c-1.5-1.4-3.1-2.7-4.8-3.7v1.7c1.7,1,3.3,2.1,4.8,3.4V52.8z"/>
<path class="st3" d="M37.5,61.7V50.3c-2,1-3.9,2.4-5.7,3.9v12.4V67v3.1v1.3c1.8-1.3,3.7-2.4,5.7-3.4v-4.4V61.7z"/>
<path class="st3" d="M37.5,48.4c-2,1.1-3.9,2.5-5.7,4.1v0.9c1.8-1.5,3.6-2.9,5.7-3.9V48.4z"/>
<path class="st1" d="M67.5,57v10.8v1.1v2.4v2.2h9.9v-2.1C75.4,65.8,71.9,60.8,67.5,57z"/>
<path class="st1" d="M77.4,68.6v-3.3c-2.4-5.9-5.8-11-9.9-14.9v2.4v1.4C71.9,58,75.4,63,77.4,68.6z"/>
<path class="st1" d="M67.5,47.8v2.5c4.1,3.9,7.6,9,9.9,14.9v-2.3C75.4,56.9,71.9,51.7,67.5,47.8z"/>
<path class="st1" d="M77.4,60.9v-4.2h0c-1.5-6.2-5.1-11.8-9.9-15.9v0v5C71.9,49.7,75.4,55,77.4,60.9z"/>
<path class="st2" d="M52.7,61v1.8v4.4v13.7h9.9V64.7v-1.8v-9.3c-3.1-1.8-6.5-3.1-9.9-3.6V61z"/>
<path class="st2" d="M62.6,37.5c-3-1.7-6.4-2.9-9.9-3.3v4.9c3.5,0.4,6.9,1.6,9.9,3.4V37.5z"/>
<path class="st2" d="M52.7,41.1V43v2.5v1.7c3.4,0.5,6.8,1.8,9.9,3.6v-4.2v-1.9v-0.3C59.6,42.7,56.2,41.5,52.7,41.1L52.7,41.1z"/>
<path class="st4" d="M47.4,38.9V34c-3.5,0.1-6.8,1-9.9,2.4v5.2C40.6,40,43.9,39.1,47.4,38.9z"/>
<path class="st4" d="M37.5,46v2.5v1.1c3.1-1.6,6.4-2.5,9.9-2.6v-1.5V43v-2v-0.1c-3.5,0.2-6.8,1.1-9.9,2.6V44V46z"/>
<path class="st4" d="M47.4,61V49.7c-3.5,0.1-6.8,1.1-9.9,2.6v11.5v1.9v4.4v17.2h9.9V67.4V63V61z"/>
<path class="st2" d="M31.8,45.1v-5.4c-4.4,3.3-7.8,7.8-9.9,12.9v5.9C24.1,53.2,27.6,48.5,31.8,45.1z"/>
<path class="st2" d="M31.8,53.4v-0.9V50v0v-1.9v-1c-4.3,3.4-7.7,8.1-9.9,13.4v2v1.9v4.8C23.8,62.9,27.3,57.4,31.8,53.4z"/>
<path class="st2" d="M31.8,68.6V56.2c-4.5,4-8,9.5-9.9,15.7v0.2h9.9V69V68.6z"/>
<g id="XMLID_27_">
	<path id="XMLID_28_" class="st0" d="M24.5,101.8h2.3v1.1h0c0.1-0.1,0.2-0.3,0.4-0.4c0.2-0.1,0.3-0.3,0.6-0.4
		c0.2-0.1,0.5-0.2,0.7-0.3c0.3-0.1,0.5-0.1,0.8-0.1c0.6,0,1.1,0.1,1.6,0.3s0.9,0.5,1.3,0.9c0.3,0.4,0.6,0.8,0.8,1.3
		c0.2,0.5,0.3,1.1,0.3,1.7c0,0.6-0.1,1.1-0.3,1.6c-0.2,0.5-0.4,1-0.7,1.4c-0.3,0.4-0.7,0.7-1.2,1c-0.5,0.2-1,0.4-1.5,0.4
		c-0.5,0-1-0.1-1.5-0.2c-0.4-0.2-0.8-0.4-1.1-0.8h0v4.6h-2.5V101.8z M26.8,105.8c0,0.6,0.2,1.1,0.5,1.5c0.3,0.4,0.8,0.6,1.5,0.6
		c0.6,0,1.1-0.2,1.5-0.6c0.3-0.4,0.5-0.9,0.5-1.5c0-0.6-0.2-1.1-0.5-1.5c-0.3-0.4-0.8-0.6-1.5-0.6c-0.6,0-1.1,0.2-1.5,0.6
		C27,104.7,26.8,105.2,26.8,105.8z"/>
	<path id="XMLID_31_" class="st0" d="M35.2,97.3h1v6.2h0c0.2-0.4,0.5-0.8,1-1.1c0.5-0.3,1-0.5,1.6-0.5c0.6,0,1.1,0.1,1.5,0.3
		c0.4,0.2,0.7,0.4,0.9,0.7c0.2,0.3,0.4,0.7,0.4,1.1c0.1,0.4,0.1,0.8,0.1,1.2v4.6h-1v-4.5c0-0.3,0-0.6-0.1-0.9
		c-0.1-0.3-0.2-0.6-0.3-0.8c-0.1-0.2-0.3-0.4-0.6-0.6c-0.2-0.1-0.6-0.2-1-0.2c-0.4,0-0.7,0.1-1,0.2c-0.3,0.1-0.6,0.3-0.8,0.6
		c-0.2,0.3-0.4,0.6-0.6,1s-0.2,0.9-0.2,1.4v3.8h-1V97.3z"/>
	<path id="XMLID_33_" class="st0" d="M43.9,106c0-0.6,0.1-1.1,0.3-1.6c0.2-0.5,0.5-0.9,0.8-1.3c0.4-0.4,0.8-0.6,1.3-0.8
		c0.5-0.2,1-0.3,1.6-0.3s1.1,0.1,1.6,0.3c0.5,0.2,0.9,0.5,1.3,0.8s0.6,0.8,0.8,1.3c0.2,0.5,0.3,1,0.3,1.6c0,0.6-0.1,1.1-0.3,1.6
		c-0.2,0.5-0.5,0.9-0.8,1.3s-0.8,0.6-1.3,0.8c-0.5,0.2-1,0.3-1.6,0.3s-1.1-0.1-1.6-0.3c-0.5-0.2-0.9-0.5-1.3-0.8
		c-0.4-0.4-0.6-0.8-0.8-1.3C44,107.1,43.9,106.6,43.9,106z M44.9,106c0,0.4,0.1,0.8,0.2,1.2s0.3,0.7,0.6,1c0.3,0.3,0.6,0.5,1,0.7
		c0.4,0.2,0.8,0.2,1.3,0.2s0.9-0.1,1.3-0.2c0.4-0.2,0.7-0.4,1-0.7c0.3-0.3,0.5-0.6,0.6-1c0.1-0.4,0.2-0.8,0.2-1.2s-0.1-0.8-0.2-1.2
		c-0.1-0.4-0.3-0.7-0.6-1c-0.3-0.3-0.6-0.5-1-0.7c-0.4-0.2-0.8-0.2-1.3-0.2s-0.9,0.1-1.3,0.2c-0.4,0.2-0.7,0.4-1,0.7
		c-0.3,0.3-0.5,0.6-0.6,1S44.9,105.6,44.9,106z"/>
	<path id="XMLID_36_" class="st0" d="M54.2,104.3c0-0.1,0-0.3,0-0.5c0-0.2,0-0.4,0-0.6c0-0.2,0-0.4,0-0.6c0-0.2,0-0.3,0-0.4h1
		c0,0.3,0,0.6,0,0.8c0,0.3,0,0.4,0,0.5h0c0.2-0.4,0.5-0.8,1-1.1c0.5-0.3,1-0.5,1.6-0.5c0.6,0,1.1,0.1,1.5,0.3
		c0.4,0.2,0.7,0.4,0.9,0.7c0.2,0.3,0.4,0.7,0.4,1.1c0.1,0.4,0.1,0.8,0.1,1.2v4.6h-1v-4.5c0-0.3,0-0.6-0.1-0.9
		c-0.1-0.3-0.2-0.6-0.3-0.8c-0.1-0.2-0.3-0.4-0.6-0.6c-0.2-0.1-0.6-0.2-1-0.2c-0.4,0-0.7,0.1-1,0.2c-0.3,0.1-0.6,0.3-0.8,0.6
		c-0.2,0.3-0.4,0.6-0.6,1s-0.2,0.9-0.2,1.4v3.8h-1V104.3z"/>
	<path id="XMLID_38_" class="st0" d="M63,106c0-0.6,0.1-1.1,0.3-1.6c0.2-0.5,0.5-0.9,0.8-1.3c0.4-0.4,0.8-0.6,1.3-0.8
		c0.5-0.2,1-0.3,1.6-0.3s1.1,0.1,1.6,0.3c0.5,0.2,0.9,0.5,1.3,0.8s0.6,0.8,0.8,1.3c0.2,0.5,0.3,1,0.3,1.6c0,0.6-0.1,1.1-0.3,1.6
		c-0.2,0.5-0.5,0.9-0.8,1.3s-0.8,0.6-1.3,0.8c-0.5,0.2-1,0.3-1.6,0.3s-1.1-0.1-1.6-0.3c-0.5-0.2-0.9-0.5-1.3-0.8
		c-0.4-0.4-0.6-0.8-0.8-1.3C63.1,107.1,63,106.6,63,106z M64,106c0,0.4,0.1,0.8,0.2,1.2s0.3,0.7,0.6,1c0.3,0.3,0.6,0.5,1,0.7
		c0.4,0.2,0.8,0.2,1.3,0.2s0.9-0.1,1.3-0.2c0.4-0.2,0.7-0.4,1-0.7c0.3-0.3,0.5-0.6,0.6-1c0.1-0.4,0.2-0.8,0.2-1.2s-0.1-0.8-0.2-1.2
		c-0.1-0.4-0.3-0.7-0.6-1c-0.3-0.3-0.6-0.5-1-0.7c-0.4-0.2-0.8-0.2-1.3-0.2s-0.9,0.1-1.3,0.2c-0.4,0.2-0.7,0.4-1,0.7
		c-0.3,0.3-0.5,0.6-0.6,1S64,105.6,64,106z"/>
	<path id="XMLID_41_" class="st0" d="M73.3,104.3c0-0.1,0-0.3,0-0.5c0-0.2,0-0.4,0-0.6c0-0.2,0-0.4,0-0.6c0-0.2,0-0.3,0-0.4h1
		c0,0.3,0,0.6,0,0.8c0,0.3,0,0.4,0,0.5h0c0.2-0.4,0.5-0.8,1-1.1c0.5-0.3,1-0.5,1.6-0.5c0.6,0,1.1,0.1,1.5,0.3
		c0.4,0.2,0.7,0.4,0.9,0.7c0.2,0.3,0.4,0.7,0.4,1.1c0.1,0.4,0.1,0.8,0.1,1.2v4.6h-1v-4.5c0-0.3,0-0.6-0.1-0.9
		c-0.1-0.3-0.2-0.6-0.3-0.8c-0.1-0.2-0.3-0.4-0.6-0.6c-0.2-0.1-0.6-0.2-1-0.2c-0.4,0-0.7,0.1-1,0.2c-0.3,0.1-0.6,0.3-0.8,0.6
		c-0.2,0.3-0.4,0.6-0.6,1s-0.2,0.9-0.2,1.4v3.8h-1V104.3z"/>
	<path id="XMLID_43_" class="st0" d="M86.1,105.8c0-0.6,0.1-1.2,0.3-1.7c0.2-0.5,0.5-1,1-1.3c0.4-0.4,0.9-0.7,1.4-0.9
		c0.5-0.2,1.1-0.3,1.7-0.3c0.6,0,1.2,0.1,1.7,0.3c0.5,0.2,1,0.5,1.4,0.9s0.7,0.8,1,1.3c0.2,0.5,0.3,1.1,0.3,1.7
		c0,0.6-0.1,1.2-0.3,1.7c-0.2,0.5-0.6,1-1,1.3s-0.9,0.7-1.4,0.9c-0.5,0.2-1.1,0.3-1.7,0.3c-0.6,0-1.2-0.1-1.7-0.3
		c-0.5-0.2-1-0.5-1.4-0.9c-0.4-0.4-0.7-0.8-1-1.3C86.2,107,86.1,106.4,86.1,105.8z M88.6,105.8c0,0.6,0.2,1.1,0.5,1.5
		c0.3,0.4,0.8,0.6,1.5,0.6c0.6,0,1.1-0.2,1.5-0.6c0.3-0.4,0.5-0.9,0.5-1.5c0-0.6-0.2-1.1-0.5-1.5c-0.3-0.4-0.8-0.6-1.5-0.6
		c-0.6,0-1.1,0.2-1.5,0.6C88.7,104.7,88.6,105.2,88.6,105.8z"/>
	<path id="XMLID_46_" class="st0" d="M96.7,102.2h1v1.3h0c0.2-0.3,0.3-0.5,0.6-0.7c0.2-0.2,0.5-0.4,0.8-0.5c0.3-0.1,0.6-0.2,0.9-0.3
		c0.3-0.1,0.6-0.1,0.9-0.1c0.6,0,1.1,0.1,1.6,0.3c0.5,0.2,0.9,0.5,1.3,0.8c0.4,0.4,0.6,0.8,0.8,1.3c0.2,0.5,0.3,1,0.3,1.6
		c0,0.6-0.1,1.1-0.3,1.6c-0.2,0.5-0.5,0.9-0.8,1.3c-0.4,0.4-0.8,0.6-1.3,0.8c-0.5,0.2-1,0.3-1.6,0.3c-0.3,0-0.6,0-0.9-0.1
		c-0.3-0.1-0.6-0.2-0.9-0.3c-0.3-0.1-0.5-0.3-0.8-0.5c-0.2-0.2-0.4-0.4-0.6-0.7h0v5.1h-1V102.2z M97.6,106c0,0.4,0.1,0.8,0.2,1.2
		s0.4,0.7,0.7,1c0.3,0.3,0.6,0.5,1,0.7c0.4,0.2,0.8,0.2,1.3,0.2c0.5,0,0.9-0.1,1.3-0.2c0.4-0.2,0.7-0.4,1-0.7c0.3-0.3,0.5-0.6,0.6-1
		c0.1-0.4,0.2-0.8,0.2-1.2s-0.1-0.8-0.2-1.2c-0.1-0.4-0.3-0.7-0.6-1c-0.3-0.3-0.6-0.5-1-0.7c-0.4-0.2-0.8-0.2-1.3-0.2
		c-0.5,0-0.9,0.1-1.3,0.2c-0.4,0.2-0.7,0.4-1,0.7c-0.3,0.3-0.5,0.6-0.7,1S97.6,105.6,97.6,106z"/>
	<path id="XMLID_49_" class="st0" d="M110.8,103.1h-2.2v5c0,0.3,0.1,0.6,0.3,0.8c0.2,0.2,0.4,0.3,0.8,0.3c0.2,0,0.4,0,0.6-0.1
		c0.2-0.1,0.4-0.1,0.6-0.2l0.1,0.9c-0.2,0.1-0.4,0.1-0.6,0.2c-0.2,0.1-0.5,0.1-0.6,0.1c-0.4,0-0.7-0.1-0.9-0.2
		c-0.3-0.1-0.5-0.2-0.6-0.4c-0.2-0.2-0.3-0.4-0.3-0.6c-0.1-0.2-0.1-0.5-0.1-0.8v-5H106v-0.9h1.7V100h1v2.2h2.2V103.1z"/>
	<path id="XMLID_51_" class="st0" d="M112.5,99.1c0-0.2,0.1-0.4,0.2-0.5s0.3-0.2,0.5-0.2c0.2,0,0.4,0.1,0.5,0.2s0.2,0.3,0.2,0.5
		c0,0.2-0.1,0.4-0.2,0.5c-0.1,0.1-0.3,0.2-0.5,0.2c-0.2,0-0.4-0.1-0.5-0.2C112.6,99.5,112.5,99.3,112.5,99.1z M112.8,102.2h1v7.7h-1
		V102.2z"/>
	<path id="XMLID_54_" class="st0" d="M116.6,104.3c0-0.1,0-0.3,0-0.5c0-0.2,0-0.4,0-0.6c0-0.2,0-0.4,0-0.6c0-0.2,0-0.3,0-0.4h1
		c0,0.3,0,0.6,0,0.8c0,0.3,0,0.4,0,0.5h0c0.2-0.4,0.5-0.8,1-1.1c0.5-0.3,1-0.5,1.6-0.5c0.5,0,1,0.1,1.4,0.4s0.7,0.7,0.9,1.3
		c0.2-0.6,0.6-1,1.1-1.3c0.5-0.3,1-0.4,1.5-0.4c0.6,0,1.1,0.1,1.5,0.3c0.4,0.2,0.7,0.4,0.9,0.7c0.2,0.3,0.4,0.7,0.4,1.1
		c0.1,0.4,0.1,0.8,0.1,1.2v4.6h-1v-4.5c0-0.3,0-0.6-0.1-0.9c-0.1-0.3-0.2-0.6-0.3-0.8c-0.1-0.2-0.3-0.4-0.6-0.6
		c-0.2-0.1-0.6-0.2-1-0.2c-0.5,0-0.8,0.1-1.1,0.3c-0.3,0.2-0.5,0.4-0.7,0.7c-0.2,0.3-0.3,0.6-0.4,0.9c-0.1,0.3-0.1,0.6-0.1,0.9v4.3
		h-1v-4.6c0-0.7-0.1-1.3-0.4-1.7c-0.3-0.4-0.7-0.6-1.2-0.6c-0.4,0-0.7,0.1-1,0.2c-0.3,0.1-0.6,0.3-0.8,0.6c-0.2,0.3-0.4,0.6-0.6,1
		s-0.2,0.9-0.2,1.4v3.8h-1V104.3z"/>
	<path id="XMLID_56_" class="st0" d="M130.6,99.1c0-0.2,0.1-0.4,0.2-0.5s0.3-0.2,0.5-0.2c0.2,0,0.4,0.1,0.5,0.2s0.2,0.3,0.2,0.5
		c0,0.2-0.1,0.4-0.2,0.5c-0.1,0.1-0.3,0.2-0.5,0.2c-0.2,0-0.4-0.1-0.5-0.2C130.7,99.5,130.6,99.3,130.6,99.1z M130.9,102.2h1v7.7h-1
		V102.2z"/>
	<path id="XMLID_59_" class="st0" d="M133.8,109.2l4.6-6.2H134v-0.9h5.7v0.6l-4.6,6.2h4.8v0.9h-6.2V109.2z"/>
	<path id="XMLID_61_" class="st0" d="M148.5,108.4c-0.4,0.6-0.9,1-1.4,1.3s-1.2,0.4-1.9,0.4c-0.6,0-1.1-0.1-1.6-0.3
		c-0.5-0.2-0.9-0.5-1.2-0.8c-0.3-0.4-0.6-0.8-0.8-1.3c-0.2-0.5-0.3-1-0.3-1.6c0-0.6,0.1-1.1,0.3-1.6s0.5-0.9,0.8-1.3
		c0.3-0.4,0.7-0.6,1.2-0.8c0.5-0.2,1-0.3,1.5-0.3c0.6,0,1.1,0.1,1.5,0.3c0.4,0.2,0.8,0.5,1.1,0.8c0.3,0.3,0.5,0.7,0.7,1.2
		c0.2,0.4,0.2,0.9,0.2,1.3v0.7h-6.4c0,0.2,0,0.5,0.1,0.8c0.1,0.3,0.2,0.6,0.5,1c0.2,0.3,0.5,0.6,0.9,0.8c0.4,0.2,0.8,0.3,1.4,0.3
		c0.5,0,1-0.1,1.5-0.4c0.5-0.2,0.8-0.6,1.1-1L148.5,108.4z M147.8,105.4c0-0.3-0.1-0.7-0.2-1s-0.3-0.6-0.6-0.8
		c-0.2-0.2-0.5-0.4-0.8-0.5c-0.3-0.1-0.7-0.2-1-0.2c-0.5,0-1,0.1-1.4,0.3s-0.6,0.5-0.9,0.8c-0.2,0.3-0.4,0.6-0.4,0.8
		c-0.1,0.3-0.1,0.5-0.1,0.6H147.8z"/>
	<path id="XMLID_64_" class="st0" d="M157.7,108.5L157.7,108.5c-0.2,0.3-0.4,0.5-0.6,0.7c-0.2,0.2-0.5,0.4-0.8,0.5
		c-0.3,0.1-0.6,0.2-0.9,0.3c-0.3,0.1-0.6,0.1-0.9,0.1c-0.6,0-1.1-0.1-1.6-0.3c-0.5-0.2-0.9-0.5-1.3-0.8c-0.4-0.4-0.6-0.8-0.8-1.3
		c-0.2-0.5-0.3-1-0.3-1.6c0-0.6,0.1-1.1,0.3-1.6c0.2-0.5,0.5-0.9,0.8-1.3c0.4-0.4,0.8-0.6,1.3-0.8c0.5-0.2,1-0.3,1.6-0.3
		c0.3,0,0.6,0,0.9,0.1c0.3,0.1,0.6,0.2,0.9,0.3s0.5,0.3,0.8,0.5c0.2,0.2,0.4,0.4,0.6,0.7h0v-6.2h1v12.5h-1V108.5z M157.8,106
		c0-0.4-0.1-0.8-0.2-1.2c-0.2-0.4-0.4-0.7-0.7-1c-0.3-0.3-0.6-0.5-1-0.7c-0.4-0.2-0.8-0.2-1.3-0.2c-0.5,0-0.9,0.1-1.3,0.2
		c-0.4,0.2-0.7,0.4-1,0.7c-0.3,0.3-0.5,0.6-0.6,1s-0.2,0.8-0.2,1.2s0.1,0.8,0.2,1.2s0.3,0.7,0.6,1c0.3,0.3,0.6,0.5,1,0.7
		c0.4,0.2,0.8,0.2,1.3,0.2c0.5,0,0.9-0.1,1.3-0.2c0.4-0.2,0.7-0.4,1-0.7c0.3-0.3,0.5-0.6,0.7-1C157.7,106.8,157.8,106.4,157.8,106z"
		/>
	<path id="XMLID_67_" class="st0" d="M172.6,108.4c-0.4,0.5-0.9,0.9-1.5,1.2c-0.6,0.3-1.2,0.4-1.9,0.4c-0.6,0-1.2-0.1-1.7-0.3
		c-0.5-0.2-1-0.5-1.4-0.9c-0.4-0.4-0.7-0.8-1-1.3c-0.2-0.5-0.3-1.1-0.3-1.7c0-0.6,0.1-1.2,0.3-1.7c0.2-0.5,0.5-1,1-1.3
		c0.4-0.4,0.9-0.7,1.4-0.9c0.5-0.2,1.1-0.3,1.7-0.3c0.6,0,1.1,0.1,1.6,0.3c0.5,0.2,0.9,0.5,1.2,0.9s0.6,0.8,0.8,1.3
		c0.2,0.5,0.3,1.1,0.3,1.7v0.8h-5.8c0.1,0.5,0.3,0.9,0.6,1.1c0.3,0.3,0.7,0.4,1.2,0.4c0.4,0,0.8-0.1,1-0.3s0.5-0.4,0.7-0.7
		L172.6,108.4z M170.5,104.9c0-0.4-0.1-0.8-0.4-1.1s-0.7-0.4-1.1-0.4c-0.3,0-0.5,0-0.7,0.1c-0.2,0.1-0.4,0.2-0.5,0.3
		c-0.1,0.1-0.3,0.3-0.3,0.5c-0.1,0.2-0.1,0.4-0.1,0.6H170.5z"/>
	<path id="XMLID_70_" class="st0" d="M174.9,104.3c0-0.1,0-0.3,0-0.5c0-0.2,0-0.4,0-0.6c0-0.2,0-0.4,0-0.6c0-0.2,0-0.3,0-0.4h1
		c0,0.3,0,0.6,0,0.8c0,0.3,0,0.4,0,0.5h0c0.2-0.4,0.5-0.8,1-1.1c0.5-0.3,1-0.5,1.6-0.5c0.6,0,1.1,0.1,1.5,0.3
		c0.4,0.2,0.7,0.4,0.9,0.7c0.2,0.3,0.4,0.7,0.4,1.1c0.1,0.4,0.1,0.8,0.1,1.2v4.6h-1v-4.5c0-0.3,0-0.6-0.1-0.9s-0.2-0.6-0.3-0.8
		c-0.1-0.2-0.3-0.4-0.6-0.6c-0.2-0.1-0.6-0.2-1-0.2c-0.4,0-0.7,0.1-1,0.2s-0.6,0.3-0.8,0.6c-0.2,0.3-0.4,0.6-0.6,1s-0.2,0.9-0.2,1.4
		v3.8h-1V104.3z"/>
	<path id="XMLID_72_" class="st0" d="M191.8,109.3c0,1-0.1,1.7-0.4,2.3c-0.3,0.6-0.6,1-1,1.4c-0.4,0.3-0.9,0.5-1.3,0.6
		c-0.5,0.1-0.9,0.2-1.3,0.2c-0.4,0-0.8,0-1.1-0.1c-0.4-0.1-0.7-0.2-1.1-0.3c-0.3-0.1-0.6-0.3-0.9-0.5c-0.3-0.2-0.5-0.4-0.7-0.7
		l0.8-0.7c0.4,0.5,0.8,0.9,1.3,1.1c0.5,0.2,1.1,0.3,1.7,0.3c0.5,0,0.9-0.1,1.3-0.2c0.3-0.1,0.6-0.3,0.9-0.5c0.2-0.2,0.4-0.5,0.5-0.7
		s0.2-0.5,0.3-0.8s0.1-0.5,0.1-0.7c0-0.2,0-0.4,0-0.6v-1.1h0c-0.3,0.5-0.7,0.8-1.2,1.1c-0.5,0.3-1.1,0.4-1.7,0.4
		c-0.6,0-1.1-0.1-1.6-0.3c-0.5-0.2-0.9-0.5-1.3-0.8c-0.4-0.4-0.7-0.8-0.9-1.3c-0.2-0.5-0.3-1-0.3-1.5s0.1-1,0.3-1.5
		c0.2-0.5,0.5-0.9,0.9-1.2c0.4-0.4,0.8-0.6,1.3-0.8c0.5-0.2,1-0.3,1.6-0.3c0.7,0,1.2,0.1,1.7,0.4c0.5,0.3,0.9,0.6,1.2,1.1h0v-1.3h1
		V109.3z M190.9,105.9c0-0.4-0.1-0.8-0.2-1.2c-0.2-0.4-0.4-0.7-0.6-1c-0.3-0.3-0.6-0.5-1-0.6s-0.8-0.2-1.2-0.2s-0.8,0.1-1.2,0.2
		c-0.4,0.2-0.7,0.4-1,0.6c-0.3,0.3-0.5,0.6-0.6,1c-0.2,0.4-0.2,0.8-0.2,1.2c0,0.4,0.1,0.8,0.2,1.2c0.2,0.4,0.4,0.7,0.6,1
		c0.3,0.3,0.6,0.5,1,0.6c0.4,0.2,0.8,0.2,1.2,0.2s0.8-0.1,1.2-0.2s0.7-0.4,1-0.6s0.5-0.6,0.6-1S190.9,106.3,190.9,105.9z"/>
	<path id="XMLID_75_" class="st0" d="M194.2,99.1c0-0.2,0.1-0.4,0.2-0.5s0.3-0.2,0.5-0.2s0.4,0.1,0.5,0.2c0.1,0.1,0.2,0.3,0.2,0.5
		c0,0.2-0.1,0.4-0.2,0.5c-0.1,0.1-0.3,0.2-0.5,0.2s-0.4-0.1-0.5-0.2C194.3,99.5,194.2,99.3,194.2,99.1z M194.4,102.2h1v7.7h-1V102.2
		z"/>
	<path id="XMLID_78_" class="st0" d="M198.3,104.3c0-0.1,0-0.3,0-0.5c0-0.2,0-0.4,0-0.6c0-0.2,0-0.4,0-0.6c0-0.2,0-0.3,0-0.4h1
		c0,0.3,0,0.6,0,0.8c0,0.3,0,0.4,0,0.5h0c0.2-0.4,0.5-0.8,1-1.1c0.5-0.3,1-0.5,1.6-0.5c0.6,0,1.1,0.1,1.5,0.3
		c0.4,0.2,0.7,0.4,0.9,0.7c0.2,0.3,0.4,0.7,0.4,1.1c0.1,0.4,0.1,0.8,0.1,1.2v4.6h-1v-4.5c0-0.3,0-0.6-0.1-0.9s-0.2-0.6-0.3-0.8
		c-0.1-0.2-0.3-0.4-0.6-0.6c-0.2-0.1-0.6-0.2-1-0.2c-0.4,0-0.7,0.1-1,0.2s-0.6,0.3-0.8,0.6c-0.2,0.3-0.4,0.6-0.6,1s-0.2,0.9-0.2,1.4
		v3.8h-1V104.3z"/>
	<path id="XMLID_80_" class="st0" d="M214.2,108.4c-0.4,0.6-0.9,1-1.4,1.3s-1.2,0.4-1.9,0.4c-0.6,0-1.1-0.1-1.6-0.3
		c-0.5-0.2-0.9-0.5-1.2-0.8s-0.6-0.8-0.8-1.3c-0.2-0.5-0.3-1-0.3-1.6c0-0.6,0.1-1.1,0.3-1.6c0.2-0.5,0.5-0.9,0.8-1.3
		s0.7-0.6,1.2-0.8c0.5-0.2,1-0.3,1.5-0.3c0.6,0,1.1,0.1,1.5,0.3c0.4,0.2,0.8,0.5,1.1,0.8c0.3,0.3,0.5,0.7,0.7,1.2
		c0.2,0.4,0.2,0.9,0.2,1.3v0.7H208c0,0.2,0,0.5,0.1,0.8c0.1,0.3,0.2,0.6,0.5,1c0.2,0.3,0.5,0.6,0.9,0.8c0.4,0.2,0.8,0.3,1.4,0.3
		c0.5,0,1-0.1,1.5-0.4c0.5-0.2,0.8-0.6,1.1-1L214.2,108.4z M213.5,105.4c0-0.3-0.1-0.7-0.2-1c-0.1-0.3-0.3-0.6-0.6-0.8
		c-0.2-0.2-0.5-0.4-0.8-0.5s-0.7-0.2-1-0.2c-0.5,0-1,0.1-1.4,0.3s-0.6,0.5-0.9,0.8c-0.2,0.3-0.4,0.6-0.4,0.8
		c-0.1,0.3-0.1,0.5-0.1,0.6H213.5z"/>
	<path id="XMLID_83_" class="st0" d="M223.5,108.4c-0.4,0.6-0.9,1-1.4,1.3s-1.2,0.4-1.9,0.4c-0.6,0-1.1-0.1-1.6-0.3
		c-0.5-0.2-0.9-0.5-1.2-0.8s-0.6-0.8-0.8-1.3c-0.2-0.5-0.3-1-0.3-1.6c0-0.6,0.1-1.1,0.3-1.6c0.2-0.5,0.5-0.9,0.8-1.3
		s0.7-0.6,1.2-0.8c0.5-0.2,1-0.3,1.5-0.3c0.6,0,1.1,0.1,1.5,0.3c0.4,0.2,0.8,0.5,1.1,0.8c0.3,0.3,0.5,0.7,0.7,1.2
		c0.2,0.4,0.2,0.9,0.2,1.3v0.7h-6.4c0,0.2,0,0.5,0.1,0.8c0.1,0.3,0.2,0.6,0.5,1c0.2,0.3,0.5,0.6,0.9,0.8c0.4,0.2,0.8,0.3,1.4,0.3
		c0.5,0,1-0.1,1.5-0.4c0.5-0.2,0.8-0.6,1.1-1L223.5,108.4z M222.7,105.4c0-0.3-0.1-0.7-0.2-1c-0.1-0.3-0.3-0.6-0.6-0.8
		c-0.2-0.2-0.5-0.4-0.8-0.5s-0.7-0.2-1-0.2c-0.5,0-1,0.1-1.4,0.3s-0.6,0.5-0.9,0.8c-0.2,0.3-0.4,0.6-0.4,0.8
		c-0.1,0.3-0.1,0.5-0.1,0.6H222.7z"/>
	<path id="XMLID_86_" class="st0" d="M225.9,104.3c0-0.1,0-0.3,0-0.5c0-0.2,0-0.4,0-0.6c0-0.2,0-0.4,0-0.6c0-0.2,0-0.3,0-0.4h1
		c0,0.3,0,0.6,0,0.8c0,0.3,0,0.4,0,0.5c0.3-0.5,0.6-0.8,1-1.1c0.4-0.3,0.9-0.4,1.5-0.4c0.1,0,0.2,0,0.3,0s0.2,0,0.3,0.1l-0.1,1
		c-0.1,0-0.3-0.1-0.4-0.1c-0.4,0-0.8,0.1-1.1,0.2c-0.3,0.1-0.6,0.3-0.8,0.6c-0.2,0.2-0.4,0.5-0.5,0.9s-0.1,0.7-0.1,1.1v4.2h-1V104.3
		z"/>
	<path id="XMLID_88_" class="st0" d="M237.9,108.4c-0.4,0.6-0.9,1-1.4,1.3s-1.2,0.4-1.9,0.4c-0.6,0-1.1-0.1-1.6-0.3
		c-0.5-0.2-0.9-0.5-1.2-0.8s-0.6-0.8-0.8-1.3c-0.2-0.5-0.3-1-0.3-1.6c0-0.6,0.1-1.1,0.3-1.6c0.2-0.5,0.5-0.9,0.8-1.3
		s0.7-0.6,1.2-0.8c0.5-0.2,1-0.3,1.5-0.3c0.6,0,1.1,0.1,1.5,0.3c0.4,0.2,0.8,0.5,1.1,0.8c0.3,0.3,0.5,0.7,0.7,1.2
		c0.2,0.4,0.2,0.9,0.2,1.3v0.7h-6.4c0,0.2,0,0.5,0.1,0.8c0.1,0.3,0.2,0.6,0.5,1c0.2,0.3,0.5,0.6,0.9,0.8c0.4,0.2,0.8,0.3,1.4,0.3
		c0.5,0,1-0.1,1.5-0.4c0.5-0.2,0.8-0.6,1.1-1L237.9,108.4z M237.1,105.4c0-0.3-0.1-0.7-0.2-1c-0.1-0.3-0.3-0.6-0.6-0.8
		c-0.2-0.2-0.5-0.4-0.8-0.5s-0.7-0.2-1-0.2c-0.5,0-1,0.1-1.4,0.3s-0.6,0.5-0.9,0.8c-0.2,0.3-0.4,0.6-0.4,0.8
		c-0.1,0.3-0.1,0.5-0.1,0.6H237.1z"/>
	<path id="XMLID_91_" class="st0" d="M247.1,108.5L247.1,108.5c-0.2,0.3-0.4,0.5-0.6,0.7c-0.2,0.2-0.5,0.4-0.8,0.5
		c-0.3,0.1-0.6,0.2-0.9,0.3c-0.3,0.1-0.6,0.1-0.9,0.1c-0.6,0-1.1-0.1-1.6-0.3c-0.5-0.2-0.9-0.5-1.3-0.8s-0.6-0.8-0.8-1.3
		c-0.2-0.5-0.3-1-0.3-1.6c0-0.6,0.1-1.1,0.3-1.6c0.2-0.5,0.5-0.9,0.8-1.3s0.8-0.6,1.3-0.8c0.5-0.2,1-0.3,1.6-0.3
		c0.3,0,0.6,0,0.9,0.1c0.3,0.1,0.6,0.2,0.9,0.3c0.3,0.1,0.5,0.3,0.8,0.5c0.2,0.2,0.4,0.4,0.6,0.7h0v-6.2h1v12.5h-1V108.5z
		 M247.2,106c0-0.4-0.1-0.8-0.2-1.2c-0.2-0.4-0.4-0.7-0.7-1c-0.3-0.3-0.6-0.5-1-0.7c-0.4-0.2-0.8-0.2-1.3-0.2
		c-0.5,0-0.9,0.1-1.3,0.2c-0.4,0.2-0.7,0.4-1,0.7c-0.3,0.3-0.5,0.6-0.6,1c-0.1,0.4-0.2,0.8-0.2,1.2s0.1,0.8,0.2,1.2
		c0.1,0.4,0.3,0.7,0.6,1c0.3,0.3,0.6,0.5,1,0.7c0.4,0.2,0.8,0.2,1.3,0.2c0.5,0,0.9-0.1,1.3-0.2c0.4-0.2,0.7-0.4,1-0.7
		c0.3-0.3,0.5-0.6,0.7-1C247.1,106.8,247.2,106.4,247.2,106z"/>
	<path id="XMLID_94_" class="st0" d="M254.3,101.8h2.4v1.1h0c0.1-0.2,0.2-0.3,0.3-0.5s0.3-0.3,0.5-0.4c0.2-0.1,0.4-0.2,0.7-0.3
		c0.3-0.1,0.5-0.1,0.8-0.1c0.6,0,1.1,0.1,1.5,0.3c0.4,0.2,0.8,0.6,1,1.1c0.3-0.5,0.6-0.9,1-1.1c0.4-0.2,0.9-0.3,1.5-0.3
		c0.5,0,1,0.1,1.4,0.3c0.4,0.2,0.7,0.4,0.9,0.7c0.2,0.3,0.4,0.7,0.5,1.1c0.1,0.4,0.1,0.9,0.1,1.4v4.8h-2.5v-4.7c0-0.4-0.1-0.7-0.2-1
		s-0.4-0.4-0.9-0.4c-0.3,0-0.5,0-0.7,0.1s-0.3,0.2-0.5,0.4s-0.2,0.4-0.2,0.6c0,0.2-0.1,0.5-0.1,0.7v4.3h-2.5v-4.3c0-0.1,0-0.3,0-0.5
		c0-0.2,0-0.4-0.1-0.6c-0.1-0.2-0.2-0.3-0.3-0.5c-0.1-0.1-0.4-0.2-0.7-0.2c-0.3,0-0.6,0.1-0.8,0.2c-0.2,0.1-0.4,0.3-0.5,0.5
		c-0.1,0.2-0.2,0.4-0.2,0.7c0,0.2,0,0.5,0,0.8v4h-2.5V101.8z"/>
	<path id="XMLID_96_" class="st0" d="M275.2,106.6c0,0.4,0,0.7,0,1c0,0.3,0,0.6,0,0.8s0,0.5,0,0.7s0,0.4,0.1,0.7h-0.9
		c-0.1-0.4-0.1-0.8-0.1-1.2h0c-0.3,0.5-0.6,0.9-1.1,1.1c-0.4,0.2-1,0.3-1.6,0.3c-0.3,0-0.7,0-1-0.1c-0.3-0.1-0.6-0.2-0.9-0.4
		c-0.3-0.2-0.5-0.4-0.6-0.7c-0.2-0.3-0.2-0.6-0.2-1c0-0.6,0.1-1,0.4-1.4c0.3-0.3,0.7-0.6,1.1-0.8s0.9-0.3,1.4-0.3
		c0.5-0.1,0.9-0.1,1.3-0.1h1.2v-0.5c0-0.7-0.2-1.1-0.6-1.4s-0.9-0.4-1.5-0.4c-0.9,0-1.7,0.3-2.3,0.9l-0.6-0.7
		c0.4-0.4,0.8-0.6,1.4-0.8c0.5-0.2,1.1-0.3,1.6-0.3c0.9,0,1.7,0.2,2.2,0.7c0.6,0.4,0.8,1.1,0.8,2.1V106.6z M273.2,106
		c-0.4,0-0.8,0-1.2,0.1s-0.7,0.1-1.1,0.3c-0.3,0.1-0.6,0.3-0.8,0.5c-0.2,0.2-0.3,0.5-0.3,0.8c0,0.2,0.1,0.4,0.2,0.6
		c0.1,0.2,0.2,0.3,0.4,0.4c0.2,0.1,0.4,0.2,0.6,0.3c0.2,0.1,0.4,0.1,0.6,0.1c0.5,0,1-0.1,1.3-0.2c0.3-0.2,0.6-0.4,0.8-0.6
		c0.2-0.2,0.3-0.5,0.4-0.8c0.1-0.3,0.1-0.6,0.1-1V106H273.2z"/>
	<path id="XMLID_99_" class="st0" d="M281.6,103.1h-2.2v5c0,0.3,0.1,0.6,0.3,0.8c0.2,0.2,0.4,0.3,0.8,0.3c0.2,0,0.4,0,0.6-0.1
		c0.2-0.1,0.4-0.1,0.6-0.2l0.1,0.9c-0.2,0.1-0.4,0.1-0.6,0.2c-0.2,0.1-0.5,0.1-0.6,0.1c-0.4,0-0.7-0.1-0.9-0.2
		c-0.3-0.1-0.5-0.2-0.6-0.4c-0.2-0.2-0.3-0.4-0.3-0.6c-0.1-0.2-0.1-0.5-0.1-0.8v-5h-1.7v-0.9h1.7V100h1v2.2h2.2V103.1z"/>
	<path id="XMLID_101_" class="st0" d="M290.1,108.4c-0.4,0.6-0.9,1-1.4,1.3s-1.2,0.4-1.9,0.4c-0.6,0-1.1-0.1-1.6-0.3
		c-0.5-0.2-0.9-0.5-1.2-0.8s-0.6-0.8-0.8-1.3c-0.2-0.5-0.3-1-0.3-1.6c0-0.6,0.1-1.1,0.3-1.6c0.2-0.5,0.5-0.9,0.8-1.3
		s0.7-0.6,1.2-0.8c0.5-0.2,1-0.3,1.5-0.3c0.6,0,1.1,0.1,1.5,0.3c0.4,0.2,0.8,0.5,1.1,0.8c0.3,0.3,0.5,0.7,0.7,1.2
		c0.2,0.4,0.2,0.9,0.2,1.3v0.7h-6.4c0,0.2,0,0.5,0.1,0.8c0.1,0.3,0.2,0.6,0.5,1c0.2,0.3,0.5,0.6,0.9,0.8c0.4,0.2,0.8,0.3,1.4,0.3
		c0.5,0,1-0.1,1.5-0.4c0.5-0.2,0.8-0.6,1.1-1L290.1,108.4z M289.3,105.4c0-0.3-0.1-0.7-0.2-1c-0.1-0.3-0.3-0.6-0.6-0.8
		c-0.2-0.2-0.5-0.4-0.8-0.5s-0.7-0.2-1-0.2c-0.5,0-1,0.1-1.4,0.3s-0.6,0.5-0.9,0.8c-0.2,0.3-0.4,0.6-0.4,0.8
		c-0.1,0.3-0.1,0.5-0.1,0.6H289.3z"/>
	<path id="XMLID_104_" class="st0" d="M292.6,104.3c0-0.1,0-0.3,0-0.5c0-0.2,0-0.4,0-0.6c0-0.2,0-0.4,0-0.6c0-0.2,0-0.3,0-0.4h1
		c0,0.3,0,0.6,0,0.8c0,0.3,0,0.4,0,0.5c0.3-0.5,0.6-0.8,1-1.1c0.4-0.3,0.9-0.4,1.5-0.4c0.1,0,0.2,0,0.3,0s0.2,0,0.3,0.1l-0.1,1
		c-0.1,0-0.3-0.1-0.4-0.1c-0.4,0-0.8,0.1-1.1,0.2c-0.3,0.1-0.6,0.3-0.8,0.6c-0.2,0.2-0.4,0.5-0.5,0.9s-0.1,0.7-0.1,1.1v4.2h-1V104.3
		z"/>
	<path id="XMLID_106_" class="st0" d="M298,99.1c0-0.2,0.1-0.4,0.2-0.5s0.3-0.2,0.5-0.2s0.4,0.1,0.5,0.2c0.1,0.1,0.2,0.3,0.2,0.5
		c0,0.2-0.1,0.4-0.2,0.5c-0.1,0.1-0.3,0.2-0.5,0.2s-0.4-0.1-0.5-0.2C298.1,99.5,298,99.3,298,99.1z M298.3,102.2h1v7.7h-1V102.2z"/>
	<path id="XMLID_109_" class="st0" d="M308,106.6c0,0.4,0,0.7,0,1c0,0.3,0,0.6,0,0.8s0,0.5,0,0.7s0,0.4,0.1,0.7h-0.9
		c-0.1-0.4-0.1-0.8-0.1-1.2h0c-0.3,0.5-0.6,0.9-1.1,1.1c-0.4,0.2-1,0.3-1.6,0.3c-0.3,0-0.7,0-1-0.1c-0.3-0.1-0.6-0.2-0.9-0.4
		c-0.3-0.2-0.5-0.4-0.6-0.7c-0.2-0.3-0.2-0.6-0.2-1c0-0.6,0.1-1,0.4-1.4c0.3-0.3,0.7-0.6,1.1-0.8s0.9-0.3,1.4-0.3
		c0.5-0.1,0.9-0.1,1.3-0.1h1.2v-0.5c0-0.7-0.2-1.1-0.6-1.4s-0.9-0.4-1.5-0.4c-0.9,0-1.7,0.3-2.3,0.9l-0.6-0.7
		c0.4-0.4,0.8-0.6,1.4-0.8c0.5-0.2,1.1-0.3,1.6-0.3c0.9,0,1.7,0.2,2.2,0.7c0.6,0.4,0.8,1.1,0.8,2.1V106.6z M306,106
		c-0.4,0-0.8,0-1.2,0.1s-0.7,0.1-1.1,0.3c-0.3,0.1-0.6,0.3-0.8,0.5c-0.2,0.2-0.3,0.5-0.3,0.8c0,0.2,0.1,0.4,0.2,0.6
		c0.1,0.2,0.2,0.3,0.4,0.4c0.2,0.1,0.4,0.2,0.6,0.3c0.2,0.1,0.4,0.1,0.6,0.1c0.5,0,1-0.1,1.3-0.2c0.3-0.2,0.6-0.4,0.8-0.6
		c0.2-0.2,0.3-0.5,0.4-0.8c0.1-0.3,0.1-0.6,0.1-1V106H306z"/>
	<path id="XMLID_112_" class="st0" d="M310.8,97.3h1v12.5h-1V97.3z"/>
	<path id="XMLID_114_" class="st0" d="M314.7,107.9c0.2,0.4,0.5,0.7,0.9,0.9s0.8,0.3,1.3,0.3c0.2,0,0.4,0,0.6-0.1s0.4-0.2,0.6-0.3
		c0.2-0.1,0.3-0.3,0.4-0.4c0.1-0.2,0.2-0.4,0.2-0.6c0-0.4-0.1-0.6-0.3-0.8s-0.5-0.3-0.8-0.4c-0.3-0.1-0.7-0.2-1.1-0.3
		c-0.4-0.1-0.8-0.2-1.1-0.3c-0.3-0.1-0.6-0.4-0.8-0.6s-0.3-0.6-0.3-1.1c0-0.4,0.1-0.7,0.2-1c0.2-0.3,0.4-0.5,0.6-0.7
		c0.2-0.2,0.5-0.3,0.8-0.4s0.6-0.1,0.9-0.1c0.6,0,1.2,0.1,1.6,0.3c0.5,0.2,0.8,0.6,1.1,1.1l-0.9,0.5c-0.2-0.4-0.4-0.6-0.7-0.8
		c-0.3-0.2-0.7-0.3-1.1-0.3c-0.2,0-0.4,0-0.6,0.1s-0.4,0.1-0.5,0.2c-0.2,0.1-0.3,0.2-0.4,0.4c-0.1,0.2-0.2,0.3-0.2,0.5
		c0,0.3,0.1,0.6,0.3,0.8s0.5,0.3,0.8,0.4c0.3,0.1,0.7,0.2,1.1,0.2c0.4,0.1,0.8,0.2,1.1,0.3c0.3,0.1,0.6,0.4,0.8,0.6
		c0.2,0.3,0.3,0.7,0.3,1.2c0,0.4-0.1,0.7-0.2,1c-0.1,0.3-0.4,0.5-0.6,0.7s-0.6,0.3-0.9,0.4c-0.3,0.1-0.7,0.1-1,0.1
		c-0.7,0-1.3-0.1-1.8-0.4s-1-0.6-1.3-1.2L314.7,107.9z"/>
</g>
</svg>
