<?xml version="1.0" encoding="utf-8"?>
<!-- Generator: Adobe Illustrator 19.0.0, SVG Export Plug-In . SVG Version: 6.00 Build 0)  -->
<svg version="1.1" id="Layer_1" xmlns="http://www.w3.org/2000/svg" xmlns:xlink="http://www.w3.org/1999/xlink" x="0px" y="0px"
	 viewBox="0 0 307.3 104.7" style="enable-background:new 0 0 307.3 104.7;" xml:space="preserve">
<style type="text/css">
	.st0{fill:#231F20;}
	.st1{fill:#FBB817;}
	.st2{fill:#3D5BA8;}
	.st3{fill:none;}
	.st4{fill:#EC1B30;}
	.st5{fill:#DFCB21;}
</style>
<path class="st0" d="M136.5,41.3c0-2.2,0.4-4.2,1.1-6c0.8-1.8,1.8-3.3,3.1-4.6c1.3-1.3,2.9-2.3,4.7-3c1.8-0.7,3.8-1.1,5.9-1.1
	c2.1,0,4.1,0.4,6,1.1c1.8,0.7,3.4,1.7,4.7,3c1.3,1.3,2.3,2.8,3.1,4.6c0.8,1.8,1.1,3.8,1.1,6c0,2.2-0.4,4.2-1.1,5.9
	c-0.8,1.8-1.8,3.3-3.1,4.6c-1.3,1.3-2.9,2.3-4.7,3c-1.8,0.7-3.8,1.1-6,1.1c-2.1,0-4.1-0.4-5.9-1.1c-1.8-0.7-3.4-1.7-4.7-3
	c-1.3-1.3-2.3-2.8-3.1-4.6C136.9,45.5,136.5,43.5,136.5,41.3z M141.5,41.3c0,1.5,0.2,2.8,0.7,4.1c0.5,1.2,1.1,2.3,2,3.3
	c0.9,0.9,1.9,1.7,3.1,2.2c1.2,0.5,2.6,0.8,4.1,0.8c1.5,0,2.9-0.3,4.1-0.8c1.2-0.5,2.3-1.3,3.1-2.2c0.9-0.9,1.5-2,2-3.3
	c0.5-1.2,0.7-2.6,0.7-4.1c0-1.5-0.2-2.8-0.7-4.1c-0.5-1.2-1.1-2.3-2-3.3c-0.9-0.9-1.9-1.7-3.1-2.2c-1.2-0.5-2.6-0.8-4.1-0.8
	c-1.5,0-2.9,0.3-4.1,0.8c-1.2,0.5-2.3,1.3-3.1,2.2c-0.9,0.9-1.5,2-2,3.3C141.8,38.5,141.5,39.9,141.5,41.3z"/>
<path class="st0" d="M225.2,50.3c-1.7,2.1-3.5,3.6-5.5,4.5c-2,0.9-4.3,1.3-6.9,1.3c-2.2,0-4.1-0.4-5.9-1.2c-1.7-0.8-3.2-1.8-4.4-3.1
	c-1.2-1.3-2.1-2.9-2.8-4.6c-0.7-1.8-1-3.7-1-5.7c0-2.1,0.4-4.1,1.1-5.9c0.7-1.8,1.7-3.4,3-4.6c1.3-1.3,2.8-2.3,4.5-3
	c1.7-0.7,3.6-1.1,5.7-1.1c1.9,0,3.7,0.3,5.4,1c1.6,0.7,3,1.6,4.2,2.9c1.2,1.2,2.1,2.8,2.7,4.6c0.6,1.8,1,3.9,1,6.2v1.5h-22.5
	c0.1,1.2,0.4,2.3,0.9,3.4c0.5,1.1,1.1,2,1.9,2.9c0.8,0.8,1.7,1.5,2.8,1.9c1.1,0.5,2.2,0.7,3.5,0.7c2,0,3.7-0.4,5.1-1.1
	c1.4-0.7,2.6-1.8,3.7-3.2L225.2,50.3z M221.2,39c-0.1-2.4-0.9-4.3-2.3-5.7c-1.5-1.4-3.5-2.1-6.1-2.1c-2.6,0-4.7,0.7-6.2,2.1
	c-1.6,1.4-2.5,3.3-2.9,5.7H221.2z"/>
<path d="M279.6,40.2c0,0.2,0,0.4,0,0.5v-0.3C279.6,40.3,279.6,40.3,279.6,40.2z"/>
<path d="M284.2,40.7c0-0.2,0-0.4,0-0.5c0,0.1,0,0.2,0,0.2V40.7z"/>
<path d="M302.7,34.6c-0.1-0.4-0.1-0.7-0.2-1.1c-0.1-0.3-0.2-0.6-0.3-0.9c-0.3-0.7-0.5-1.4-0.9-2c-0.2-0.3-0.3-0.5-0.5-0.7
	c-0.4-0.5-0.9-0.9-1.4-1.3c-0.6-0.4-1.2-0.8-1.9-1c0,0,0,0,0,0c-1.2-0.5-2.7-0.7-4.5-0.8c-0.2,0-0.3,0-0.5,0c-2.1,0-3.9,0.5-5.2,1.4
	c-1.3,0.9-2.5,2.2-3.6,3.9c0,0-0.7,1.2-1.5,2.7c-0.8-1.4-1.5-2.7-1.5-2.7c-1-1.7-2.2-3-3.6-3.9c-1.3-0.9-3.1-1.4-5.2-1.4
	c-2,0-3.6,0.3-5,0.8c-1.3,0.5-2.4,1.3-3.3,2.3c-0.8,1-1.4,2.2-1.8,3.7c-0.4,1.4-0.5,3.1-0.5,4.8v16.9h4.6V38.6c0-1,0.1-1.9,0.3-2.8
	c0.2-0.9,0.6-1.7,1.1-2.4c0.5-0.7,1.2-1.3,2.1-1.7c0.9-0.4,2-0.7,3.3-0.7c1,0,1.9,0.2,2.8,0.6c0.9,0.4,1.6,1,2.3,1.7
	c0.7,0.7,1.2,1.6,1.5,2.6c0.4,0.9,0.5,2,0.6,3.1c0,0.1,0,0.2,0,0.2v0.3v15.8h4.6V39.4v-0.3c0-0.1,0-0.2,0-0.2c0-1.1,0.2-2.2,0.6-3.1
	c0.4-1,0.9-1.9,1.5-2.6c0.7-0.7,1.4-1.3,2.3-1.7c0.9-0.4,1.8-0.6,2.8-0.6c1.3,0,2.5,0.2,3.3,0.7c0.9,0.4,1.6,1,2.1,1.7
	c0.5,0.7,0.9,1.5,1.1,2.4c0.2,0.9,0.3,1.8,0.3,2.8V66h4.6V38.3C303,37,302.9,35.7,302.7,34.6z"/>
<path class="st1" d="M151.8,17.7h1.1c13.3,0,24.7,10.1,27.9,22.7h3.5c-3.2-14.5-16.2-26.1-31.4-26.1h-1.1
	c-15.1,0-28.1,11.6-31.4,26.1h3.5C127.1,27.8,138.5,17.7,151.8,17.7z"/>
<path class="st1" d="M151,10.9h1.1c15.2,0,28.4,10.6,32.5,24.1h0.5c-3.4-14.5-17.1-26.1-33-26.1H151c-15.9,0-29.6,11.6-33,26.1h0.5
	C122.6,21.5,135.8,10.9,151,10.9z"/>
<path class="st1" d="M151.2,5.1h1.1c16.2,0,30.2,11.2,34,25.4h0.2C183.1,16,168.9,4.4,152.4,4.4h-1.1c-16.5,0-30.7,11.6-34.2,26.1
	h0.2C121.1,16.4,135,5.1,151.2,5.1z"/>
<path class="st2" d="M241.2,43.3c-1.8,14.2-14,24.9-28.3,25c-14.3-0.1-26.4-10.9-28.3-25c0,0,0-0.1,0-0.1h-3.4
	c0,0.2,0.1,0.4,0.1,0.6c2,15.2,14.3,26.8,29.5,27.9l2,0.1l0.3,0l1.9-0.1c15.2-1.1,27.6-12.7,29.5-27.9c0-0.2,0.1-0.4,0.1-0.6h-3.4
	C241.2,43.2,241.2,43.2,241.2,43.3z"/>
<path class="st2" d="M215.9,81.9l-2.1,0.1l-0.3,0l-2.3-0.1c-16.9-1.1-30.6-12.4-33.1-27.3h-0.2c0,0.2,0.1,0.4,0.1,0.6
	c2.2,15.2,16.1,26.8,33.2,27.9l2.3,0.1l0.3,0l2.1-0.1c17.1-1.1,31-12.7,33.2-27.9c0-0.2,0.1-0.4,0.1-0.6H249
	C246.5,69.5,232.8,80.8,215.9,81.9z"/>
<path class="st2" d="M215.1,75.8l-1.9,0.1l-0.3,0l-2.1-0.1c-15.2-1.1-27.7-12.4-30.4-27.4H180c0,0.2,0.1,0.4,0.1,0.6
	c2,15.8,14.8,27.8,30.6,28.9l2.1,0.1l0.3,0l1.9-0.1c15.8-1.1,28.5-13.2,30.6-28.9c0-0.2,0.1-0.4,0.1-0.6h-0.3
	C242.8,63.4,230.3,74.7,215.1,75.8z"/>
<path class="st3" d="M87.5,48.1c0.9,0.9,1.9,1.7,3.1,2.2c1.2,0.5,2.6,0.8,4.1,0.8c1.5,0,2.9-0.3,4.1-0.8c1.2-0.5,2.3-1.3,3.1-2.2
	c0.9-0.9,1.5-2,2-3.3c0.5-1.2,0.7-2.6,0.7-4.1c0-1.5-0.2-2.8-0.7-4.1c-0.5-1.2-1.1-2.3-2-3.3c-0.9-0.9-1.9-1.7-3.1-2.2
	c-1.2-0.5-2.6-0.8-4.1-0.8c-1.5,0-2.9,0.3-4.1,0.8c-1.2,0.5-2.3,1.3-3.1,2.2c-0.9,0.9-1.5,2-2,3.3c-0.5,1.2-0.7,2.6-0.7,4.1
	c0,1.5,0.2,2.8,0.7,4.1C85.9,46.1,86.6,47.2,87.5,48.1z"/>
<path d="M80.1,72.3L80.1,72.3C80.2,72.3,80.2,72.3,80.1,72.3C80.1,72.3,80.1,72.3,80.1,72.3z"/>
<path class="st4" d="M292.6,25c1.9,0,3.8,0.4,5.5,1c-6.1-6.7-14.7-11.7-23.9-11.7h-1.1c-15.1,0-28.1,11.6-31.4,26.1h3.5
	c3.2-12.6,14.6-22.7,27.9-22.7h1.1c6.6,0,12.9,3.2,17.9,7.3C292.2,25,292.4,25,292.6,25z"/>
<path class="st4" d="M273.2,11.8h1.1c8.6,0,16.7,3.9,22.8,9.5c-6.3-6.3-15-10.8-24.2-10.8h-1.1c-15.9,0-29.5,11.6-32.9,26.1h1.6
	C244.5,22.7,257.8,11.8,273.2,11.8z"/>
<path class="st4" d="M270.5,7.4h1.1c8.6,0,16.7,3.8,22.9,9.2c-6.3-5.7-14.6-9.7-23.4-9.7h-1.1c-16.1,0-29.9,11.6-33.3,26.1h0.7
	C240.9,18.7,254.6,7.4,270.5,7.4z"/>
<path d="M84.6,50.1h0.1c0.9,1.6,2.3,2.9,4.1,4c1.9,1.1,4.1,1.6,6.6,1.6c1.9,0,3.8-0.4,5.5-1.1c1.7-0.7,3.2-1.8,4.4-3.1
	s2.2-2.9,2.9-4.6c0.7-1.8,1.1-3.7,1.1-5.8c0-2.1-0.4-4-1.1-5.8c-0.7-1.8-1.7-3.3-3-4.6c-1.3-1.3-2.8-2.3-4.6-3.1
	c-1.8-0.7-3.8-1.1-6-1.1c-8,0-14.7,6.2-14.7,12.8c0,5,0,18.2,0,25.2c1.5,0.7,2.8,1.2,4.6,1.5V50.1z M85.3,37c0.5-1.2,1.1-2.3,2-3.3
	c0.9-0.9,1.9-1.7,3.1-2.2c1.2-0.5,2.6-0.8,4.1-0.8c1.5,0,2.9,0.3,4.1,0.8c1.2,0.5,2.3,1.3,3.1,2.2c0.9,0.9,1.5,2,2,3.3
	c0.5,1.2,0.7,2.6,0.7,4.1c0,1.5-0.2,2.8-0.7,4.1c-0.5,1.2-1.1,2.3-2,3.3c-0.9,0.9-1.9,1.7-3.1,2.2c-1.2,0.5-2.6,0.8-4.1,0.8
	c-1.5,0-2.9-0.3-4.1-0.8c-1.2-0.5-2.3-1.3-3.1-2.2c-0.9-0.9-1.5-2-2-3.3c-0.5-1.2-0.7-2.6-0.7-4.1C84.6,39.6,84.9,38.3,85.3,37z"/>
<path class="st2" d="M90.2,71.6l2,0.1l0.3,0l1.9-0.1c15.2-1.1,27.6-12.7,29.5-27.9c0-0.2,0.1-0.4,0.1-0.6h-3.4c0,0,0,0.1,0,0.1
	c-1.8,14.2-14,24.9-28.3,25C78,68.2,66,60.8,64.1,46.7c-0.4-2.8-1.4-6.6-2.5-9.5v11.5C65.4,61.4,76.6,70.7,90.2,71.6z"/>
<path class="st2" d="M128.3,54.5c-2.5,14.9-16.2,26.3-33.1,27.3L93.1,82l-0.3,0l-2.3-0.1c-11.8-0.8-20.7-7-26.7-15.5
	c-0.1-0.2-0.3-0.4-0.4-0.6c-0.1-0.1-0.2-0.3-0.3-0.4v1.7c0.6,0.5,1.1,1,1.8,1.9c0.3,0.4,0.6,0.8,0.9,1.1
	c6.1,7.1,14.1,12.2,24.6,12.9l2.3,0.1l0.3,0l2.1-0.1c17.1-1.1,31-12.7,33.2-27.9c0-0.2,0.1-0.4,0.1-0.6H128.3z"/>
<path class="st2" d="M90,77.9l2.1,0.1l0.3,0l1.9-0.1c15.8-1.1,28.5-13.2,30.6-28.9c0-0.2,0.1-0.4,0.1-0.6h-0.3
	c-2.6,15-15.1,26.3-30.4,27.4l-1.9,0.1l-0.3,0L90,75.8c-12.8-0.9-23.6-9.1-28.3-20.6v2.1C66.4,68.8,77.2,76.9,90,77.9z"/>
<path class="st3" d="M31.2,31.7h1c0.9,0,1.8,0.1,2.7,0.2V23c-1.1-0.1-2.2-0.2-3.3-0.2h-1.1c-0.3,0-0.7,0-1,0v9
	C30.2,31.8,30.7,31.7,31.2,31.7z"/>
<path class="st1" d="M59.6,36.6V14.9h-9.9v10.4C53.8,28.3,57.2,32.1,59.6,36.6z"/>
<path class="st5" d="M56.4,54.6h-0.2c0,0.2,0.1,0.4,0.1,0.6"/>
<path class="st2" d="M44.9,12.2H35v7.4c3.5,0.4,6.8,1.4,9.9,2.9V12.2z"/>
<path class="st4" d="M29.7,6.8h-9.9v14.7c3.1-1.2,6.5-1.9,9.9-2V6.8z"/>
<path class="st2" d="M14.1,24.4v-9.5H4.2v19.4C6.8,30.3,10.2,27,14.1,24.4z"/>
<path class="st3" d="M19.8,34.8c-2,1.1-3.9,2.4-5.7,4.1v2.5c1.8-1.6,3.7-3,5.7-4.1V34.8z"/>
<path class="st3" d="M29.7,31.8v2.5c0.5,0,1-0.1,1.6-0.1h1c0.9,0,1.8,0.1,2.7,0.2v-2.5v-1.9v0c-1-0.1-2-0.2-3-0.2h-1
	c-0.4,0-0.9,0-1.3,0.1v0.1V31.8z"/>
<rect x="44.9" y="31.3" class="st5" width="0" height="2"/>
<rect x="44.9" y="39.7" class="st5" width="0" height="0.7"/>
<path class="st3" d="M19.8,32.9v-0.5c-2,1-3.9,2.2-5.7,3.6v1v1.9v0c1.8-1.6,3.7-3,5.7-4.1V32.9z"/>
<path class="st3" d="M19.8,30.4v-5.2c-2,0.9-3.9,2-5.7,3.4V34C15.8,32.5,17.7,31.3,19.8,30.4z"/>
<path class="st3" d="M32.2,34.2h-1c-0.5,0-1,0.1-1.6,0.1v1.5c0.3,0,0.5,0,0.8,0h0.9c1.2,0,2.4,0.1,3.6,0.3v-1.7
	C34.1,34.2,33.2,34.2,32.2,34.2z"/>
<path class="st3" d="M35,47.8v-11c-1.2-0.2-2.4-0.3-3.6-0.3h-0.9c-0.3,0-0.5,0-0.8,0v11.4v1.9v4.4c1.1-0.1,2.2-0.2,3.4-0.2h1.1
	c0.3,0,0.6,0,0.9,0v-4.4V47.8z"/>
<path class="st3" d="M44.9,33.3v2.2c1.7,1,3.3,2.3,4.8,3.7v-2.5C48.2,35.4,46.6,34.3,44.9,33.3z"/>
<path class="st3" d="M49.7,29.7c-1.5-1.3-3.1-2.4-4.8-3.4v5c1.7,1,3.3,2.1,4.8,3.4V29.7z"/>
<path class="st3" d="M49.7,54.6V43.8c-1.5-1.3-3.1-2.4-4.8-3.4v15.5c1.7,0.6,3.3,1.4,4.8,2.2v-2.4V54.6z"/>
<path class="st3" d="M49.7,41.7c-1.5-1.4-3.1-2.7-4.8-3.7v1.7c1.7,1,3.3,2.1,4.8,3.4V41.7z"/>
<path class="st3" d="M19.8,50.6V39.1c-2,1-3.9,2.4-5.7,3.9v12.4v0.4V59v1.3c1.8-1.3,3.7-2.4,5.7-3.4v-4.4V50.6z"/>
<path class="st3" d="M19.8,37.3c-2,1.1-3.9,2.5-5.7,4.1v0.9c1.8-1.5,3.6-2.9,5.7-3.9V37.3z"/>
<path class="st1" d="M49.7,45.8v10.8v1.1v2.4v2.2h9.9v-2.1C57.7,54.6,54.1,49.6,49.7,45.8z"/>
<path class="st1" d="M59.6,57.5v-3.3c-2.4-5.9-5.8-11-9.9-14.9v2.4v1.4C54.1,46.9,57.7,51.9,59.6,57.5z"/>
<path class="st1" d="M49.7,36.7v2.5c4.1,3.9,7.6,9,9.9,14.9v-2.3C57.7,45.8,54.2,40.6,49.7,36.7z"/>
<path class="st1" d="M59.6,49.7v-4.2h0c-1.5-6.2-5.1-11.8-9.9-15.9v0v5C54.2,38.6,57.7,43.8,59.6,49.7z"/>
<path class="st2" d="M35,49.8v1.8v4.4v13.7h9.9V53.5v-1.8v-9.3c-3.1-1.8-6.5-3.1-9.9-3.6V49.8z"/>
<path class="st2" d="M44.9,26.3c-3-1.7-6.4-2.9-9.9-3.3v4.9c3.5,0.4,6.9,1.6,9.9,3.4V26.3z"/>
<path class="st2" d="M35,29.9v1.9v2.5V36c3.4,0.5,6.8,1.8,9.9,3.6v-4.2v-1.9v-0.3C41.8,31.5,38.5,30.4,35,29.9L35,29.9z"/>
<path class="st4" d="M29.7,27.8v-4.9c-3.5,0.1-6.8,1-9.9,2.4v5.2C22.8,28.9,26.2,28,29.7,27.8z"/>
<path class="st4" d="M19.8,34.8v2.5v1.1c3.1-1.6,6.4-2.5,9.9-2.6v-1.5v-2.5v-2v-0.1c-3.5,0.2-6.8,1.1-9.9,2.6v0.5V34.8z"/>
<path class="st4" d="M29.7,49.9V38.5c-3.5,0.1-6.8,1.1-9.9,2.6v11.5v1.9v4.4v17.2h9.9V56.2v-4.4V49.9z"/>
<path class="st2" d="M14.1,34v-5.4c-4.4,3.3-7.8,7.8-9.9,12.9v5.9C6.4,42,9.8,37.4,14.1,34z"/>
<path class="st2" d="M14.1,42.3v-0.9v-2.5v0v-1.9v-1C9.8,39.4,6.4,44,4.2,49.3v2v1.9V58C6.1,51.8,9.6,46.3,14.1,42.3z"/>
<path class="st2" d="M14.1,57.5V45.1c-4.5,4-8,9.5-9.9,15.7V61h9.9v-3.1V57.5z"/>
<g id="XMLID_27_">
	<path id="XMLID_28_" class="st0" d="M6.8,90.6h2.3v1.1h0c0.1-0.1,0.2-0.3,0.4-0.4c0.2-0.1,0.3-0.3,0.6-0.4c0.2-0.1,0.5-0.2,0.7-0.3
		c0.3-0.1,0.5-0.1,0.8-0.1c0.6,0,1.1,0.1,1.6,0.3s0.9,0.5,1.3,0.9s0.6,0.8,0.8,1.3c0.2,0.5,0.3,1.1,0.3,1.7c0,0.6-0.1,1.1-0.3,1.6
		c-0.2,0.5-0.4,1-0.7,1.4c-0.3,0.4-0.7,0.7-1.2,1c-0.5,0.2-1,0.4-1.5,0.4c-0.5,0-1-0.1-1.5-0.2c-0.4-0.2-0.8-0.4-1.1-0.8h0v4.6H6.8
		V90.6z M9.1,94.7c0,0.6,0.2,1.1,0.5,1.5c0.3,0.4,0.8,0.6,1.5,0.6c0.6,0,1.1-0.2,1.5-0.6c0.3-0.4,0.5-0.9,0.5-1.5
		c0-0.6-0.2-1.1-0.5-1.5c-0.3-0.4-0.8-0.6-1.5-0.6c-0.6,0-1.1,0.2-1.5,0.6C9.2,93.6,9.1,94.1,9.1,94.7z"/>
	<path id="XMLID_31_" class="st0" d="M17.4,86.2h1v6.2h0c0.2-0.4,0.5-0.8,1-1.1c0.5-0.3,1-0.5,1.6-0.5c0.6,0,1.1,0.1,1.5,0.3
		c0.4,0.2,0.7,0.4,0.9,0.7c0.2,0.3,0.4,0.7,0.4,1.1c0.1,0.4,0.1,0.8,0.1,1.2v4.6h-1v-4.5c0-0.3,0-0.6-0.1-0.9
		c-0.1-0.3-0.2-0.6-0.3-0.8c-0.1-0.2-0.3-0.4-0.6-0.6c-0.2-0.1-0.6-0.2-1-0.2c-0.4,0-0.7,0.1-1,0.2c-0.3,0.1-0.6,0.3-0.8,0.6
		c-0.2,0.3-0.4,0.6-0.6,1s-0.2,0.9-0.2,1.4v3.8h-1V86.2z"/>
	<path id="XMLID_33_" class="st0" d="M26.2,94.9c0-0.6,0.1-1.1,0.3-1.6c0.2-0.5,0.5-0.9,0.8-1.3c0.4-0.4,0.8-0.6,1.3-0.8
		c0.5-0.2,1-0.3,1.6-0.3s1.1,0.1,1.6,0.3c0.5,0.2,0.9,0.5,1.3,0.8s0.6,0.8,0.8,1.3c0.2,0.5,0.3,1,0.3,1.6c0,0.6-0.1,1.1-0.3,1.6
		c-0.2,0.5-0.5,0.9-0.8,1.3s-0.8,0.6-1.3,0.8c-0.5,0.2-1,0.3-1.6,0.3s-1.1-0.1-1.6-0.3c-0.5-0.2-0.9-0.5-1.3-0.8
		c-0.4-0.4-0.6-0.8-0.8-1.3C26.3,96,26.2,95.4,26.2,94.9z M27.2,94.9c0,0.4,0.1,0.8,0.2,1.2s0.3,0.7,0.6,1c0.3,0.3,0.6,0.5,1,0.7
		c0.4,0.2,0.8,0.2,1.3,0.2s0.9-0.1,1.3-0.2c0.4-0.2,0.7-0.4,1-0.7c0.3-0.3,0.5-0.6,0.6-1c0.1-0.4,0.2-0.8,0.2-1.2s-0.1-0.8-0.2-1.2
		c-0.1-0.4-0.3-0.7-0.6-1c-0.3-0.3-0.6-0.5-1-0.7c-0.4-0.2-0.8-0.2-1.3-0.2S29.4,91.8,29,92c-0.4,0.2-0.7,0.4-1,0.7
		c-0.3,0.3-0.5,0.6-0.6,1S27.2,94.4,27.2,94.9z"/>
	<path id="XMLID_36_" class="st0" d="M36.5,93.2c0-0.1,0-0.3,0-0.5c0-0.2,0-0.4,0-0.6c0-0.2,0-0.4,0-0.6c0-0.2,0-0.3,0-0.4h1
		c0,0.3,0,0.6,0,0.8c0,0.3,0,0.4,0,0.5h0c0.2-0.4,0.5-0.8,1-1.1c0.5-0.3,1-0.5,1.6-0.5c0.6,0,1.1,0.1,1.5,0.3
		c0.4,0.2,0.7,0.4,0.9,0.7c0.2,0.3,0.4,0.7,0.4,1.1c0.1,0.4,0.1,0.8,0.1,1.2v4.6h-1v-4.5c0-0.3,0-0.6-0.1-0.9
		c-0.1-0.3-0.2-0.6-0.3-0.8c-0.1-0.2-0.3-0.4-0.6-0.6c-0.2-0.1-0.6-0.2-1-0.2c-0.4,0-0.7,0.1-1,0.2c-0.3,0.1-0.6,0.3-0.8,0.6
		c-0.2,0.3-0.4,0.6-0.6,1s-0.2,0.9-0.2,1.4v3.8h-1V93.2z"/>
	<path id="XMLID_38_" class="st0" d="M45.3,94.9c0-0.6,0.1-1.1,0.3-1.6c0.2-0.5,0.5-0.9,0.8-1.3c0.4-0.4,0.8-0.6,1.3-0.8
		c0.5-0.2,1-0.3,1.6-0.3s1.1,0.1,1.6,0.3c0.5,0.2,0.9,0.5,1.3,0.8s0.6,0.8,0.8,1.3c0.2,0.5,0.3,1,0.3,1.6c0,0.6-0.1,1.1-0.3,1.6
		c-0.2,0.5-0.5,0.9-0.8,1.3s-0.8,0.6-1.3,0.8c-0.5,0.2-1,0.3-1.6,0.3s-1.1-0.1-1.6-0.3c-0.5-0.2-0.9-0.5-1.3-0.8
		c-0.4-0.4-0.6-0.8-0.8-1.3C45.4,96,45.3,95.4,45.3,94.9z M46.3,94.9c0,0.4,0.1,0.8,0.2,1.2s0.3,0.7,0.6,1c0.3,0.3,0.6,0.5,1,0.7
		c0.4,0.2,0.8,0.2,1.3,0.2s0.9-0.1,1.3-0.2c0.4-0.2,0.7-0.4,1-0.7c0.3-0.3,0.5-0.6,0.6-1c0.1-0.4,0.2-0.8,0.2-1.2s-0.1-0.8-0.2-1.2
		c-0.1-0.4-0.3-0.7-0.6-1c-0.3-0.3-0.6-0.5-1-0.7c-0.4-0.2-0.8-0.2-1.3-0.2S48.4,91.8,48,92c-0.4,0.2-0.7,0.4-1,0.7
		c-0.3,0.3-0.5,0.6-0.6,1S46.3,94.4,46.3,94.9z"/>
	<path id="XMLID_41_" class="st0" d="M55.6,93.2c0-0.1,0-0.3,0-0.5c0-0.2,0-0.4,0-0.6c0-0.2,0-0.4,0-0.6c0-0.2,0-0.3,0-0.4h1
		c0,0.3,0,0.6,0,0.8c0,0.3,0,0.4,0,0.5h0c0.2-0.4,0.5-0.8,1-1.1c0.5-0.3,1-0.5,1.6-0.5c0.6,0,1.1,0.1,1.5,0.3
		c0.4,0.2,0.7,0.4,0.9,0.7c0.2,0.3,0.4,0.7,0.4,1.1c0.1,0.4,0.1,0.8,0.1,1.2v4.6h-1v-4.5c0-0.3,0-0.6-0.1-0.9
		c-0.1-0.3-0.2-0.6-0.3-0.8c-0.1-0.2-0.3-0.4-0.6-0.6c-0.2-0.1-0.6-0.2-1-0.2c-0.4,0-0.7,0.1-1,0.2c-0.3,0.1-0.6,0.3-0.8,0.6
		c-0.2,0.3-0.4,0.6-0.6,1s-0.2,0.9-0.2,1.4v3.8h-1V93.2z"/>
	<path id="XMLID_43_" class="st0" d="M68.3,94.7c0-0.6,0.1-1.2,0.3-1.7c0.2-0.5,0.5-1,1-1.3c0.4-0.4,0.9-0.7,1.4-0.9
		c0.5-0.2,1.1-0.3,1.7-0.3c0.6,0,1.2,0.1,1.7,0.3c0.5,0.2,1,0.5,1.4,0.9s0.7,0.8,1,1.3c0.2,0.5,0.3,1.1,0.3,1.7
		c0,0.6-0.1,1.2-0.3,1.7c-0.2,0.5-0.6,1-1,1.3s-0.9,0.7-1.4,0.9c-0.5,0.2-1.1,0.3-1.7,0.3c-0.6,0-1.2-0.1-1.7-0.3
		c-0.5-0.2-1-0.5-1.4-0.9c-0.4-0.4-0.7-0.8-1-1.3C68.5,95.9,68.3,95.3,68.3,94.7z M70.8,94.7c0,0.6,0.2,1.1,0.5,1.5
		c0.3,0.4,0.8,0.6,1.5,0.6c0.6,0,1.1-0.2,1.5-0.6c0.3-0.4,0.5-0.9,0.5-1.5c0-0.6-0.2-1.1-0.5-1.5c-0.3-0.4-0.8-0.6-1.5-0.6
		c-0.6,0-1.1,0.2-1.5,0.6C71,93.6,70.8,94.1,70.8,94.7z"/>
	<path id="XMLID_46_" class="st0" d="M79,91h1v1.3h0c0.2-0.3,0.3-0.5,0.6-0.7c0.2-0.2,0.5-0.4,0.8-0.5c0.3-0.1,0.6-0.2,0.9-0.3
		c0.3-0.1,0.6-0.1,0.9-0.1c0.6,0,1.1,0.1,1.6,0.3c0.5,0.2,0.9,0.5,1.3,0.8c0.4,0.4,0.6,0.8,0.8,1.3c0.2,0.5,0.3,1,0.3,1.6
		c0,0.6-0.1,1.1-0.3,1.6c-0.2,0.5-0.5,0.9-0.8,1.3c-0.4,0.4-0.8,0.6-1.3,0.8c-0.5,0.2-1,0.3-1.6,0.3c-0.3,0-0.6,0-0.9-0.1
		c-0.3-0.1-0.6-0.2-0.9-0.3c-0.3-0.1-0.5-0.3-0.8-0.5c-0.2-0.2-0.4-0.4-0.6-0.7h0v5.1h-1V91z M79.9,94.9c0,0.4,0.1,0.8,0.2,1.2
		s0.4,0.7,0.7,1c0.3,0.3,0.6,0.5,1,0.7c0.4,0.2,0.8,0.2,1.3,0.2c0.5,0,0.9-0.1,1.3-0.2c0.4-0.2,0.7-0.4,1-0.7c0.3-0.3,0.5-0.6,0.6-1
		c0.1-0.4,0.2-0.8,0.2-1.2S86,94,85.9,93.6c-0.1-0.4-0.3-0.7-0.6-1c-0.3-0.3-0.6-0.5-1-0.7c-0.4-0.2-0.8-0.2-1.3-0.2
		c-0.5,0-0.9,0.1-1.3,0.2c-0.4,0.2-0.7,0.4-1,0.7c-0.3,0.3-0.5,0.6-0.7,1S79.9,94.4,79.9,94.9z"/>
	<path id="XMLID_49_" class="st0" d="M93.1,91.9h-2.2v5c0,0.3,0.1,0.6,0.3,0.8c0.2,0.2,0.4,0.3,0.8,0.3c0.2,0,0.4,0,0.6-0.1
		c0.2-0.1,0.4-0.1,0.6-0.2l0.1,0.9c-0.2,0.1-0.4,0.1-0.6,0.2c-0.2,0.1-0.5,0.1-0.6,0.1c-0.4,0-0.7-0.1-0.9-0.2
		c-0.3-0.1-0.5-0.2-0.6-0.4c-0.2-0.2-0.3-0.4-0.3-0.6c-0.1-0.2-0.1-0.5-0.1-0.8v-5h-1.7V91h1.7v-2.2h1V91h2.2V91.9z"/>
	<path id="XMLID_51_" class="st0" d="M94.8,88c0-0.2,0.1-0.4,0.2-0.5s0.3-0.2,0.5-0.2c0.2,0,0.4,0.1,0.5,0.2s0.2,0.3,0.2,0.5
		c0,0.2-0.1,0.4-0.2,0.5c-0.1,0.1-0.3,0.2-0.5,0.2c-0.2,0-0.4-0.1-0.5-0.2C94.9,88.4,94.8,88.2,94.8,88z M95,91h1v7.7h-1V91z"/>
	<path id="XMLID_54_" class="st0" d="M98.8,93.2c0-0.1,0-0.3,0-0.5c0-0.2,0-0.4,0-0.6c0-0.2,0-0.4,0-0.6c0-0.2,0-0.3,0-0.4h1
		c0,0.3,0,0.6,0,0.8c0,0.3,0,0.4,0,0.5h0c0.2-0.4,0.5-0.8,1-1.1c0.5-0.3,1-0.5,1.6-0.5c0.5,0,1,0.1,1.4,0.4s0.7,0.7,0.9,1.3
		c0.2-0.6,0.6-1,1.1-1.3c0.5-0.3,1-0.4,1.5-0.4c0.6,0,1.1,0.1,1.5,0.3c0.4,0.2,0.7,0.4,0.9,0.7c0.2,0.3,0.4,0.7,0.4,1.1
		c0.1,0.4,0.1,0.8,0.1,1.2v4.6h-1v-4.5c0-0.3,0-0.6-0.1-0.9c-0.1-0.3-0.2-0.6-0.3-0.8c-0.1-0.2-0.3-0.4-0.6-0.6
		c-0.2-0.1-0.6-0.2-1-0.2c-0.5,0-0.8,0.1-1.1,0.3c-0.3,0.2-0.5,0.4-0.7,0.7c-0.2,0.3-0.3,0.6-0.4,0.9c-0.1,0.3-0.1,0.6-0.1,0.9v4.3
		h-1v-4.6c0-0.7-0.1-1.3-0.4-1.7c-0.3-0.4-0.7-0.6-1.2-0.6c-0.4,0-0.7,0.1-1,0.2c-0.3,0.1-0.6,0.3-0.8,0.6c-0.2,0.3-0.4,0.6-0.6,1
		s-0.2,0.9-0.2,1.4v3.8h-1V93.2z"/>
	<path id="XMLID_56_" class="st0" d="M112.9,88c0-0.2,0.1-0.4,0.2-0.5s0.3-0.2,0.5-0.2c0.2,0,0.4,0.1,0.5,0.2s0.2,0.3,0.2,0.5
		c0,0.2-0.1,0.4-0.2,0.5c-0.1,0.1-0.3,0.2-0.5,0.2c-0.2,0-0.4-0.1-0.5-0.2C113,88.4,112.9,88.2,112.9,88z M113.1,91h1v7.7h-1V91z"/>
	<path id="XMLID_59_" class="st0" d="M116.1,98.1l4.6-6.2h-4.4V91h5.7v0.6l-4.6,6.2h4.8v0.9h-6.2V98.1z"/>
	<path id="XMLID_61_" class="st0" d="M130.8,97.2c-0.4,0.6-0.9,1-1.4,1.3s-1.2,0.4-1.9,0.4c-0.6,0-1.1-0.1-1.6-0.3
		c-0.5-0.2-0.9-0.5-1.2-0.8c-0.3-0.4-0.6-0.8-0.8-1.3c-0.2-0.5-0.3-1-0.3-1.6c0-0.6,0.1-1.1,0.3-1.6s0.5-0.9,0.8-1.3
		c0.3-0.4,0.7-0.6,1.2-0.8c0.5-0.2,1-0.3,1.5-0.3c0.6,0,1.1,0.1,1.5,0.3c0.4,0.2,0.8,0.5,1.1,0.8c0.3,0.3,0.5,0.7,0.7,1.2
		c0.2,0.4,0.2,0.9,0.2,1.3v0.7h-6.4c0,0.2,0,0.5,0.1,0.8c0.1,0.3,0.2,0.6,0.5,1c0.2,0.3,0.5,0.6,0.9,0.8c0.4,0.2,0.8,0.3,1.4,0.3
		c0.5,0,1-0.1,1.5-0.4c0.5-0.2,0.8-0.6,1.1-1L130.8,97.2z M130,94.2c0-0.3-0.1-0.7-0.2-1s-0.3-0.6-0.6-0.8c-0.2-0.2-0.5-0.4-0.8-0.5
		c-0.3-0.1-0.7-0.2-1-0.2c-0.5,0-1,0.1-1.4,0.3s-0.6,0.5-0.9,0.8c-0.2,0.3-0.4,0.6-0.4,0.8c-0.1,0.3-0.1,0.5-0.1,0.6H130z"/>
	<path id="XMLID_64_" class="st0" d="M139.9,97.3L139.9,97.3c-0.2,0.3-0.4,0.5-0.6,0.7c-0.2,0.2-0.5,0.4-0.8,0.5
		c-0.3,0.1-0.6,0.2-0.9,0.3c-0.3,0.1-0.6,0.1-0.9,0.1c-0.6,0-1.1-0.1-1.6-0.3c-0.5-0.2-0.9-0.5-1.3-0.8c-0.4-0.4-0.6-0.8-0.8-1.3
		c-0.2-0.5-0.3-1-0.3-1.6c0-0.6,0.1-1.1,0.3-1.6c0.2-0.5,0.5-0.9,0.8-1.3c0.4-0.4,0.8-0.6,1.3-0.8c0.5-0.2,1-0.3,1.6-0.3
		c0.3,0,0.6,0,0.9,0.1c0.3,0.1,0.6,0.2,0.9,0.3s0.5,0.3,0.8,0.5c0.2,0.2,0.4,0.4,0.6,0.7h0v-6.2h1v12.5h-1V97.3z M140,94.9
		c0-0.4-0.1-0.8-0.2-1.2c-0.2-0.4-0.4-0.7-0.7-1c-0.3-0.3-0.6-0.5-1-0.7c-0.4-0.2-0.8-0.2-1.3-0.2c-0.5,0-0.9,0.1-1.3,0.2
		c-0.4,0.2-0.7,0.4-1,0.7c-0.3,0.3-0.5,0.6-0.6,1s-0.2,0.8-0.2,1.2s0.1,0.8,0.2,1.2s0.3,0.7,0.6,1c0.3,0.3,0.6,0.5,1,0.7
		c0.4,0.2,0.8,0.2,1.3,0.2c0.5,0,0.9-0.1,1.3-0.2c0.4-0.2,0.7-0.4,1-0.7c0.3-0.3,0.5-0.6,0.7-1C140,95.7,140,95.3,140,94.9z"/>
	<path id="XMLID_67_" class="st0" d="M154.9,97.3c-0.4,0.5-0.9,0.9-1.5,1.2c-0.6,0.3-1.2,0.4-1.9,0.4c-0.6,0-1.2-0.1-1.7-0.3
		c-0.5-0.2-1-0.5-1.4-0.9c-0.4-0.4-0.7-0.8-1-1.3c-0.2-0.5-0.3-1.1-0.3-1.7c0-0.6,0.1-1.2,0.3-1.7c0.2-0.5,0.5-1,1-1.3
		c0.4-0.4,0.9-0.7,1.4-0.9c0.5-0.2,1.1-0.3,1.7-0.3c0.6,0,1.1,0.1,1.6,0.3c0.5,0.2,0.9,0.5,1.2,0.9s0.6,0.8,0.8,1.3
		c0.2,0.5,0.3,1.1,0.3,1.7v0.8h-5.8c0.1,0.5,0.3,0.9,0.6,1.1c0.3,0.3,0.7,0.4,1.2,0.4c0.4,0,0.8-0.1,1-0.3s0.5-0.4,0.7-0.7
		L154.9,97.3z M152.7,93.7c0-0.4-0.1-0.8-0.4-1.1s-0.7-0.4-1.1-0.4c-0.3,0-0.5,0-0.7,0.1c-0.2,0.1-0.4,0.2-0.5,0.3
		c-0.1,0.1-0.3,0.3-0.3,0.5c-0.1,0.2-0.1,0.4-0.1,0.6H152.7z"/>
	<path id="XMLID_70_" class="st0" d="M157.2,93.2c0-0.1,0-0.3,0-0.5c0-0.2,0-0.4,0-0.6c0-0.2,0-0.4,0-0.6c0-0.2,0-0.3,0-0.4h1
		c0,0.3,0,0.6,0,0.8c0,0.3,0,0.4,0,0.5h0c0.2-0.4,0.5-0.8,1-1.1c0.5-0.3,1-0.5,1.6-0.5c0.6,0,1.1,0.1,1.5,0.3
		c0.4,0.2,0.7,0.4,0.9,0.7c0.2,0.3,0.4,0.7,0.4,1.1c0.1,0.4,0.1,0.8,0.1,1.2v4.6h-1v-4.5c0-0.3,0-0.6-0.1-0.9s-0.2-0.6-0.3-0.8
		c-0.1-0.2-0.3-0.4-0.6-0.6c-0.2-0.1-0.6-0.2-1-0.2c-0.4,0-0.7,0.1-1,0.2s-0.6,0.3-0.8,0.6c-0.2,0.3-0.4,0.6-0.6,1s-0.2,0.9-0.2,1.4
		v3.8h-1V93.2z"/>
	<path id="XMLID_72_" class="st0" d="M174.1,98.2c0,1-0.1,1.7-0.4,2.3c-0.3,0.6-0.6,1-1,1.4c-0.4,0.3-0.9,0.5-1.3,0.6
		c-0.5,0.1-0.9,0.2-1.3,0.2c-0.4,0-0.8,0-1.1-0.1c-0.4-0.1-0.7-0.2-1.1-0.3c-0.3-0.1-0.6-0.3-0.9-0.5c-0.3-0.2-0.5-0.4-0.7-0.7
		l0.8-0.7c0.4,0.5,0.8,0.9,1.3,1.1c0.5,0.2,1.1,0.3,1.7,0.3c0.5,0,0.9-0.1,1.3-0.2c0.3-0.1,0.6-0.3,0.9-0.5c0.2-0.2,0.4-0.5,0.5-0.7
		s0.2-0.5,0.3-0.8s0.1-0.5,0.1-0.7c0-0.2,0-0.4,0-0.6v-1.1h0c-0.3,0.5-0.7,0.8-1.2,1.1c-0.5,0.3-1.1,0.4-1.7,0.4
		c-0.6,0-1.1-0.1-1.6-0.3c-0.5-0.2-0.9-0.5-1.3-0.8c-0.4-0.4-0.7-0.8-0.9-1.3c-0.2-0.5-0.3-1-0.3-1.5s0.1-1,0.3-1.5
		c0.2-0.5,0.5-0.9,0.9-1.2c0.4-0.4,0.8-0.6,1.3-0.8c0.5-0.2,1-0.3,1.6-0.3c0.7,0,1.2,0.1,1.7,0.4c0.5,0.3,0.9,0.6,1.2,1.1h0V91h1
		V98.2z M173.1,94.8c0-0.4-0.1-0.8-0.2-1.2c-0.2-0.4-0.4-0.7-0.6-1c-0.3-0.3-0.6-0.5-1-0.6c-0.4-0.2-0.8-0.2-1.2-0.2
		s-0.8,0.1-1.2,0.2c-0.4,0.2-0.7,0.4-1,0.6c-0.3,0.3-0.5,0.6-0.6,1c-0.2,0.4-0.2,0.8-0.2,1.2c0,0.4,0.1,0.8,0.2,1.2
		c0.2,0.4,0.4,0.7,0.6,1c0.3,0.3,0.6,0.5,1,0.6c0.4,0.2,0.8,0.2,1.2,0.2s0.8-0.1,1.2-0.2c0.4-0.2,0.7-0.4,1-0.6s0.5-0.6,0.6-1
		S173.1,95.2,173.1,94.8z"/>
	<path id="XMLID_75_" class="st0" d="M176.5,88c0-0.2,0.1-0.4,0.2-0.5s0.3-0.2,0.5-0.2c0.2,0,0.4,0.1,0.5,0.2
		c0.1,0.1,0.2,0.3,0.2,0.5c0,0.2-0.1,0.4-0.2,0.5c-0.1,0.1-0.3,0.2-0.5,0.2c-0.2,0-0.4-0.1-0.5-0.2C176.5,88.4,176.5,88.2,176.5,88z
		 M176.7,91h1v7.7h-1V91z"/>
	<path id="XMLID_78_" class="st0" d="M180.5,93.2c0-0.1,0-0.3,0-0.5c0-0.2,0-0.4,0-0.6c0-0.2,0-0.4,0-0.6c0-0.2,0-0.3,0-0.4h1
		c0,0.3,0,0.6,0,0.8c0,0.3,0,0.4,0,0.5h0c0.2-0.4,0.5-0.8,1-1.1c0.5-0.3,1-0.5,1.6-0.5c0.6,0,1.1,0.1,1.5,0.3
		c0.4,0.2,0.7,0.4,0.9,0.7c0.2,0.3,0.4,0.7,0.4,1.1c0.1,0.4,0.1,0.8,0.1,1.2v4.6h-1v-4.5c0-0.3,0-0.6-0.1-0.9s-0.2-0.6-0.3-0.8
		c-0.1-0.2-0.3-0.4-0.6-0.6c-0.2-0.1-0.6-0.2-1-0.2c-0.4,0-0.7,0.1-1,0.2s-0.6,0.3-0.8,0.6c-0.2,0.3-0.4,0.6-0.6,1s-0.2,0.9-0.2,1.4
		v3.8h-1V93.2z"/>
	<path id="XMLID_80_" class="st0" d="M196.5,97.2c-0.4,0.6-0.9,1-1.4,1.3s-1.2,0.4-1.9,0.4c-0.6,0-1.1-0.1-1.6-0.3
		c-0.5-0.2-0.9-0.5-1.2-0.8s-0.6-0.8-0.8-1.3c-0.2-0.5-0.3-1-0.3-1.6c0-0.6,0.1-1.1,0.3-1.6c0.2-0.5,0.5-0.9,0.8-1.3
		s0.7-0.6,1.2-0.8c0.5-0.2,1-0.3,1.5-0.3c0.6,0,1.1,0.1,1.5,0.3c0.4,0.2,0.8,0.5,1.1,0.8c0.3,0.3,0.5,0.7,0.7,1.2
		c0.2,0.4,0.2,0.9,0.2,1.3v0.7h-6.4c0,0.2,0,0.5,0.1,0.8c0.1,0.3,0.2,0.6,0.5,1c0.2,0.3,0.5,0.6,0.9,0.8c0.4,0.2,0.8,0.3,1.4,0.3
		c0.5,0,1-0.1,1.5-0.4c0.5-0.2,0.8-0.6,1.1-1L196.5,97.2z M195.7,94.2c0-0.3-0.1-0.7-0.2-1c-0.1-0.3-0.3-0.6-0.6-0.8
		c-0.2-0.2-0.5-0.4-0.8-0.5s-0.7-0.2-1-0.2c-0.5,0-1,0.1-1.4,0.3s-0.6,0.5-0.9,0.8c-0.2,0.3-0.4,0.6-0.4,0.8
		c-0.1,0.3-0.1,0.5-0.1,0.6H195.7z"/>
	<path id="XMLID_83_" class="st0" d="M205.7,97.2c-0.4,0.6-0.9,1-1.4,1.3s-1.2,0.4-1.9,0.4c-0.6,0-1.1-0.1-1.6-0.3
		c-0.5-0.2-0.9-0.5-1.2-0.8s-0.6-0.8-0.8-1.3c-0.2-0.5-0.3-1-0.3-1.6c0-0.6,0.1-1.1,0.3-1.6c0.2-0.5,0.5-0.9,0.8-1.3
		s0.7-0.6,1.2-0.8c0.5-0.2,1-0.3,1.5-0.3c0.6,0,1.1,0.1,1.5,0.3c0.4,0.2,0.8,0.5,1.1,0.8c0.3,0.3,0.5,0.7,0.7,1.2
		c0.2,0.4,0.2,0.9,0.2,1.3v0.7h-6.4c0,0.2,0,0.5,0.1,0.8c0.1,0.3,0.2,0.6,0.5,1c0.2,0.3,0.5,0.6,0.9,0.8c0.4,0.2,0.8,0.3,1.4,0.3
		c0.5,0,1-0.1,1.5-0.4c0.5-0.2,0.8-0.6,1.1-1L205.7,97.2z M205,94.2c0-0.3-0.1-0.7-0.2-1c-0.1-0.3-0.3-0.6-0.6-0.8
		c-0.2-0.2-0.5-0.4-0.8-0.5s-0.7-0.2-1-0.2c-0.5,0-1,0.1-1.4,0.3s-0.6,0.5-0.9,0.8c-0.2,0.3-0.4,0.6-0.4,0.8
		c-0.1,0.3-0.1,0.5-0.1,0.6H205z"/>
	<path id="XMLID_86_" class="st0" d="M208.2,93.2c0-0.1,0-0.3,0-0.5c0-0.2,0-0.4,0-0.6c0-0.2,0-0.4,0-0.6c0-0.2,0-0.3,0-0.4h1
		c0,0.3,0,0.6,0,0.8c0,0.3,0,0.4,0,0.5c0.3-0.5,0.6-0.8,1-1.1c0.4-0.3,0.9-0.4,1.5-0.4c0.1,0,0.2,0,0.3,0s0.2,0,0.3,0.1l-0.1,1
		c-0.1,0-0.3-0.1-0.4-0.1c-0.4,0-0.8,0.1-1.1,0.2c-0.3,0.1-0.6,0.3-0.8,0.6c-0.2,0.2-0.4,0.5-0.5,0.9s-0.1,0.7-0.1,1.1v4.2h-1V93.2z
		"/>
	<path id="XMLID_88_" class="st0" d="M220.2,97.2c-0.4,0.6-0.9,1-1.4,1.3s-1.2,0.4-1.9,0.4c-0.6,0-1.1-0.1-1.6-0.3
		c-0.5-0.2-0.9-0.5-1.2-0.8s-0.6-0.8-0.8-1.3c-0.2-0.5-0.3-1-0.3-1.6c0-0.6,0.1-1.1,0.3-1.6c0.2-0.5,0.5-0.9,0.8-1.3
		s0.7-0.6,1.2-0.8c0.5-0.2,1-0.3,1.5-0.3c0.6,0,1.1,0.1,1.5,0.3c0.4,0.2,0.8,0.5,1.1,0.8c0.3,0.3,0.5,0.7,0.7,1.2
		c0.2,0.4,0.2,0.9,0.2,1.3v0.7H214c0,0.2,0,0.5,0.1,0.8c0.1,0.3,0.2,0.6,0.5,1c0.2,0.3,0.5,0.6,0.9,0.8c0.4,0.2,0.8,0.3,1.4,0.3
		c0.5,0,1-0.1,1.5-0.4c0.5-0.2,0.8-0.6,1.1-1L220.2,97.2z M219.4,94.2c0-0.3-0.1-0.7-0.2-1c-0.1-0.3-0.3-0.6-0.6-0.8
		c-0.2-0.2-0.5-0.4-0.8-0.5s-0.7-0.2-1-0.2c-0.5,0-1,0.1-1.4,0.3s-0.6,0.5-0.9,0.8c-0.2,0.3-0.4,0.6-0.4,0.8
		c-0.1,0.3-0.1,0.5-0.1,0.6H219.4z"/>
	<path id="XMLID_91_" class="st0" d="M229.3,97.3L229.3,97.3c-0.2,0.3-0.4,0.5-0.6,0.7c-0.2,0.2-0.5,0.4-0.8,0.5
		c-0.3,0.1-0.6,0.2-0.9,0.3c-0.3,0.1-0.6,0.1-0.9,0.1c-0.6,0-1.1-0.1-1.6-0.3c-0.5-0.2-0.9-0.5-1.3-0.8s-0.6-0.8-0.8-1.3
		c-0.2-0.5-0.3-1-0.3-1.6c0-0.6,0.1-1.1,0.3-1.6c0.2-0.5,0.5-0.9,0.8-1.3s0.8-0.6,1.3-0.8c0.5-0.2,1-0.3,1.6-0.3
		c0.3,0,0.6,0,0.9,0.1c0.3,0.1,0.6,0.2,0.9,0.3c0.3,0.1,0.5,0.3,0.8,0.5c0.2,0.2,0.4,0.4,0.6,0.7h0v-6.2h1v12.5h-1V97.3z
		 M229.4,94.9c0-0.4-0.1-0.8-0.2-1.2c-0.2-0.4-0.4-0.7-0.7-1c-0.3-0.3-0.6-0.5-1-0.7c-0.4-0.2-0.8-0.2-1.3-0.2
		c-0.5,0-0.9,0.1-1.3,0.2c-0.4,0.2-0.7,0.4-1,0.7c-0.3,0.3-0.5,0.6-0.6,1c-0.1,0.4-0.2,0.8-0.2,1.2s0.1,0.8,0.2,1.2
		c0.1,0.4,0.3,0.7,0.6,1c0.3,0.3,0.6,0.5,1,0.7c0.4,0.2,0.8,0.2,1.3,0.2c0.5,0,0.9-0.1,1.3-0.2c0.4-0.2,0.7-0.4,1-0.7
		c0.3-0.3,0.5-0.6,0.7-1C229.3,95.7,229.4,95.3,229.4,94.9z"/>
	<path id="XMLID_94_" class="st0" d="M236.6,90.6h2.4v1.1h0c0.1-0.2,0.2-0.3,0.3-0.5s0.3-0.3,0.5-0.4c0.2-0.1,0.4-0.2,0.7-0.3
		c0.3-0.1,0.5-0.1,0.8-0.1c0.6,0,1.1,0.1,1.5,0.3c0.4,0.2,0.8,0.6,1,1.1c0.3-0.5,0.6-0.9,1-1.1c0.4-0.2,0.9-0.3,1.5-0.3
		c0.5,0,1,0.1,1.4,0.3c0.4,0.2,0.7,0.4,0.9,0.7c0.2,0.3,0.4,0.7,0.5,1.1c0.1,0.4,0.1,0.9,0.1,1.4v4.8h-2.5V94c0-0.4-0.1-0.7-0.2-1
		s-0.4-0.4-0.9-0.4c-0.3,0-0.5,0-0.7,0.1s-0.3,0.2-0.5,0.4s-0.2,0.4-0.2,0.6c0,0.2-0.1,0.5-0.1,0.7v4.3h-2.5v-4.3c0-0.1,0-0.3,0-0.5
		c0-0.2,0-0.4-0.1-0.6c-0.1-0.2-0.2-0.3-0.3-0.5c-0.1-0.1-0.4-0.2-0.7-0.2c-0.3,0-0.6,0.1-0.8,0.2c-0.2,0.1-0.4,0.3-0.5,0.5
		c-0.1,0.2-0.2,0.4-0.2,0.7c0,0.2,0,0.5,0,0.8v4h-2.5V90.6z"/>
	<path id="XMLID_96_" class="st0" d="M257.4,95.5c0,0.4,0,0.7,0,1c0,0.3,0,0.6,0,0.8s0,0.5,0,0.7s0,0.4,0.1,0.7h-0.9
		c-0.1-0.4-0.1-0.8-0.1-1.2h0c-0.3,0.5-0.6,0.9-1.1,1.1c-0.4,0.2-1,0.3-1.6,0.3c-0.3,0-0.7,0-1-0.1c-0.3-0.1-0.6-0.2-0.9-0.4
		c-0.3-0.2-0.5-0.4-0.6-0.7c-0.2-0.3-0.2-0.6-0.2-1c0-0.6,0.1-1,0.4-1.4c0.3-0.3,0.7-0.6,1.1-0.8s0.9-0.3,1.4-0.3
		c0.5-0.1,0.9-0.1,1.3-0.1h1.2v-0.5c0-0.7-0.2-1.1-0.6-1.4c-0.4-0.3-0.9-0.4-1.5-0.4c-0.9,0-1.7,0.3-2.3,0.9l-0.6-0.7
		c0.4-0.4,0.8-0.6,1.4-0.8c0.5-0.2,1.1-0.3,1.6-0.3c0.9,0,1.7,0.2,2.2,0.7c0.6,0.4,0.8,1.1,0.8,2.1V95.5z M255.4,94.8
		c-0.4,0-0.8,0-1.2,0.1s-0.7,0.1-1.1,0.3c-0.3,0.1-0.6,0.3-0.8,0.5c-0.2,0.2-0.3,0.5-0.3,0.8c0,0.2,0.1,0.4,0.2,0.6
		c0.1,0.2,0.2,0.3,0.4,0.4c0.2,0.1,0.4,0.2,0.6,0.3c0.2,0.1,0.4,0.1,0.6,0.1c0.5,0,1-0.1,1.3-0.2c0.3-0.2,0.6-0.4,0.8-0.6
		c0.2-0.2,0.3-0.5,0.4-0.8c0.1-0.3,0.1-0.6,0.1-1v-0.5H255.4z"/>
	<path id="XMLID_99_" class="st0" d="M263.8,91.9h-2.2v5c0,0.3,0.1,0.6,0.3,0.8c0.2,0.2,0.4,0.3,0.8,0.3c0.2,0,0.4,0,0.6-0.1
		c0.2-0.1,0.4-0.1,0.6-0.2l0.1,0.9c-0.2,0.1-0.4,0.1-0.6,0.2c-0.2,0.1-0.5,0.1-0.6,0.1c-0.4,0-0.7-0.1-0.9-0.2
		c-0.3-0.1-0.5-0.2-0.6-0.4c-0.2-0.2-0.3-0.4-0.3-0.6c-0.1-0.2-0.1-0.5-0.1-0.8v-5H259V91h1.7v-2.2h1V91h2.2V91.9z"/>
	<path id="XMLID_101_" class="st0" d="M272.4,97.2c-0.4,0.6-0.9,1-1.4,1.3s-1.2,0.4-1.9,0.4c-0.6,0-1.1-0.1-1.6-0.3
		c-0.5-0.2-0.9-0.5-1.2-0.8s-0.6-0.8-0.8-1.3c-0.2-0.5-0.3-1-0.3-1.6c0-0.6,0.1-1.1,0.3-1.6c0.2-0.5,0.5-0.9,0.8-1.3
		s0.7-0.6,1.2-0.8c0.5-0.2,1-0.3,1.5-0.3c0.6,0,1.1,0.1,1.5,0.3c0.4,0.2,0.8,0.5,1.1,0.8c0.3,0.3,0.5,0.7,0.7,1.2
		c0.2,0.4,0.2,0.9,0.2,1.3v0.7h-6.4c0,0.2,0,0.5,0.1,0.8c0.1,0.3,0.2,0.6,0.5,1c0.2,0.3,0.5,0.6,0.9,0.8c0.4,0.2,0.8,0.3,1.4,0.3
		c0.5,0,1-0.1,1.5-0.4c0.5-0.2,0.8-0.6,1.1-1L272.4,97.2z M271.6,94.2c0-0.3-0.1-0.7-0.2-1c-0.1-0.3-0.3-0.6-0.6-0.8
		c-0.2-0.2-0.5-0.4-0.8-0.5s-0.7-0.2-1-0.2c-0.5,0-1,0.1-1.4,0.3s-0.6,0.5-0.9,0.8c-0.2,0.3-0.4,0.6-0.4,0.8
		c-0.1,0.3-0.1,0.5-0.1,0.6H271.6z"/>
	<path id="XMLID_104_" class="st0" d="M274.8,93.2c0-0.1,0-0.3,0-0.5c0-0.2,0-0.4,0-0.6c0-0.2,0-0.4,0-0.6c0-0.2,0-0.3,0-0.4h1
		c0,0.3,0,0.6,0,0.8c0,0.3,0,0.4,0,0.5c0.3-0.5,0.6-0.8,1-1.1c0.4-0.3,0.9-0.4,1.5-0.4c0.1,0,0.2,0,0.3,0s0.2,0,0.3,0.1l-0.1,1
		c-0.1,0-0.3-0.1-0.4-0.1c-0.4,0-0.8,0.1-1.1,0.2c-0.3,0.1-0.6,0.3-0.8,0.6c-0.2,0.2-0.4,0.5-0.5,0.9s-0.1,0.7-0.1,1.1v4.2h-1V93.2z
		"/>
	<path id="XMLID_106_" class="st0" d="M280.3,88c0-0.2,0.1-0.4,0.2-0.5s0.3-0.2,0.5-0.2s0.4,0.1,0.5,0.2c0.1,0.1,0.2,0.3,0.2,0.5
		c0,0.2-0.1,0.4-0.2,0.5c-0.1,0.1-0.3,0.2-0.5,0.2s-0.4-0.1-0.5-0.2C280.3,88.4,280.3,88.2,280.3,88z M280.5,91h1v7.7h-1V91z"/>
	<path id="XMLID_109_" class="st0" d="M290.3,95.5c0,0.4,0,0.7,0,1c0,0.3,0,0.6,0,0.8s0,0.5,0,0.7s0,0.4,0.1,0.7h-0.9
		c-0.1-0.4-0.1-0.8-0.1-1.2h0c-0.3,0.5-0.6,0.9-1.1,1.1c-0.4,0.2-1,0.3-1.6,0.3c-0.3,0-0.7,0-1-0.1c-0.3-0.1-0.6-0.2-0.9-0.4
		c-0.3-0.2-0.5-0.4-0.6-0.7c-0.2-0.3-0.2-0.6-0.2-1c0-0.6,0.1-1,0.4-1.4c0.3-0.3,0.7-0.6,1.1-0.8s0.9-0.3,1.4-0.3
		c0.5-0.1,0.9-0.1,1.3-0.1h1.2v-0.5c0-0.7-0.2-1.1-0.6-1.4s-0.9-0.4-1.5-0.4c-0.9,0-1.7,0.3-2.3,0.9l-0.6-0.7
		c0.4-0.4,0.8-0.6,1.4-0.8c0.5-0.2,1.1-0.3,1.6-0.3c0.9,0,1.7,0.2,2.2,0.7c0.6,0.4,0.8,1.1,0.8,2.1V95.5z M288.3,94.8
		c-0.4,0-0.8,0-1.2,0.1s-0.7,0.1-1.1,0.3c-0.3,0.1-0.6,0.3-0.8,0.5c-0.2,0.2-0.3,0.5-0.3,0.8c0,0.2,0.1,0.4,0.2,0.6
		c0.1,0.2,0.2,0.3,0.4,0.4c0.2,0.1,0.4,0.2,0.6,0.3c0.2,0.1,0.4,0.1,0.6,0.1c0.5,0,1-0.1,1.3-0.2c0.3-0.2,0.6-0.4,0.8-0.6
		c0.2-0.2,0.3-0.5,0.4-0.8c0.1-0.3,0.1-0.6,0.1-1v-0.5H288.3z"/>
	<path id="XMLID_112_" class="st0" d="M293.1,86.2h1v12.5h-1V86.2z"/>
	<path id="XMLID_114_" class="st0" d="M296.9,96.7c0.2,0.4,0.5,0.7,0.9,0.9s0.8,0.3,1.3,0.3c0.2,0,0.4,0,0.6-0.1s0.4-0.2,0.6-0.3
		c0.2-0.1,0.3-0.3,0.4-0.4c0.1-0.2,0.2-0.4,0.2-0.6c0-0.4-0.1-0.6-0.3-0.8s-0.5-0.3-0.8-0.4c-0.3-0.1-0.7-0.2-1.1-0.3
		c-0.4-0.1-0.8-0.2-1.1-0.3c-0.3-0.1-0.6-0.4-0.8-0.6s-0.3-0.6-0.3-1.1c0-0.4,0.1-0.7,0.2-1c0.2-0.3,0.4-0.5,0.6-0.7
		c0.2-0.2,0.5-0.3,0.8-0.4s0.6-0.1,0.9-0.1c0.6,0,1.2,0.1,1.6,0.3c0.5,0.2,0.8,0.6,1.1,1.1l-0.9,0.5c-0.2-0.4-0.4-0.6-0.7-0.8
		c-0.3-0.2-0.7-0.3-1.1-0.3c-0.2,0-0.4,0-0.6,0.1s-0.4,0.1-0.5,0.2c-0.2,0.1-0.3,0.2-0.4,0.4c-0.1,0.2-0.2,0.3-0.2,0.5
		c0,0.3,0.1,0.6,0.3,0.8s0.5,0.3,0.8,0.4c0.3,0.1,0.7,0.2,1.1,0.2c0.4,0.1,0.8,0.2,1.1,0.3c0.3,0.1,0.6,0.4,0.8,0.6
		c0.2,0.3,0.3,0.7,0.3,1.2c0,0.4-0.1,0.7-0.2,1c-0.1,0.3-0.4,0.5-0.6,0.7s-0.6,0.3-0.9,0.4c-0.3,0.1-0.7,0.1-1,0.1
		c-0.7,0-1.3-0.1-1.8-0.4s-1-0.6-1.3-1.2L296.9,96.7z"/>
</g>
</svg>
